<svg width="76" height="72" viewBox="0 0 76 72" fill="none" xmlns="http://www.w3.org/2000/svg">
<g id="Group">
<path id="Vector" d="M34.9412 37.1476C34.9119 38.025 34.3555 38.6099 33.4183 38.6684C31.8662 38.7853 30.3433 38.8438 28.7911 38.7853C26.7118 38.7268 24.6325 38.9316 22.5825 38.6684C20.7375 38.4344 20.0054 36.8844 21.0889 35.3637C21.9382 34.1354 22.9047 32.9948 23.8418 31.825C25.4525 29.7779 27.0633 27.7308 28.674 25.6836C28.8497 25.4497 29.2304 25.2157 29.0547 24.894C28.879 24.5431 28.469 24.6601 28.1176 24.6601C26.3311 24.6308 24.5447 24.6601 22.7582 24.6308C21.5868 24.6016 20.8254 23.9289 20.8547 22.9931C20.8839 22.0865 21.6161 21.4431 22.7582 21.4139C24.369 21.3846 25.9797 21.4139 27.6197 21.4139C29.2304 21.4139 30.8412 21.3846 32.4812 21.4139C34.3262 21.4724 35.0583 22.7884 34.1212 24.3676C32.8326 26.5025 31.134 28.3449 29.6111 30.3043C28.4983 31.7373 27.3561 33.1411 26.2433 34.5741C26.1261 34.7495 25.8918 34.8958 26.009 35.1297C26.1261 35.3637 26.3897 35.2759 26.5947 35.2759C28.8204 35.2759 31.0462 35.276 33.2719 35.3052C34.3555 35.3344 34.9705 36.0363 34.9412 37.1476Z" fill="#C8AF84"/>
<path id="Vector_2" d="M48.442 27.643C48.442 26.7657 48.1198 26.1223 47.2998 25.8006C46.4798 25.4789 45.7184 25.6251 45.1327 26.327C44.7812 26.7657 44.4884 26.7364 44.0784 26.4147C43.1119 25.6836 41.9991 25.2449 40.7691 25.3911C37.9283 25.7421 35.644 27.8477 35.1169 30.626C34.7947 32.4099 35.029 34.1646 35.7612 35.8608C36.9326 38.5806 41.1498 40.4815 43.9905 38.2297C44.4884 37.8202 44.8398 37.9665 45.2205 38.3759C45.8062 38.99 46.5677 39.107 47.3291 38.7561C48.0613 38.4344 48.4127 37.8495 48.4127 37.0306C48.4127 35.4221 48.4127 33.8137 48.4127 32.176C48.442 30.6845 48.4127 29.1637 48.442 27.643ZM44.6348 32.2637C44.6348 34.0184 43.7855 35.3052 42.4677 35.5976C40.6519 36.007 39.0119 34.7495 38.8655 32.8194C38.8362 32.2637 38.8655 31.708 39.0119 31.1816C39.4512 29.5732 40.5641 28.7836 42.2919 28.959C43.5219 29.076 44.5762 30.3335 44.6641 31.7373C44.6348 31.942 44.6348 32.0882 44.6348 32.2637Z" fill="#C8AF84"/>
<path id="Vector_3" d="M62.6456 25.4789C58.7506 25.4496 55.9685 28.3157 55.9392 32.3222C55.9099 36.2995 58.6628 39.224 62.4114 39.2532C66.4821 39.2825 69.4107 36.4457 69.4107 32.4684C69.44 28.2864 66.7164 25.5081 62.6456 25.4789ZM64.1685 35.2467C62.8799 36.0655 61.1813 35.7438 60.3613 34.4571C59.4828 33.1118 59.4828 31.6788 60.2442 30.3043C60.7421 29.3392 61.5913 28.9005 62.7042 28.9883C63.7878 28.9298 64.5492 29.427 65.0764 30.3336C66.0135 31.942 65.6035 34.3109 64.1685 35.2467Z" fill="#C8AF84"/>
<path id="Vector_4" d="M54.3284 29.4855C54.3284 31.7666 54.3284 34.0769 54.3284 36.358C54.3284 36.9721 54.2699 37.5571 53.9184 38.0835C53.4791 38.7561 52.6299 39.107 51.8977 38.9315C51.1948 38.7561 50.6091 38.1419 50.5213 37.3523C50.4627 36.9722 50.4627 36.592 50.4627 36.1825C50.4627 32.41 50.4627 28.6081 50.4627 24.8355C50.4627 23.7242 50.287 22.6422 50.492 21.5308C50.6677 20.595 51.2534 20.0394 52.2199 20.0101C53.3034 19.9809 53.977 20.4488 54.182 21.4139C54.2699 21.8233 54.3284 22.2035 54.3284 22.6421C54.3284 24.894 54.3284 27.2044 54.3284 29.4855Z" fill="#C8AF84"/>
<path id="Vector_5" d="M65.34 0.211334H10.7217C4.86455 0.211334 0.0909424 4.97825 0.0909424 10.8272V61.4209C0.0909424 67.2698 4.86455 72.0368 10.7217 72.0368H65.34C71.1971 72.0368 75.9707 67.2698 75.9707 61.4209V10.8272C75.9707 4.97825 71.1971 0.211334 65.34 0.211334ZM74.2722 51.7993C68.3271 57.6775 61.1228 60.9529 52.952 62.3275C46.7727 63.351 40.6226 62.8246 34.6776 60.8652C32.4519 60.1341 30.4019 60.1048 28.2054 60.836C25.8918 61.5963 23.549 62.2397 21.1182 62.5614C19.1561 62.7954 17.2232 62.8831 15.2903 62.5322C14.7925 62.4444 13.9725 62.7661 13.8553 62.0643C13.7675 61.4501 14.5582 61.3039 14.9975 61.0114C16.9011 59.7247 18.6582 58.3502 19.8882 56.3615C21.0889 54.4606 20.9718 53.4955 19.4196 51.887C15.5246 47.9097 12.5082 43.3768 10.956 37.9372C9.96029 34.3694 9.60886 30.7722 9.93101 27.0874C10.956 15.7988 16.7839 7.69801 26.0968 1.87828H65.2814C70.2014 1.87828 74.2136 5.88483 74.2136 10.798V51.7993H74.2722Z" fill="#C8AF84"/>
<path id="Vector_6" d="M65.34 1.87827H26.1554C16.8425 7.698 11.0146 15.7988 9.98958 27.0874C9.66743 30.7722 9.98958 34.3986 11.0146 37.9372C12.5667 43.3475 15.5539 47.8805 19.4782 51.887C21.0597 53.4955 21.1475 54.4606 19.9468 56.3615C18.7168 58.3501 16.9303 59.7246 15.056 61.0114C14.6168 61.3039 13.826 61.4501 13.9139 62.0642C14.031 62.7661 14.8218 62.4444 15.3489 62.5322C17.2818 62.8831 19.2146 62.7953 21.1768 62.5614C23.6075 62.2689 25.9504 61.6256 28.264 60.836C30.4604 60.1048 32.5104 60.1341 34.7362 60.8652C40.6812 62.8246 46.802 63.351 53.0106 62.3274C61.1814 60.9822 68.3857 57.6775 74.3307 51.7993V10.798C74.2722 5.88481 70.26 1.87827 65.34 1.87827ZM33.4183 38.6976C31.8662 38.8146 30.3433 38.8731 28.7911 38.8146C26.7118 38.7561 24.6325 38.9608 22.5825 38.6976C20.7375 38.4636 20.0054 36.9136 21.0889 35.3929C21.9382 34.1646 22.9047 33.0241 23.8418 31.8543C25.4525 29.8071 27.0633 27.76 28.674 25.7128C28.8497 25.4789 29.2304 25.2449 29.0547 24.9232C28.879 24.5723 28.469 24.6893 28.1176 24.6893C26.3311 24.66 24.5447 24.6893 22.7582 24.66C21.5868 24.6308 20.8254 23.9582 20.8547 23.0223C20.8839 22.1157 21.6161 21.4723 22.7582 21.4431C24.369 21.4139 25.9797 21.4431 27.6197 21.4431C29.2304 21.4431 30.8412 21.4139 32.4812 21.4431C34.3262 21.5016 35.0583 22.8176 34.1212 24.3968C32.8326 26.5317 31.134 28.3741 29.6111 30.3335C28.4983 31.7665 27.3561 33.1703 26.2433 34.6033C26.1261 34.7788 25.8918 34.925 26.009 35.159C26.1261 35.3929 26.3897 35.3052 26.5947 35.3052C28.8204 35.3052 31.0462 35.3052 33.2719 35.3344C34.3847 35.3344 34.9998 36.0655 34.9412 37.1476C34.8826 38.0249 34.3555 38.6098 33.4183 38.6976ZM48.442 32.2052C48.442 33.8137 48.442 35.4222 48.442 37.0599C48.442 37.8787 48.0905 38.4636 47.3584 38.7853C46.5677 39.1362 45.8355 39.0193 45.2498 38.4051C44.8691 37.9957 44.5177 37.8495 44.0198 38.2589C41.1791 40.5108 36.9619 38.6098 35.7905 35.8901C35.0583 34.1939 34.824 32.4392 35.1462 30.6552C35.644 27.877 37.9576 25.7421 40.7984 25.4204C42.0284 25.2742 43.1412 25.7128 44.1077 26.444C44.547 26.7657 44.8105 26.7949 45.162 26.3562C45.7477 25.6836 46.5091 25.5081 47.3291 25.8298C48.1491 26.1515 48.4713 26.7949 48.4713 27.6723C48.4127 29.1637 48.442 30.6845 48.442 32.2052ZM54.3284 29.4854C54.3284 31.7665 54.3284 34.0769 54.3284 36.358C54.3284 36.9721 54.2699 37.557 53.9184 38.0834C53.4792 38.7561 52.6299 39.107 51.8977 38.9315C51.1949 38.7561 50.6091 38.1419 50.5213 37.3523C50.4627 36.9721 50.4627 36.5919 50.4627 36.1825C50.4627 32.4099 50.4627 28.6081 50.4627 24.8355C50.4627 23.7242 50.287 22.6421 50.492 21.5308C50.6677 20.595 51.2534 20.0393 52.2199 20.0101C53.3034 19.9808 53.977 20.4488 54.182 21.4139C54.2699 21.8233 54.3284 22.2035 54.3284 22.6421C54.3284 24.894 54.3284 27.2043 54.3284 29.4854ZM62.4114 39.2532C58.6335 39.224 55.9099 36.3287 55.9392 32.3222C55.9685 28.2864 58.7506 25.4496 62.6457 25.4789C66.7164 25.5081 69.44 28.2864 69.4107 32.4684C69.3814 36.4457 66.4821 39.2825 62.4114 39.2532Z" fill="white"/>
<path id="Vector_7" d="M64.1685 35.2467C62.8799 36.0656 61.1813 35.7439 60.3613 34.4571C59.4828 33.1118 59.4828 31.6788 60.2442 30.3043C60.7421 29.3392 61.5914 28.9006 62.7042 28.9883C63.7878 28.9298 64.5492 29.427 65.0764 30.3336C66.0135 31.942 65.6035 34.3109 64.1685 35.2467Z" fill="white"/>
<path id="Vector_8" d="M44.6348 32.2637C44.6348 34.0184 43.7855 35.3052 42.4677 35.5976C40.6519 36.0071 39.0119 34.7495 38.8655 32.8194C38.8362 32.2637 38.8655 31.708 39.0119 31.1816C39.4512 29.5732 40.5641 28.7836 42.2919 28.959C43.522 29.076 44.5762 30.3335 44.6641 31.7373C44.6348 31.942 44.6348 32.0882 44.6348 32.2637Z" fill="white"/>
</g>
</svg>
