<svg width="21" height="20" viewBox="0 0 21 20" fill="none" xmlns="http://www.w3.org/2000/svg">
<path d="M10.6 20.0003C10.2 20.0003 9.80004 20.0003 9.40004 20.0003C9.00004 19.9003 8.70004 19.9003 8.30004 19.9003C5.60004 19.4003 3.50004 18.1003 1.90004 15.9003C-0.199963 13.0003 -0.499964 9.80033 0.700036 6.50033C2.10004 2.80033 5.70003 0.200333 9.60003 0.100333C11.7 0.000333346 13.7 0.500333 15.5 1.70033C17.9 3.30033 19.4 5.50033 19.9 8.40033C20 8.70033 20 9.00033 20.1 9.40033C20.1 9.80033 20.1 10.2003 20.1 10.6003C20.1 10.9003 20 11.1003 20 11.4003C19.7 13.8003 18.6 15.8003 16.9 17.4003C15.5 18.7003 13.8 19.6003 11.8 19.9003C11.4 19.9003 11 19.9003 10.6 20.0003ZM4.80004 7.20033C4.80004 7.90033 5.00003 8.40033 5.20003 8.90033C5.70003 10.2003 6.50004 11.3003 7.50004 12.3003C8.80004 13.6003 10.2 14.6003 12 15.1003C12.7 15.3003 13.3 15.2003 14 14.9003C14.5 14.7003 14.8 14.3003 15.2 14.0003C15.5 13.7003 15.5 13.5003 15.2 13.3003C14.6 12.7003 14.1 12.1003 13.5 11.6003C13.2 11.3003 13 11.3003 12.7 11.6003C12.4 11.9003 12.1 12.2003 11.8 12.5003C11.4 12.9003 11 12.9003 10.5 12.6003C9.40003 11.8003 8.40003 10.8003 7.60003 9.70033C7.30003 9.20033 7.30003 8.80033 7.70003 8.40033C8.00003 8.10033 8.40003 7.70033 8.70003 7.40033C8.90003 7.20033 8.90003 6.90033 8.70003 6.70033C8.10003 6.10033 7.50004 5.50033 6.90004 4.90033C6.70004 4.70033 6.50003 4.70033 6.20003 4.90033C6.00003 5.10033 5.80004 5.30033 5.50004 5.60033C5.00004 6.10033 4.80004 6.70033 4.80004 7.20033Z" fill="#C8AF84"/>
</svg>
