<svg width="76" height="77" viewBox="0 0 76 77" fill="none" xmlns="http://www.w3.org/2000/svg">
<g id="Group">
<path id="Vector" d="M75.385 31.0755C73.335 18.705 66.365 9.84376 55.0899 4.43346C47.5634 0.836335 39.5976 -0.0117628 31.3976 1.27501C23.4611 2.5033 16.5203 5.77873 10.7803 11.423C3.63454 18.5003 0.149518 27.186 0.0909467 37.217C0.0323748 47.9498 3.78097 57.1035 11.7175 64.444C12.5375 65.2043 12.9767 66.0524 13.006 67.1637C13.0353 69.2401 13.0646 71.3165 13.1818 73.3929C13.3282 75.9664 15.4075 77.1947 17.7796 76.1711C20.0347 75.2061 22.2897 74.2117 24.5154 73.2174C25.5697 72.7495 26.5947 72.6618 27.7076 72.9835C31.1047 73.9485 34.5605 74.2995 37.6648 74.2995C40.4469 74.2702 42.8191 74.0948 45.162 73.6853C52.8349 72.3401 59.6292 69.1524 65.1642 63.6543C74.2429 54.5884 77.4351 43.5339 75.385 31.0755ZM60.6542 29.2331C58.8092 32.1576 56.9642 35.0821 55.1192 38.0358C53.3913 40.7849 51.6634 43.5631 49.9356 46.3121C47.827 49.646 44.342 50.2894 41.1791 47.9498C38.4262 45.9319 35.7026 43.8848 32.9497 41.8669C31.544 40.8141 30.7826 40.8433 29.3476 41.9254C25.599 44.7622 21.8504 47.6282 18.1018 50.4649C17.4868 50.9328 16.8718 51.2838 16.0518 50.9328C15.1439 50.5526 14.7046 49.5876 15.056 48.681C15.1732 48.4178 15.3196 48.1546 15.4661 47.8914C19.0096 42.2178 22.5825 36.5736 26.1261 30.9001C27.2976 29.0284 28.9376 28.0048 31.1633 27.9463C32.569 27.9171 33.7697 28.4435 34.8533 29.2624C37.5476 31.3095 40.2419 33.3274 42.9655 35.3453C44.4591 36.4566 45.1913 36.4566 46.7141 35.3161C50.4627 32.4793 54.2113 29.6133 57.9599 26.7766C59.0142 25.9577 60.0392 26.0162 60.6835 26.9228C61.2985 27.7124 61.1521 28.4728 60.6542 29.2331Z" fill="#C8AF84"/>
<path id="Vector_2" d="M60.6542 29.2331C58.8092 32.1576 56.9642 35.0821 55.1192 38.0358C53.3913 40.7849 51.6634 43.5631 49.9356 46.3121C47.827 49.646 44.342 50.2894 41.1791 47.9498C38.4262 45.932 35.7026 43.8848 32.9497 41.8669C31.544 40.8141 30.7826 40.8433 29.3476 41.9254C25.599 44.7622 21.8504 47.6282 18.1018 50.4649C17.4868 50.9328 16.8718 51.2838 16.0518 50.9328C15.1439 50.5526 14.7046 49.5876 15.056 48.681C15.1732 48.4178 15.3196 48.1546 15.4661 47.8914C19.0096 42.2178 22.5825 36.5736 26.1261 30.9001C27.2976 29.0284 28.9376 28.0048 31.1633 27.9464C32.569 27.9171 33.7697 28.4435 34.8533 29.2624C37.5476 31.3095 40.2419 33.3274 42.9655 35.3453C44.4591 36.4566 45.1913 36.4566 46.7141 35.3161C50.4627 32.4793 54.2113 29.6133 57.9599 26.7766C59.0142 25.9577 60.0392 26.0162 60.6835 26.9228C61.2985 27.7124 61.1521 28.4728 60.6542 29.2331Z" fill="white"/>
</g>
</svg>
