<svg width="36" height="25" viewBox="0 0 36 25" fill="none" xmlns="http://www.w3.org/2000/svg">
<g id="&#240;&#159;&#166;&#134; icon &#34;youtube&#34;">
<path id="Vector" d="M34.3748 4.61568C33.968 3.17142 32.8417 2.0387 31.391 1.63829C28.7198 0.924183 17.9815 0.924183 17.9815 0.924183C17.9815 0.924183 7.2635 0.907053 4.56447 1.63829C3.12127 2.03977 1.98962 3.17142 1.58707 4.61568C1.08067 7.35326 0.829072 10.124 0.840849 12.9076C0.835496 15.6731 1.08602 18.4395 1.58707 21.16C1.98962 22.6042 3.12127 23.737 4.56447 24.1438C7.23566 24.8579 17.9815 24.8579 17.9815 24.8579C17.9815 24.8579 28.693 24.8579 31.391 24.1438C32.8417 23.737 33.968 22.6053 34.3748 21.16C34.8662 18.4395 35.1061 15.6731 35.0889 12.9076C35.1061 10.124 34.8716 7.35326 34.3748 4.61568ZM14.5512 18.0327V7.7601L23.4898 12.9076L14.5512 18.0327Z" fill="#C8AF84"/>
</g>
</svg>
