<svg width="150" height="62" viewBox="0 0 150 62" fill="none" xmlns="http://www.w3.org/2000/svg">
<g clip-path="url(#clip0_310_169)">
<path d="M0 40.8955H2.90044L5.50692 49.0472H5.58531L8.32898 40.8955H11.1118V41.2286H10.1516V50.948H11.1118V51.2811H7.07473V50.948H8.52495V41.3658L5.19336 51.2811H4.68383L1.50901 41.3658V50.948H2.66527V51.2811H0V50.948H1.07787V41.2286H0V40.8955Z" fill="#C8AF84"/>
<path d="M15.6389 51.2811H12.2094V50.948H13.1108V41.2286H12.2094V40.8955H15.6389V41.2286H14.7374V50.948H15.6389V51.2811Z" fill="#C8AF84"/>
<path d="M24.2031 51.2615L18.363 41.503L18.3434 41.5226V50.948H19.5976V51.2811H16.9324V50.948H17.9123V41.2286H16.9324V40.8955H19.8132L24.2423 48.4006V41.2286H23.0468V40.8955H25.6533V41.2286H24.6734V51.2811L24.2031 51.2615Z" fill="#C8AF84"/>
<path d="M33.1591 46.0491H29.1808V50.948H30.1607V51.2811H26.6527V50.948H27.5542V41.2286H26.6527V40.8955H30.1607V41.2286H29.1808V45.716H33.1591V41.2286H32.1596V40.8955H35.6676V41.2286H34.7661V50.948H35.6676V51.2811H32.1596V50.948H33.1591V46.0491Z" fill="#C8AF84"/>
<path d="M38.2545 51.2811V50.948H39.3715V41.2286H38.3917C38.0389 41.2286 37.7841 41.3658 37.6469 41.6401C37.4706 41.9537 37.2354 42.8159 36.9414 44.1875H36.6083V40.8955H43.7614V44.1875H43.4282C43.2911 43.5605 43.1931 43.1294 43.1343 42.8746C42.9775 42.2672 42.8403 41.8557 42.7227 41.6205C42.5855 41.3462 42.3308 41.209 41.978 41.209H40.9981V50.948H42.1152V51.2811H38.2545Z" fill="#C8AF84"/>
<path d="M44.5454 40.8955H48.1513V41.2286H47.0734V48.7729C47.0734 49.4783 47.2302 50.0466 47.5438 50.4777C47.8769 50.9676 48.3865 51.2027 49.0528 51.2027C49.7975 51.2027 50.3854 50.9676 50.8166 50.4973C51.2477 50.027 51.4829 49.4195 51.4829 48.6749V41.2286H50.1307V40.8955H52.7959V41.2286H51.8945V48.6945C51.8945 49.5763 51.6201 50.2621 51.091 50.7716C50.5618 51.2811 49.8563 51.5358 48.9744 51.5358C46.6227 51.5358 45.4272 50.4973 45.4272 48.4398V41.2286H44.5258V40.8955H44.5454Z" fill="#C8AF84"/>
<path d="M60.5957 41.2286V50.948H62.8102C63.3394 50.948 63.7117 50.7716 63.9273 50.3993C64.2017 49.9682 64.5544 48.8709 64.9856 47.1073H65.3187V51.2811H58.0676V50.948H58.9691V41.2286H58.0676V40.8955H62.0851V41.2286H60.5957Z" fill="#C8AF84"/>
<path d="M68.5524 51.2815H65.8284V50.9484H66.6907L70.179 40.7783H71.1197L74.4121 50.9484H75.0196V51.2815H71.688V50.9484H72.7855L71.5509 47.1076H68.3957L67.1022 50.9484H68.5328V51.2815H68.5524ZM70.0419 42.3851L68.5328 46.7745H71.4725L70.0419 42.3851Z" fill="#C8AF84"/>
<path d="M75.2351 41.2286V40.8955H78.8411V41.2286H77.6652L79.8014 48.9884H79.8405L81.4475 43.7564L80.7616 41.2286H79.7818V40.8955H83.7993V41.2286H82.3882L84.544 48.9884H84.5636L86.8565 41.2286H85.661V40.8955H87.9735V41.2286H87.2876L84.2696 51.2811H83.6229L81.7023 44.4227H81.6631L79.5074 51.2811H78.8411L75.9602 41.2286H75.2351Z" fill="#C8AF84"/>
<path d="M100.144 41.2284V44.2265H99.8106C99.4186 42.992 99.1834 42.3062 99.0855 42.1494C98.6935 41.3852 98.1252 40.9933 97.4197 40.9933C96.3418 40.9933 95.6167 41.6203 95.2051 42.8744C94.97 43.6387 94.8524 44.6968 94.8524 46.0881C94.8524 47.5969 94.97 48.6747 95.2051 49.3801C95.5971 50.595 96.4006 51.2025 97.5568 51.2025C98.1644 51.2025 98.6347 50.9282 98.9483 50.3991C99.2226 49.9484 99.5362 48.9686 99.889 47.499H100.222V50.889C99.4186 51.3005 98.5171 51.516 97.5568 51.516C96.1262 51.516 94.9896 50.9478 94.1273 49.8308C93.363 48.8119 92.9906 47.5578 92.9906 46.0881C92.9906 44.5988 93.363 43.3447 94.1273 42.3454C94.97 41.2284 96.1066 40.6602 97.5568 40.6602C98.4779 40.6602 99.3206 40.8365 100.144 41.2284Z" fill="#C8AF84"/>
<path d="M102.143 46.0882C102.143 44.6773 102.495 43.4624 103.221 42.4042C104.024 41.2285 105.102 40.6406 106.454 40.6406C107.806 40.6406 108.884 41.2285 109.688 42.4042C110.413 43.4428 110.766 44.6773 110.766 46.0882C110.766 47.4794 110.413 48.714 109.688 49.7525C108.865 50.9282 107.787 51.5161 106.454 51.5161C105.122 51.5161 104.024 50.9282 103.221 49.7525C102.515 48.6944 102.143 47.4794 102.143 46.0882ZM104.004 46.0882C104.004 47.5578 104.102 48.6356 104.298 49.3018C104.651 50.5559 105.376 51.183 106.474 51.183C107.571 51.183 108.296 50.5559 108.649 49.3018C108.845 48.6356 108.943 47.5578 108.943 46.0882C108.943 44.6185 108.845 43.5408 108.649 42.8745C108.296 41.6204 107.571 40.9933 106.474 40.9933C105.376 40.9933 104.651 41.6204 104.298 42.8745C104.102 43.5408 104.004 44.6185 104.004 46.0882Z" fill="#C8AF84"/>
<path d="M112.902 50.7126C112.902 50.4774 112.98 50.2815 113.137 50.1443C113.294 49.9876 113.49 49.9092 113.705 49.9092C113.94 49.9092 114.136 49.9876 114.274 50.1443C114.43 50.3011 114.509 50.497 114.509 50.7126C114.509 50.9477 114.43 51.1437 114.274 51.2809C114.117 51.4376 113.921 51.516 113.705 51.516C113.49 51.516 113.294 51.4376 113.137 51.2809C112.98 51.1241 112.902 50.9281 112.902 50.7126Z" fill="#C8AF84"/>
<path d="M117.331 52.9269L117.056 52.6525C117.605 52.2606 117.938 51.8883 118.095 51.516C117.409 51.516 117.056 51.2417 117.056 50.7126C117.056 50.4774 117.135 50.2815 117.292 50.1443C117.448 49.9876 117.644 49.9092 117.86 49.9092C118.409 49.9092 118.663 50.2227 118.663 50.8694C118.683 51.4768 118.232 52.1823 117.331 52.9269Z" fill="#C8AF84"/>
<path d="M127.306 41.2286V50.948H129.52C130.05 50.948 130.422 50.7716 130.638 50.3993C130.912 49.9682 131.265 48.8709 131.696 47.1073H132.029V51.2811H124.778V50.948H125.679V41.2286H124.778V40.8955H128.795V41.2286H127.306Z" fill="#C8AF84"/>
<path d="M134.694 51.2811V50.948H135.811V41.2286H134.831C134.479 41.2286 134.224 41.3658 134.087 41.6401C133.91 41.9537 133.675 42.8159 133.381 44.1875H133.068V40.8955H140.221V44.1875H139.888C139.75 43.5605 139.652 43.1294 139.594 42.8746C139.437 42.2672 139.3 41.8557 139.182 41.6205C139.045 41.3462 138.79 41.209 138.437 41.209H137.457V50.948H138.575V51.2811H134.694Z" fill="#C8AF84"/>
<path d="M142.083 50.948V41.2286H141.181V40.8955H144.748C146.335 40.8955 147.609 41.3658 148.569 42.3064C149.53 43.247 150 44.5011 150 46.0883C150 47.6755 149.53 48.9296 148.569 49.8702C147.609 50.8108 146.335 51.2811 144.748 51.2811H141.181V50.948H142.083ZM143.709 41.2286V50.948H144.63C146.002 50.948 146.982 50.4581 147.531 49.4783C147.942 48.7337 148.138 47.6167 148.138 46.0883C148.138 44.5599 147.942 43.4429 147.531 42.6983C146.982 41.7185 146.022 41.2286 144.63 41.2286H143.709Z" fill="#C8AF84"/>
<path d="M26.6332 59.8245C26.6332 59.2562 26.7704 58.7663 27.0643 58.3548C27.3975 57.8846 27.8286 57.6494 28.3578 57.6494C28.9065 57.6494 29.3376 57.8846 29.6512 58.3548C29.9452 58.7663 30.0824 59.2562 30.0824 59.8245C30.0824 60.3928 29.9452 60.8827 29.6512 61.2942C29.3181 61.7645 28.8869 61.9996 28.3578 61.9996C27.8286 61.9996 27.3975 61.7645 27.0643 61.2942C26.7704 60.8631 26.6332 60.3732 26.6332 59.8245ZM27.3779 59.8245C27.3779 60.4124 27.4171 60.8435 27.4955 61.1178C27.6327 61.6273 27.9266 61.882 28.3578 61.882C28.7889 61.882 29.0829 61.6273 29.2201 61.1178C29.2985 60.8435 29.3376 60.4124 29.3376 59.8245C29.3376 59.2366 29.2985 58.8055 29.2201 58.5312C29.0829 58.0217 28.7889 57.767 28.3578 57.767C27.9266 57.767 27.6327 58.0217 27.4955 58.5312C27.4171 58.8055 27.3779 59.2366 27.3779 59.8245Z" fill="#C8AF84"/>
<path d="M30.5918 57.748H32.042V57.8852H31.6109V60.9029C31.6109 61.1772 31.6697 61.4124 31.7872 61.5888C31.9244 61.7847 32.1204 61.8827 32.3948 61.8827C32.6887 61.8827 32.9239 61.7847 33.1003 61.6083C33.2767 61.4124 33.3551 61.1773 33.3551 60.8833V57.9048H32.8063V57.7676H33.8842V57.9048H33.5314V60.8833C33.5314 61.236 33.4334 61.5104 33.2179 61.7063C33.0023 61.9023 32.7279 62.0003 32.3752 62.0003C31.4345 62.0003 30.9642 61.5888 30.9642 60.7657V57.8852H30.6114V57.748H30.5918Z" fill="#C8AF84"/>
<path d="M35.8048 61.9023H34.335V61.7651H34.6877V57.8852H34.335V57.748H36.0791C36.4711 57.748 36.7651 57.8264 37.0002 57.9636C37.2942 58.14 37.4314 58.3947 37.4314 58.7474C37.4314 59.0805 37.2942 59.3353 37.0002 59.5312C36.7651 59.688 36.4711 59.7664 36.0987 59.786L37.5294 61.7651H37.8233V61.9023H36.8631L35.3344 59.786H35.3148V61.7651H35.7656V61.9023H35.8048ZM35.354 57.8656V59.6684H35.7068C36.4123 59.6684 36.7651 59.3549 36.7651 58.7278C36.7651 58.4535 36.6867 58.2379 36.5299 58.0812C36.3731 57.9244 36.1575 57.846 35.8832 57.846H35.354V57.8656Z" fill="#C8AF84"/>
<path d="M42.7816 61.9023H39.6852V61.7651H40.0379V57.8852H39.6852V57.748H42.7228V59.0805H42.5856C42.4288 58.5319 42.3113 58.1987 42.2133 58.0616C42.1349 57.944 42.0173 57.8852 41.8605 57.8852H40.6651V59.688H41.1354C41.3118 59.688 41.4686 59.59 41.547 59.3941C41.5861 59.2961 41.6449 59.1197 41.6841 58.865H41.8213V60.6482H41.6841C41.6449 60.3934 41.5861 60.2171 41.547 60.1191C41.449 59.9231 41.3118 59.8252 41.1354 59.8252H40.6651V61.7847H41.7233C41.9193 61.7847 42.0761 61.7063 42.2133 61.53C42.3113 61.3928 42.4092 61.2164 42.468 60.9617C42.5268 60.7657 42.566 60.5894 42.6248 60.3934H42.762V61.9023H42.7816Z" fill="#C8AF84"/>
<path d="M43.2715 57.8656V57.748H44.7805V57.8656H44.3298L45.0353 59.2177L45.8388 57.8656H45.3489V57.748H46.3679V57.8656H46.0348L45.1333 59.3745L46.3679 61.7651H46.6227V61.9023H45.1529V61.7651H45.682L44.7022 59.9035L43.6047 61.7651H44.2318V61.9023H43.1147V61.7651H43.4283L44.6434 59.7664L43.6243 57.8656H43.2715Z" fill="#C8AF84"/>
<path d="M48.5628 61.9023H46.995V61.7651H47.3478V57.8852H46.995V57.748H48.7196C49.1115 57.748 49.4447 57.8264 49.7191 57.9832C50.0326 58.1791 50.1894 58.4535 50.1894 58.8258C50.1894 59.1981 50.0326 59.492 49.7191 59.6684C49.4643 59.8056 49.1311 59.8839 48.7196 59.8839H48.0141V61.7651H48.5628V61.9023ZM48.0141 57.8656V59.7468H48.5628C48.9156 59.7468 49.1507 59.688 49.2879 59.5508C49.4251 59.4137 49.5035 59.1785 49.5035 58.8454C49.5035 58.2183 49.2095 57.8852 48.6216 57.8852H48.0141V57.8656Z" fill="#C8AF84"/>
<path d="M53.6778 61.9023H50.5814V61.7651H50.9342V57.8852H50.5814V57.748H53.6386V59.0805H53.5015C53.3447 58.5319 53.2271 58.1987 53.1291 58.0616C53.0507 57.944 52.9331 57.8852 52.7763 57.8852H51.5809V59.688H52.0512C52.2276 59.688 52.3844 59.59 52.4628 59.3941C52.502 59.2961 52.5608 59.1197 52.6 58.865H52.7372V60.6482H52.6C52.5608 60.3934 52.502 60.2171 52.4628 60.1191C52.3648 59.9231 52.2276 59.8252 52.0512 59.8252H51.5809V61.7847H52.6392C52.8351 61.7847 52.9919 61.7063 53.1291 61.53C53.2271 61.3928 53.3251 61.2164 53.3839 60.9617C53.4427 60.7657 53.4819 60.5894 53.5407 60.3934H53.6778V61.9023Z" fill="#C8AF84"/>
<path d="M55.6964 61.9023H54.2266V61.7651H54.5793V57.8852H54.2266V57.748H55.9707C56.3627 57.748 56.6567 57.8264 56.8918 57.9636C57.1858 58.14 57.323 58.3947 57.323 58.7474C57.323 59.0805 57.1858 59.3353 56.8918 59.5312C56.6567 59.688 56.3627 59.7664 55.9903 59.786L57.421 61.7651H57.7149V61.9023H56.7547L55.226 59.786H55.2064V61.7651H55.6572V61.9023H55.6964ZM55.2456 57.8656V59.6684H55.5984C56.3039 59.6684 56.6567 59.3549 56.6567 58.7278C56.6567 58.4535 56.5783 58.2379 56.4215 58.0812C56.2647 57.9244 56.0491 57.846 55.7748 57.846H55.2456V57.8656Z" fill="#C8AF84"/>
<path d="M59.2827 61.9023H57.9109V61.7651H58.2636V57.8656H57.9109V57.748H59.2827V57.8656H58.9104V61.7651H59.2827V61.9023Z" fill="#C8AF84"/>
<path d="M62.9083 61.9023H59.8119V61.7651H60.1646V57.8852H59.8119V57.748H62.8691V59.0805H62.7123C62.5556 58.5319 62.438 58.1987 62.34 58.0616C62.2616 57.944 62.144 57.8852 61.9872 57.8852H60.7918V59.688H61.2621C61.4385 59.688 61.5953 59.59 61.6737 59.3941C61.7129 59.2961 61.7716 59.1197 61.8108 58.865H61.948V60.6482H61.8108C61.7716 60.3934 61.7129 60.2171 61.6737 60.1191C61.5757 59.9231 61.4385 59.8252 61.2621 59.8252H60.7918V61.7847H61.85C62.046 61.7847 62.2028 61.7063 62.34 61.53C62.438 61.3928 62.536 61.2164 62.5947 60.9617C62.6535 60.7657 62.6927 60.5894 62.7515 60.3934H62.8887V61.9023H62.9083Z" fill="#C8AF84"/>
<path d="M66.3771 61.8827L64.0254 57.9832V58.0028V61.7651H64.5349V61.9023H63.457V61.7651H63.849V57.8656H63.457V57.748H64.6133L66.3967 60.7461V57.8656H65.9067V57.748H66.965V57.8656H66.5535V61.9023L66.3771 61.8827Z" fill="#C8AF84"/>
<path d="M70.2966 57.865V59.0603H70.1594C70.0027 58.5705 69.9047 58.2961 69.8655 58.2177C69.7087 57.9042 69.4735 57.7475 69.1992 57.7475C68.768 57.7475 68.474 58.0022 68.3173 58.5117C68.2193 58.8252 68.1801 59.2367 68.1801 59.805C68.1801 60.4124 68.2193 60.8435 68.3173 61.1179C68.474 61.6078 68.7876 61.8429 69.2579 61.8429C69.4931 61.8429 69.6891 61.7449 69.8067 61.5294C69.9243 61.353 70.0419 60.9611 70.179 60.3732H70.3162V61.7253C69.9831 61.9017 69.6303 61.9801 69.2383 61.9801C68.67 61.9801 68.2193 61.7645 67.8665 61.3138C67.553 60.9023 67.4158 60.4124 67.4158 59.805C67.4158 59.2171 67.5725 58.7076 67.8665 58.2961C68.1997 57.8454 68.6504 57.6299 69.2383 57.6299C69.6107 57.6495 69.9635 57.7279 70.2966 57.865Z" fill="#C8AF84"/>
<path d="M74.1377 61.9023H71.0413V61.7651H71.394V57.8852H71.0413V57.748H74.0789V59.0805H73.9417C73.7849 58.5319 73.6673 58.1987 73.5693 58.0616C73.491 57.944 73.3734 57.8852 73.2166 57.8852H72.0211V59.688H72.4915C72.6679 59.688 72.8246 59.59 72.903 59.3941C72.9422 59.2961 73.001 59.1197 73.0402 58.865H73.1774V60.6482H73.0402C73.001 60.3934 72.9422 60.2171 72.903 60.1191C72.805 59.9231 72.6679 59.8252 72.4915 59.8252H72.0211V61.7847H73.0794C73.2754 61.7847 73.4322 61.7063 73.5693 61.53C73.6673 61.3928 73.7653 61.2164 73.8241 60.9617C73.8829 60.7657 73.9221 60.5894 73.9809 60.3934H74.1181V61.9023H74.1377Z" fill="#C8AF84"/>
<path d="M77.7241 61.9023H76.3523V61.7651H76.7246V57.8656H76.3523V57.748H77.7241V57.8656H77.3714V61.7651H77.7241V61.9023Z" fill="#C8AF84"/>
<path d="M78.3707 60.3348H78.5079C78.6059 60.8051 78.7039 61.1383 78.8019 61.3146C78.9783 61.6869 79.233 61.8633 79.5662 61.8633C79.8406 61.8633 80.0561 61.7849 80.2521 61.6281C80.4481 61.4714 80.5461 61.2558 80.5461 61.0011C80.5461 60.668 80.3501 60.4132 79.9777 60.2369C79.7426 60.1389 79.3702 59.9821 78.8999 59.7862C78.5079 59.5706 78.3315 59.2571 78.3315 58.8652C78.3315 58.4929 78.4687 58.1989 78.7431 57.9834C78.9979 57.7874 79.3114 57.6895 79.7034 57.6895C80.0953 57.6895 80.4677 57.7678 80.84 57.9246V59.1199H80.7028L80.4873 58.4145C80.3501 58.003 80.0757 57.807 79.6446 57.807C79.4094 57.807 79.1938 57.8854 79.0175 58.0226C78.8215 58.1793 78.7431 58.3753 78.7431 58.6104C78.7431 58.826 78.8215 58.9828 78.9979 59.1003C79.1546 59.2179 79.4682 59.3355 79.9189 59.5118C80.3305 59.649 80.6245 59.8058 80.8008 59.9821C80.9772 60.1585 81.0556 60.3936 81.0556 60.7072C81.0556 61.1187 80.8988 61.4518 80.5657 61.6869C80.2717 61.9025 79.9189 62.02 79.4878 62.02C79.3114 62.02 79.1154 61.9809 78.8999 61.9221C78.6843 61.8633 78.5079 61.7849 78.3707 61.6869V60.3348Z" fill="#C8AF84"/>
<path d="M82.937 57.8656V57.748H84.5048V57.8656H84.0149L84.8772 59.7076L85.8571 57.8656H85.4063V57.748H86.4058V57.8656H86.0138L84.9752 59.8644V61.7651H85.4455V61.9023H83.8385V61.7651H84.3284V60.0015L83.2898 57.8656H82.937Z" fill="#C8AF84"/>
<path d="M86.6605 59.8245C86.6605 59.2562 86.7977 58.7663 87.0917 58.3548C87.4248 57.8846 87.856 57.6494 88.3851 57.6494C88.9338 57.6494 89.365 57.8846 89.6786 58.3548C89.9725 58.7663 90.1097 59.2562 90.1097 59.8245C90.1097 60.3928 89.9725 60.8827 89.6786 61.2942C89.3454 61.7645 88.9142 61.9996 88.3851 61.9996C87.856 61.9996 87.4248 61.7645 87.0917 61.2942C86.7977 60.8631 86.6605 60.3732 86.6605 59.8245ZM87.4052 59.8245C87.4052 60.4124 87.4444 60.8435 87.5228 61.1178C87.66 61.6273 87.954 61.882 88.3851 61.882C88.8163 61.882 89.1102 61.6273 89.2474 61.1178C89.3258 60.8435 89.365 60.4124 89.365 59.8245C89.365 59.2366 89.3258 58.8055 89.2474 58.5312C89.1102 58.0217 88.8163 57.767 88.3851 57.767C87.954 57.767 87.66 58.0217 87.5228 58.5312C87.4444 58.8055 87.4052 59.2366 87.4052 59.8245Z" fill="#C8AF84"/>
<path d="M90.6389 57.748H92.0891V57.8852H91.658V60.9029C91.658 61.1772 91.7168 61.4124 91.854 61.5888C91.9912 61.7847 92.1871 61.8827 92.4615 61.8827C92.7555 61.8827 92.9906 61.7847 93.167 61.6083C93.3434 61.4124 93.4218 61.1773 93.4218 60.8833V57.9048H92.873V57.7676H93.9509V57.9048H93.5982V60.8833C93.5982 61.236 93.5002 61.5104 93.2846 61.7063C93.069 61.9023 92.7947 62.0003 92.4419 62.0003C91.5012 62.0003 91.0309 61.5888 91.0309 60.7657V57.8852H90.6781V57.748H90.6389Z" fill="#C8AF84"/>
<path d="M95.8322 61.9023H94.3624V61.7651H94.7152V57.8852H94.3624V57.748H96.1066C96.4986 57.748 96.7925 57.8264 97.0277 57.9636C97.3217 58.14 97.4588 58.3947 97.4588 58.7474C97.4588 59.0805 97.3217 59.3353 97.0277 59.5312C96.7925 59.688 96.4986 59.7664 96.1262 59.786L97.5568 61.7651H97.8508V61.9023H96.8905L95.3619 59.786H95.3423V61.7651H95.793V61.9023H95.8322ZM95.3815 57.8656V59.6684H95.7343C96.4398 59.6684 96.7925 59.3549 96.7925 58.7278C96.7925 58.4535 96.7141 58.2379 96.5574 58.0812C96.4006 57.9244 96.185 57.846 95.9106 57.846H95.3815V57.8656Z" fill="#C8AF84"/>
<path d="M99.8302 60.3348H99.9674C100.065 60.8051 100.163 61.1383 100.261 61.3146C100.438 61.6869 100.693 61.8633 101.026 61.8633C101.3 61.8633 101.516 61.7849 101.712 61.6281C101.908 61.4714 102.006 61.2558 102.006 61.0011C102.006 60.668 101.81 60.4132 101.437 60.2369C101.202 60.1389 100.83 59.9821 100.359 59.7862C99.9674 59.5706 99.791 59.2571 99.791 58.8652C99.791 58.4929 99.9282 58.1989 100.203 57.9834C100.457 57.7874 100.771 57.6895 101.163 57.6895C101.555 57.6895 101.927 57.7678 102.3 57.9246V59.1199H102.162L101.947 58.4145C101.81 58.003 101.535 57.807 101.104 57.807C100.869 57.807 100.653 57.8854 100.477 58.0226C100.281 58.1793 100.203 58.3753 100.203 58.6104C100.203 58.826 100.281 58.9828 100.457 59.1003C100.614 59.2179 100.928 59.3355 101.378 59.5118C101.79 59.649 102.084 59.8058 102.26 59.9821C102.437 60.1585 102.515 60.3936 102.515 60.7072C102.515 61.1187 102.358 61.4518 102.025 61.6869C101.731 61.9025 101.378 62.02 100.947 62.02C100.771 62.02 100.575 61.9809 100.359 61.9221C100.144 61.8633 99.9674 61.7849 99.8302 61.6869V60.3348Z" fill="#C8AF84"/>
<path d="M102.966 57.748H104.416V57.8852H103.985V60.9029C103.985 61.1772 104.044 61.4124 104.181 61.5888C104.318 61.7847 104.514 61.8827 104.788 61.8827C105.082 61.8827 105.318 61.7847 105.494 61.6083C105.67 61.4124 105.749 61.1773 105.749 60.8833V57.9048H105.2V57.7676H106.278V57.9048H105.925V60.8833C105.925 61.236 105.827 61.5104 105.611 61.7063C105.396 61.9023 105.122 62.0003 104.769 62.0003C103.828 62.0003 103.358 61.5888 103.358 60.7657V57.8852H103.005V57.748H102.966Z" fill="#C8AF84"/>
<path d="M109.649 57.865V59.0603H109.511C109.355 58.5705 109.257 58.2961 109.217 58.2177C109.061 57.9042 108.825 57.7475 108.551 57.7475C108.12 57.7475 107.826 58.0022 107.669 58.5117C107.571 58.8252 107.532 59.2367 107.532 59.805C107.532 60.4124 107.571 60.8435 107.669 61.1179C107.826 61.6078 108.14 61.8429 108.61 61.8429C108.845 61.8429 109.041 61.7449 109.159 61.5294C109.276 61.353 109.394 60.9611 109.531 60.3732H109.668V61.7253C109.335 61.9017 108.982 61.9801 108.59 61.9801C108.022 61.9801 107.571 61.7645 107.218 61.3138C106.905 60.9023 106.768 60.4124 106.768 59.805C106.768 59.2171 106.924 58.7076 107.218 58.2961C107.552 57.8454 108.002 57.6299 108.59 57.6299C108.982 57.6495 109.315 57.7279 109.649 57.865Z" fill="#C8AF84"/>
<path d="M113.313 57.865V59.0603H113.176C113.019 58.5705 112.921 58.2961 112.882 58.2177C112.725 57.9042 112.49 57.7475 112.216 57.7475C111.785 57.7475 111.491 58.0022 111.334 58.5117C111.236 58.8252 111.197 59.2367 111.197 59.805C111.197 60.4124 111.236 60.8435 111.334 61.1179C111.491 61.6078 111.804 61.8429 112.275 61.8429C112.51 61.8429 112.706 61.7449 112.823 61.5294C112.941 61.353 113.059 60.9611 113.196 60.3732H113.333V61.7253C113 61.9017 112.647 61.9801 112.255 61.9801C111.687 61.9801 111.236 61.7645 110.883 61.3138C110.57 60.9023 110.432 60.4124 110.432 59.805C110.432 59.2171 110.589 58.7076 110.883 58.2961C111.216 57.8454 111.667 57.6299 112.255 57.6299C112.647 57.6495 113 57.7279 113.313 57.865Z" fill="#C8AF84"/>
<path d="M117.154 61.9023H114.058V61.7651H114.411V57.8852H114.058V57.748H117.115V59.0805H116.978C116.821 58.5319 116.704 58.1987 116.606 58.0616C116.527 57.944 116.41 57.8852 116.253 57.8852H115.057V59.688H115.528C115.704 59.688 115.861 59.59 115.939 59.3941C115.979 59.2961 116.037 59.1197 116.077 58.865H116.214V60.6482H116.077C116.037 60.3934 115.979 60.2171 115.939 60.1191C115.841 59.9231 115.704 59.8252 115.528 59.8252H115.057V61.7847H116.116C116.312 61.7847 116.468 61.7063 116.606 61.53C116.704 61.3928 116.802 61.2164 116.86 60.9617C116.919 60.7657 116.958 60.5894 117.017 60.3934H117.154V61.9023Z" fill="#C8AF84"/>
<path d="M117.84 60.3348H117.978C118.076 60.8051 118.174 61.1383 118.271 61.3146C118.448 61.6869 118.703 61.8633 119.036 61.8633C119.31 61.8633 119.526 61.7849 119.722 61.6281C119.918 61.4714 120.016 61.2558 120.016 61.0011C120.016 60.668 119.82 60.4132 119.447 60.2369C119.212 60.1389 118.84 59.9821 118.369 59.7862C117.978 59.5706 117.801 59.2571 117.801 58.8652C117.801 58.4929 117.938 58.1989 118.213 57.9834C118.467 57.7874 118.781 57.6895 119.173 57.6895C119.565 57.6895 119.937 57.7678 120.31 57.9246V59.1199H120.172L119.937 58.3949C119.8 57.9834 119.526 57.7874 119.095 57.7874C118.859 57.7874 118.644 57.8658 118.467 58.003C118.271 58.1597 118.193 58.3557 118.193 58.5908C118.193 58.8064 118.271 58.9632 118.448 59.0807C118.605 59.1983 118.918 59.3159 119.369 59.4922C119.781 59.6294 120.074 59.7862 120.251 59.9625C120.427 60.1389 120.506 60.374 120.506 60.6876C120.506 61.0991 120.349 61.4322 120.016 61.6673C119.722 61.8829 119.369 62.0005 118.938 62.0005C118.761 62.0005 118.565 61.9613 118.35 61.9025C118.134 61.8437 117.958 61.7653 117.821 61.6673V60.3348H117.84Z" fill="#C8AF84"/>
<path d="M121.192 60.3348H121.329C121.427 60.8051 121.525 61.1383 121.623 61.3146C121.799 61.6869 122.054 61.8633 122.387 61.8633C122.661 61.8633 122.877 61.7849 123.073 61.6281C123.269 61.4714 123.367 61.2558 123.367 61.0011C123.367 60.668 123.171 60.4132 122.799 60.2369C122.563 60.1389 122.191 59.9821 121.721 59.7862C121.329 59.5706 121.152 59.2571 121.152 58.8652C121.152 58.4929 121.29 58.1989 121.564 57.9834C121.819 57.7874 122.132 57.6895 122.524 57.6895C122.916 57.6895 123.288 57.7678 123.661 57.9246V59.1199H123.524L123.269 58.3949C123.132 57.9834 122.857 57.7874 122.426 57.7874C122.191 57.7874 121.975 57.8658 121.799 58.003C121.603 58.1597 121.525 58.3557 121.525 58.5908C121.525 58.8064 121.603 58.9632 121.779 59.0807C121.936 59.1983 122.25 59.3159 122.701 59.4922C123.112 59.6294 123.406 59.7862 123.582 59.9625C123.759 60.1389 123.837 60.374 123.837 60.6876C123.837 61.0991 123.68 61.4322 123.347 61.6673C123.053 61.8829 122.701 62.0005 122.269 62.0005C122.093 62.0005 121.897 61.9613 121.681 61.9025C121.466 61.8437 121.29 61.7653 121.152 61.6673V60.3348H121.192Z" fill="#C8AF84"/>
<path d="M22.7332 61.6475H0.372314V61.9022H22.7332V61.6475Z" fill="#C8AF84"/>
<path d="M149.04 61.6475H126.679V61.9022H149.04V61.6475Z" fill="#C8AF84"/>
<path d="M58.44 0H30.8466C30.4938 0 30.2195 0.274336 30.2195 0.627054V28.2174C30.2195 28.5702 30.4938 28.8445 30.8466 28.8445H58.44C58.7928 28.8445 59.0671 28.5702 59.0671 28.2174V0.627054C59.0671 0.274336 58.7928 0 58.44 0ZM53.619 6.52528H52.0512V22.3584H53.619V22.8875H47.0734V22.3584H49.4251V6.78003L43.9966 22.9071H43.1735L37.9997 6.78003V22.3584H39.9007V22.8875H35.55V22.3584H37.3138V6.52528H35.55V5.99621H40.2535L44.5257 19.2819H44.6433L49.1116 5.99621H53.619V6.52528Z" fill="#C8AF84"/>
<path d="M119.408 30.0202H90.5605C90.1097 30.0202 89.757 29.6675 89.757 29.2168V0.803413C89.757 0.352718 89.4042 0 88.9535 0H61.7324C61.2817 0 60.9289 0.352718 60.9289 0.803413V29.2364C60.9289 29.6871 60.5762 30.0398 60.1254 30.0398H31.023C30.5722 30.0398 30.2195 30.3925 30.2195 30.8432V31.1372C30.2195 31.5879 30.5722 31.9406 31.023 31.9406H60.9289H89.757H119.408C119.859 31.9406 120.212 31.5879 120.212 31.1372V30.8432C120.212 30.3925 119.859 30.0202 119.408 30.0202ZM81.0164 11.3654H80.4873C80.2521 10.3464 80.0954 9.62137 79.9974 9.24905C79.7622 8.26928 79.527 7.60303 79.3311 7.23072C79.0959 6.78003 78.7039 6.54488 78.116 6.54488H76.5286V22.378H78.3512V22.9071H72.0408V22.378H73.8829V6.52528H72.2955C71.7076 6.52528 71.296 6.76043 71.0805 7.21112C70.8061 7.7402 70.4141 9.11188 69.9242 11.3654H69.3951V5.99621H81.0164V11.3654Z" fill="#C8AF84"/>
<path d="M119.584 0H92.0107C91.6579 0 91.3835 0.274336 91.3835 0.627054V28.2174C91.3835 28.5702 91.6579 28.8445 92.0107 28.8445H119.604C119.957 28.8445 120.231 28.5702 120.231 28.2174V0.627054C120.212 0.274336 119.937 0 119.584 0ZM111.628 22.9071H99.8301V22.378H101.3V6.52528H99.8301V5.99621H106.376V6.52528H103.926V22.3584H107.552C108.394 22.3584 109.002 22.0645 109.374 21.457C109.805 20.732 110.393 18.9488 111.079 16.1075H111.608V22.9071H111.628Z" fill="#C8AF84"/>
</g>
<defs>
<clipPath id="clip0_310_169">
<rect width="150" height="62" fill="white"/>
</clipPath>
</defs>
</svg>
