<svg width="100" height="132" viewBox="0 0 100 132" fill="none" xmlns="http://www.w3.org/2000/svg">
<g id="Frame" clip-path="url(#clip0_182_1105)">
<g id="Group">
<g id="Group_2">
<g id="Group_3">
<path id="Vector" d="M67.7874 0C68.5336 0.205449 69.3137 0.410898 70.0599 0.684831C79.1835 3.73233 82.1004 15.1348 75.5883 22.2912C75.3848 22.5309 75.1474 22.7706 74.9439 23.0103C75.2152 23.387 75.5883 23.3527 75.8936 23.4897C80.3706 25.2703 83.05 28.5232 83.7962 33.3513C83.898 33.9334 83.9997 34.2758 84.6441 34.4127C94.6835 36.3988 98.8892 49.1024 91.1901 56.8752C91.0883 56.9437 91.0544 57.0806 90.9866 57.2176C91.5971 57.4573 92.2076 57.6285 92.7842 57.9024C97.5325 60.1966 99.9406 64.0317 99.9746 69.3391C100.008 75.8108 100.008 82.2482 99.9746 88.7198C99.9406 93.7191 97.0916 97.0405 92.2076 97.7253C91.2918 97.8623 91.224 98.239 91.2579 98.958C91.2918 101.526 91.2918 104.094 91.2579 106.662C91.2579 108.203 90.6813 108.888 89.4603 108.922C88.1715 108.957 87.4592 108.203 87.4592 106.697C87.4592 96.0818 87.4253 85.4669 87.4592 74.852C87.4592 73.4481 88.2054 72.6263 89.3586 72.6263C90.5457 72.6263 91.2579 73.4481 91.2579 74.852C91.2579 80.81 91.2918 86.7338 91.224 92.6918C91.224 93.8218 91.4953 94.0957 92.5807 93.7876C94.48 93.2397 95.8706 91.7331 96.108 89.7128C96.142 89.3019 96.1759 88.8568 96.1759 88.4459C96.1759 82.2139 96.1759 75.9477 96.1759 69.7158C96.1759 64.1344 92.7842 60.7787 87.2896 60.7445C83.7623 60.7445 80.2688 60.7445 76.7415 60.7445C71.3826 60.7787 67.9909 64.1686 67.957 69.5446C67.9231 75.9135 67.9231 82.2824 67.957 88.6856C67.957 91.4249 69.3137 93.2397 71.654 93.8218C72.5697 94.0615 72.9089 93.9245 72.9089 92.8631C72.875 87.0762 72.875 81.3237 72.875 75.5368C72.875 75.1602 72.841 74.7493 72.9089 74.3726C73.0445 73.3454 73.6211 72.729 74.6386 72.6605C75.6901 72.5921 76.3345 73.1399 76.6058 74.0987C76.7415 74.5781 76.7076 75.1259 76.7076 75.6395C76.7076 91.9385 76.7076 108.237 76.7076 124.571C76.7076 127.07 77.3181 127.687 79.7601 127.687C81.422 127.687 83.05 127.687 84.712 127.687C86.6791 127.687 87.4253 126.968 87.4253 124.982C87.4253 122.619 87.4253 120.291 87.4253 117.928C87.4253 116.318 88.0358 115.599 89.2907 115.565C90.6135 115.565 91.224 116.318 91.224 117.962C91.224 120.017 91.224 122.071 91.224 124.126C91.224 128.474 90.2743 129.912 86.3739 131.522C83.3892 131.522 80.4384 131.522 77.4877 131.522C73.8586 130.152 72.7393 127.447 72.841 123.68C73.0106 115.531 72.875 107.347 72.9089 99.1977C72.9089 98.1362 72.6036 97.8281 71.62 97.7253C69.6868 97.5541 68.0588 96.6981 66.7021 95.2942C66.2273 94.8148 65.9559 94.6778 65.4132 95.26C64.0566 96.6981 62.3607 97.5541 60.3935 97.7253C59.41 97.7938 59.1725 98.1705 59.1725 99.1292C59.2065 107.69 59.2065 116.216 59.2065 124.776C59.2065 125.495 59.2404 126.214 59.0369 126.933C58.3925 129.433 56.6627 130.768 54.3563 131.522C51.3717 131.522 48.4209 131.522 45.4701 131.522C41.841 130.152 40.7218 127.447 40.8235 123.68C40.9931 115.531 40.8574 107.347 40.8913 99.1977C40.8913 98.1362 40.5861 97.8281 39.6025 97.7253C37.6692 97.5541 36.0412 96.6981 34.6845 95.2942C34.2097 94.8148 33.9384 94.6778 33.3957 95.26C32.039 96.6981 30.3432 97.5541 28.376 97.7253C27.3924 97.7938 27.155 98.1705 27.155 99.1292C27.1889 107.69 27.1889 116.216 27.1889 124.776C27.1889 125.495 27.2228 126.214 27.0193 126.933C26.3749 129.433 24.6451 130.768 22.3388 131.522C19.3541 131.522 16.4033 131.522 13.4187 131.522C9.78955 130.152 8.67029 127.447 8.77204 123.68C8.94163 115.565 8.80596 107.416 8.83988 99.3005C8.83988 98.2732 8.63637 97.8623 7.51712 97.7253C3.24359 97.109 0.224986 93.9245 0.123235 89.5759C-0.0124325 82.4879 -0.0802663 75.3656 0.157152 68.2776C0.29282 63.0044 3.24359 59.5118 7.99195 57.56C8.33112 57.4231 8.73813 57.4573 8.97554 57.1149C8.90771 57.0122 8.90771 56.9437 8.83988 56.8752C1.17466 49.2393 5.10902 36.5357 15.2841 34.4127C15.9963 34.2758 16.0642 33.8649 16.1659 33.2485C16.8103 29.1053 18.9471 26.0578 22.6101 24.1403C23.3902 23.7294 24.2042 23.4212 25.0521 23.0788C24.8826 22.8733 24.7808 22.7364 24.6451 22.6337C24.5095 22.4624 24.3399 22.3255 24.2042 22.1543C21.5926 19.1068 20.4734 15.6141 20.9482 11.5736C21.0839 10.3752 21.9657 9.69036 23.0171 9.79308C24.0346 9.8958 24.713 10.7176 24.7469 11.8476C24.7469 12.1557 24.6791 12.4297 24.6791 12.7379C24.5773 16.4359 26.1036 19.3807 29.2578 21.2982C32.446 23.2158 35.736 23.1815 38.8902 21.1955C42.0106 19.2095 43.5369 16.2305 43.1977 12.4982C42.5872 5.75258 35.8716 1.98601 29.8005 4.8623C28.3421 5.54713 27.2567 5.34168 26.748 4.24595C26.2053 3.11598 26.6802 2.12298 28.1047 1.36966C29.3935 0.684831 30.818 0.44514 32.1747 0C33.3618 0 34.5489 0 35.736 0C35.9056 0.239691 36.1769 0.205449 36.4143 0.239691C44.1813 1.78056 48.8279 9.7246 46.4198 17.3262C45.7415 19.5177 44.4526 21.3667 42.7568 23.0788C45.6397 23.9348 47.946 25.4757 49.6419 27.8726C49.8793 28.215 50.0489 28.215 50.3202 27.8726C52.0161 25.5099 54.3224 23.9691 57.1714 23.113C56.8662 22.7706 56.6627 22.5309 56.4253 22.2912C50.015 15.306 52.7283 4.0405 61.5806 0.821797C62.4286 0.513623 63.3443 0.273932 64.2262 0.0342415C65.4132 0 66.6003 0 67.7874 0ZM23.2885 100.02C23.2546 91.8358 23.2546 83.6863 23.2885 75.5026C23.2885 75.0917 23.2546 74.6466 23.3224 74.2356C23.5598 73.2084 24.2042 72.5921 25.2896 72.6263C26.341 72.6948 26.8837 73.3111 27.0532 74.3041C27.1211 74.6808 27.0872 75.0574 27.0872 75.4683C27.0872 81.2894 27.0872 87.1105 27.0872 92.9315C27.0872 93.7876 27.2567 94.0615 28.1725 93.8561C30.6145 93.3082 32.039 91.4591 32.0729 88.5829C32.0729 82.2139 32.1069 75.845 32.0729 69.4761C32.039 64.1686 28.6473 60.7445 23.3563 60.7102C19.795 60.676 16.2338 60.7102 12.6725 60.7102C7.24578 60.7445 3.85409 64.1002 3.82018 69.5788C3.78626 74.1672 3.82018 78.7213 3.82018 83.3097C3.82018 85.2272 3.78626 87.1447 3.85409 89.0965C3.92193 91.5276 5.38035 93.2739 7.58495 93.8218C8.46679 94.0273 8.80596 93.9245 8.77204 92.8973C8.70421 90.5004 8.73812 88.1035 8.73812 85.7066C8.73812 82.0427 8.73812 78.3446 8.73812 74.6808C8.73812 73.4139 9.45038 72.6605 10.5357 72.6263C11.6889 72.5921 12.4351 73.3454 12.5368 74.6465C12.5707 75.0232 12.5368 75.3999 12.5368 75.8108C12.5368 92.1097 12.5368 108.409 12.5368 124.708C12.5368 127.002 13.1812 127.652 15.4876 127.652C17.0817 127.652 18.7097 127.652 20.3038 127.652C22.5762 127.652 23.2546 127.002 23.2546 124.673C23.3224 116.455 23.2885 108.237 23.2885 100.02ZM55.3399 100.054C55.306 93.8218 55.306 87.5556 55.306 81.3236C55.306 79.0979 55.2721 76.8722 55.306 74.6465C55.3399 72.9687 56.934 72.0784 58.2568 72.9345C59.0369 73.4481 59.1386 74.2356 59.1386 75.0917C59.1386 80.9812 59.1725 86.905 59.1047 92.7946C59.1047 93.9245 59.4439 94.0615 60.4275 93.8218C62.7338 93.2055 64.0905 91.3907 64.0905 88.6513C64.1244 82.2824 64.1244 75.9135 64.0905 69.5446C64.0566 64.2371 60.6649 60.813 55.4078 60.7787C51.8804 60.7445 48.387 60.7787 44.8596 60.7787C39.1955 60.7787 35.8716 64.1344 35.8716 69.887C35.8716 75.7765 35.8716 81.7003 35.8716 87.5899C35.8716 88.4116 35.8716 89.2334 35.9734 90.021C36.2447 92.0412 37.9745 93.6848 39.9756 93.9588C40.5861 94.0273 40.8235 93.8903 40.7896 93.2397C40.7557 92.3152 40.7896 91.3564 40.7896 90.4319C40.7896 85.2272 40.7896 79.9882 40.7896 74.7835C40.7896 73.4481 41.5358 72.6948 42.6889 72.6948C43.7743 72.6948 44.4865 73.4481 44.5883 74.6808C44.6222 75.0574 44.5883 75.4341 44.5883 75.845C44.5883 92.1782 44.5883 108.546 44.5883 124.879C44.5883 127.002 45.3005 127.721 47.4034 127.721C49.0653 127.721 50.6933 127.721 52.3552 127.721C54.6616 127.721 55.306 127.07 55.306 124.776C55.3738 116.455 55.3399 108.238 55.3399 100.054ZM41.1288 57.2176C40.8913 56.9437 40.7218 56.704 40.5182 56.4985C33.5314 48.8627 37.0926 36.9124 47.0981 34.447C48.0139 34.2415 48.0478 33.8306 47.8782 33.1116C47.132 29.482 43.876 26.7426 40.1452 26.6742C36.0412 26.6057 31.9373 26.6057 27.7994 26.6742C24.1364 26.7084 20.9821 29.3108 20.0664 32.9404C19.8289 33.8649 19.9646 34.2415 21.016 34.4812C28.4438 36.2618 32.7174 44.0689 30.411 51.3965C29.7327 53.6222 28.4438 55.4713 26.748 57.2176C29.6309 58.0394 31.9034 59.5803 33.5992 61.9429C33.9045 62.3881 34.1419 62.2169 34.3454 61.8745C36.0412 59.546 38.3137 58.0736 41.1288 57.2176ZM73.1802 57.2176C73.0106 56.9779 72.9428 56.8752 72.841 56.7725C65.515 48.8969 68.8728 37.0836 79.2513 34.4127C80.1332 34.1731 80.0653 33.7279 79.9297 33.1116C79.2174 29.5162 75.9275 26.7084 72.2305 26.6742C68.1266 26.6057 64.0227 26.6057 59.8848 26.6742C56.1879 26.7084 53.0336 29.2765 52.1178 32.9061C51.8804 33.7964 51.9482 34.2073 53.0336 34.4812C62.5303 36.7754 66.2612 48.2463 59.9865 55.8479C59.6135 56.2931 59.2404 56.704 58.8334 57.2176C61.6485 58.0736 63.887 59.5118 65.5489 61.806C65.8203 62.1826 66.0238 62.3881 66.3968 61.8745C68.0927 59.546 70.3651 58.0736 73.1802 57.2176ZM65.922 22.6337C71.0774 22.6679 75.2491 18.5247 75.317 13.32C75.3848 8.18373 71.1791 3.86929 66.0916 3.83505C60.9701 3.80081 56.7644 7.97828 56.6966 13.1488C56.6288 18.3192 60.8006 22.5994 65.922 22.6337ZM17.8618 56.7382C22.9832 56.7725 27.1889 52.6292 27.2567 47.4245C27.3246 42.2883 23.1867 38.0081 18.0314 37.9739C12.876 37.9396 8.70421 42.0486 8.63637 47.2533C8.53462 52.3553 12.7403 56.704 17.8618 56.7382ZM49.9811 37.9739C44.8257 37.9739 40.6539 42.1856 40.6878 47.356C40.6878 52.5265 44.9274 56.7382 50.015 56.7382C55.1025 56.7382 59.3421 52.458 59.3082 47.3218C59.3082 42.1513 55.1364 37.9739 49.9811 37.9739ZM82.0664 37.9739C76.9111 37.9739 72.7393 42.1513 72.7393 47.3218C72.7054 52.458 76.945 56.7382 82.0325 56.7382C87.154 56.7382 91.3597 52.5265 91.3597 47.356C91.3936 42.1856 87.2218 37.9739 82.0664 37.9739Z" fill="#C8AF84"/>
</g>
</g>
</g>
</g>
<defs>
<clipPath id="clip0_182_1105">
<rect width="100" height="131.522" fill="white"/>
</clipPath>
</defs>
</svg>
