<svg width="105" height="127" viewBox="0 0 105 127" fill="none" xmlns="http://www.w3.org/2000/svg">
<g id="Frame" clip-path="url(#clip0_12_447)">
<g id="Group">
<g id="Group_2">
<g id="Group_3">
<path id="Vector" d="M91.023 0C93.369 0.917773 94.3321 2.67891 94.1592 5.15937C94.0851 6.17637 94.1839 7.21816 94.1345 8.25996C94.1098 8.95449 94.3568 9.20254 95.0729 9.17773C96.8509 9.12813 98.6042 9.15293 100.382 9.15293C103.469 9.15293 105 10.666 105 13.7914C105 22.1506 105 30.485 105 38.8441C105 44.7973 105 50.7504 105 56.7035C105 57.1252 105.025 57.5221 104.975 57.9438C104.852 59.06 104.16 59.7545 103.148 59.7545C102.16 59.7545 101.419 59.06 101.321 57.9686C101.271 57.5221 101.296 57.0508 101.296 56.6043C101.296 42.54 101.271 28.5006 101.321 14.4363C101.321 13.2705 101.148 12.824 99.8142 12.824C71.9097 12.8736 44.0052 12.8736 16.1007 12.824C14.7919 12.824 14.5696 13.2209 14.5696 14.4115C14.5943 50.1799 14.5943 85.9234 14.5696 121.692C14.5696 122.907 14.7919 123.304 16.1007 123.279C43.9558 123.279 71.8109 123.279 99.666 123.279C101.271 123.279 101.271 123.279 101.271 121.692C101.271 104.254 101.271 86.7916 101.271 69.3539C101.271 68.8082 101.246 68.2625 101.345 67.7416C101.518 66.7494 102.16 66.2285 103.148 66.2285C104.086 66.2285 104.704 66.7494 104.877 67.6672C104.975 68.1137 104.951 68.5602 104.951 69.0314C104.951 86.7172 104.951 104.428 104.951 122.113C104.951 125.561 103.494 126.975 100.036 126.975C71.9344 126.975 43.8323 126.975 15.7055 126.975C12.273 126.975 10.8161 125.512 10.8161 122.089C10.8161 121.022 10.7667 119.931 10.8408 118.864C10.8902 118.07 10.6432 117.773 9.80362 117.797C8.02563 117.847 6.27234 117.822 4.49436 117.822C1.62982 117.822 0.0493885 116.26 0.0493885 113.308C0.0246943 108.595 0.0493885 103.882 0.0493885 99.1691C0.0493885 87.3869 0.0493885 75.6047 0.0493885 63.8225C0.0493885 63.2768 0.0246943 62.7311 0.148166 62.2102C0.34572 61.2924 0.98777 60.7963 1.92615 60.7963C2.83984 60.7963 3.48189 61.3172 3.67944 62.235C3.77822 62.7559 3.77822 63.3016 3.77822 63.8473C3.77822 80.0447 3.77822 96.267 3.77822 112.464C3.77822 114.126 3.77822 114.126 5.45743 114.126C6.93909 114.126 8.42074 114.077 9.9024 114.151C10.742 114.176 11.0136 113.878 10.9149 113.085C10.8655 112.713 10.9149 112.34 10.9149 111.968C10.9149 79.4246 10.9149 46.9057 10.9149 14.3619C10.9149 13.6674 10.9149 12.948 11.063 12.2783C11.3841 10.5668 12.8657 9.30176 14.619 9.17773C15.0635 9.15293 15.5327 9.15293 15.9772 9.15293C40.301 9.15293 64.6249 9.15293 88.9487 9.15293C90.6279 9.15293 90.5045 9.40098 90.5045 7.54063C90.5045 6.59805 90.4798 5.63066 90.5045 4.68809C90.5292 3.91914 90.2328 3.6959 89.492 3.6959C87.8375 3.74551 86.2077 3.7207 84.5531 3.7207C58.2044 3.7207 31.8803 3.7207 5.53151 3.7207C3.77822 3.7207 3.77822 3.34863 3.77822 5.43223C3.77822 21.2328 3.77822 37.0086 3.77822 52.8092C3.77822 53.3549 3.77822 53.9006 3.70414 54.4215C3.55597 55.3641 2.93862 55.8602 2.00024 55.885C1.01246 55.9098 0.34572 55.4137 0.17286 54.3967C0.0740828 53.9254 0.098777 53.4045 0.098777 52.9084C0.0246943 36.9838 0.0493885 21.084 0 5.15937C0 2.67891 0.790217 0.942578 3.11148 0C32.4236 0 61.7357 0 91.023 0Z" fill="#C8AF84"/>
<path id="Vector_2" d="M74.2309 39.5634C71.2923 38.2736 68.3537 37.4302 65.341 36.7605C64.8224 36.6365 64.6249 36.9093 64.3532 37.2814C63.3408 38.6953 62.032 39.7371 60.3528 40.258C59.7107 40.4564 59.5626 40.8037 59.5626 41.4238C59.5872 50.3535 59.5872 59.2831 59.5626 68.2128C59.5626 68.957 59.7601 69.2794 60.5503 69.205C61.3158 69.1554 62.1061 69.1802 62.8963 69.205C66.798 69.2298 69.3662 71.7599 69.4896 75.7039C69.5637 78.0107 69.5637 78.0107 71.8603 78.0107C76.3547 78.0107 80.8243 78.0107 85.3187 78.0107C85.8126 78.0107 86.3064 78.0355 86.7756 78.1595C87.6152 78.4076 88.0597 79.0773 88.035 79.9455C87.9857 80.8632 87.4918 81.5082 86.5534 81.657C86.1089 81.7314 85.6397 81.7066 85.1952 81.7066C66.798 81.7066 48.4008 81.7066 30.0035 81.7066C29.7566 81.7066 29.5096 81.7066 29.2627 81.7066C27.9292 81.657 27.0896 80.9376 27.1143 79.8462C27.139 78.7548 27.9539 78.0107 29.3121 78.0107C34.2509 77.9859 39.1898 78.0107 44.1286 78.0107C46.3758 78.0107 46.3758 78.0107 46.4252 75.7783C46.4746 72.4792 48.4748 69.8748 51.4875 69.3539C52.5988 69.1554 53.7841 69.205 54.9447 69.2546C55.7103 69.2794 55.9325 69.0066 55.9325 68.2625C55.9078 59.2832 55.9078 50.3287 55.9325 41.3494C55.9325 40.7541 55.7103 40.4812 55.167 40.3076C53.4631 39.7619 52.1049 38.7201 51.0924 37.2566C50.7714 36.7853 50.4504 36.7109 49.9565 36.8101C47.0179 37.4302 44.1533 38.2984 41.2394 39.5882C42.5482 41.0517 43.7829 42.4408 45.0176 43.8298C45.8079 44.7228 46.6228 45.591 47.413 46.5087C47.9809 47.1785 48.5489 47.6994 49.5367 47.7242C50.6973 47.7738 51.4135 48.7908 51.3394 50.1302C51.0183 55.3392 48.5489 59.2335 43.9064 61.59C35.4363 65.8812 25.2869 60.1265 24.4473 50.6263C24.2992 48.8652 25.2128 47.749 26.9661 47.6746C27.6329 47.6498 28.1021 47.4513 28.5466 46.9304C31.2135 43.9042 33.9299 40.9029 36.6216 37.8767C36.992 37.455 37.4365 37.207 37.9304 36.9589C41.3629 35.3218 44.9189 34.0568 48.6477 33.3126C49.3885 33.1638 49.6108 32.8662 49.6602 32.122C50.0306 27.7564 53.5372 24.6062 57.834 24.631C62.1061 24.6558 65.5386 27.9052 65.8596 32.2957C65.909 33.0398 66.2053 33.2382 66.8721 33.3623C70.5762 34.156 74.1569 35.3962 77.5894 36.9837C78.1573 37.2566 78.6265 37.6039 79.0463 38.0751C81.6886 41.0765 84.3803 44.0283 87.0473 47.0048C87.4424 47.4265 87.8375 47.625 88.4302 47.6498C90.3563 47.7242 91.2453 48.8156 91.0477 50.7255C90.3316 57.646 84.6519 62.9046 77.7869 63.0039C70.996 63.1031 65.2175 58.0677 64.2298 51.1968C63.8841 48.8156 64.4026 48.0714 66.7239 47.625C66.9955 47.5753 67.1931 47.4761 67.3659 47.3025C69.5884 44.7228 71.885 42.1679 74.2309 39.5634ZM77.5647 51.296C74.7248 51.296 71.885 51.3208 69.0452 51.2712C68.1068 51.2464 67.9339 51.4945 68.2302 52.3874C69.5143 56.4058 73.3173 59.2335 77.54 59.2335C81.7627 59.2335 85.5903 56.381 86.8744 52.3874C87.146 51.5193 87.072 51.2216 86.0842 51.2464C83.2444 51.3457 80.4045 51.296 77.5647 51.296ZM37.8316 51.296C34.9918 51.296 32.1519 51.3208 29.3121 51.2712C28.3243 51.2464 28.2502 51.5689 28.5219 52.4123C29.7813 56.4058 33.6336 59.2583 37.8563 59.2583C42.079 59.2583 45.9066 56.4306 47.166 52.4123C47.4624 51.4945 47.2648 51.2712 46.3264 51.2712C43.5113 51.3208 40.6714 51.296 37.8316 51.296ZM57.834 77.9611C59.7107 77.9611 61.6122 77.9611 63.4889 77.9611C65.9831 77.9611 65.9831 77.9611 65.7361 75.431C65.588 73.9427 64.7237 72.9505 63.3408 72.9257C59.7354 72.8761 56.1301 72.8761 52.5 72.9257C51.2159 72.9505 50.3022 73.8435 50.1047 75.1581C50.0306 75.7783 50.1047 76.3984 50.0553 77.0185C49.9812 77.7874 50.3269 78.0107 51.043 77.9859C53.3396 77.9363 55.5868 77.9611 57.834 77.9611ZM57.7352 36.9589C60.1799 36.9341 62.1555 34.9746 62.1308 32.5685C62.1061 30.1625 60.1058 28.2277 57.6611 28.2525C55.2164 28.2773 53.2408 30.2369 53.2655 32.6429C53.2902 35.049 55.2904 36.9837 57.7352 36.9589ZM43.3631 47.5257C41.6592 45.6406 40.1529 43.9539 38.6712 42.2671C38.2761 41.7958 38.0292 41.8207 37.6341 42.2919C36.5722 43.5322 35.4363 44.7476 34.3497 45.9878C33.9299 46.4591 33.3866 46.856 33.1644 47.5505C36.5228 47.5257 39.7825 47.5257 43.3631 47.5257ZM82.4788 47.5009C80.7502 45.591 79.1698 43.8298 77.6141 42.0687C77.4165 41.8455 77.2189 41.8207 76.9967 42.0439C75.4163 43.805 73.8358 45.5662 72.0825 47.5009C75.6632 47.5009 78.9476 47.5009 82.4788 47.5009Z" fill="#C8AF84"/>
<path id="Vector_3" d="M57.4389 111.274C48.2773 111.274 39.091 111.274 29.9294 111.274C28.0033 111.274 27.139 110.703 27.1143 109.463C27.0896 108.173 28.0033 107.553 29.9788 107.553C48.3761 107.553 66.7486 107.553 85.1458 107.553C87.1213 107.553 88.0597 108.173 88.035 109.438C88.0103 110.703 87.0967 111.274 85.0964 111.274C75.8608 111.274 66.6498 111.274 57.4389 111.274Z" fill="#C8AF84"/>
<path id="Vector_4" d="M71.564 91.5542C66.9955 91.5542 62.4518 91.5542 57.8833 91.5542C57.5129 91.5542 57.1425 91.579 56.7721 91.5046C55.9078 91.331 55.3892 90.7605 55.2904 89.8923C55.1917 89.0241 55.5868 88.3792 56.4017 88.0071C56.8215 87.8087 57.2907 87.8335 57.7352 87.8335C67.0202 87.8335 76.3053 87.8335 85.5903 87.8335C87.4671 87.8335 88.5042 89.1234 87.8128 90.5124C87.393 91.3806 86.6275 91.5542 85.7385 91.5542C81.0219 91.5294 76.3053 91.5542 71.564 91.5542Z" fill="#C8AF84"/>
<path id="Vector_5" d="M40.9925 101.426C37.2142 101.426 33.436 101.426 29.6578 101.426C29.1639 101.426 28.67 101.451 28.2008 101.228C27.4106 100.831 27.0155 100.186 27.139 99.3177C27.2625 98.4496 27.781 97.9039 28.6453 97.7302C28.9664 97.6806 29.3121 97.7054 29.6331 97.7054C37.2883 97.7054 44.9189 97.7054 52.5741 97.7054C52.7469 97.7054 52.8951 97.7054 53.068 97.7054C54.2533 97.755 54.9941 98.4248 55.0435 99.4666C55.0929 100.558 54.3274 101.377 53.0927 101.401C50.722 101.451 48.3267 101.426 45.9313 101.426C44.2768 101.426 42.6223 101.426 40.9925 101.426Z" fill="#C8AF84"/>
<path id="Vector_6" d="M38.5724 91.5542C35.4857 91.5542 32.3989 91.5542 29.3121 91.5542C27.9539 91.5542 27.1143 90.8845 27.0896 89.7683C27.0402 88.6272 27.9045 87.8335 29.3121 87.8335C35.4857 87.8335 41.6592 87.8335 47.8328 87.8335C49.265 87.8335 50.08 88.5776 50.0553 89.7435C50.0306 90.8597 49.2157 91.5294 47.8575 91.5294C44.746 91.5542 41.6592 91.5542 38.5724 91.5542Z" fill="#C8AF84"/>
<path id="Vector_7" d="M76.5028 97.7056C79.5896 97.7056 82.6764 97.7056 85.7632 97.7056C87.1954 97.7056 88.0597 98.4249 88.035 99.5659C88.0103 100.682 87.146 101.426 85.7138 101.426C79.5896 101.426 73.4654 101.426 67.3412 101.426C65.8843 101.426 65.0941 100.707 65.0941 99.5411C65.0941 98.3505 65.8843 97.7304 67.3659 97.7056C70.4033 97.7056 73.4407 97.7056 76.5028 97.7056Z" fill="#C8AF84"/>
</g>
</g>
</g>
</g>
<defs>
<clipPath id="clip0_12_447">
<rect width="105" height="127" fill="white"/>
</clipPath>
</defs>
</svg>
