<svg width="119" height="132" viewBox="0 0 119 132" fill="none" xmlns="http://www.w3.org/2000/svg">
<g id="Frame" clip-path="url(#clip0_12_418)">
<g id="Group">
<g id="Group_2">
<g id="Group_3">
<path id="Vector" d="M1.83634 132C0.439687 131.253 0 130.092 0 128.494C0.0517279 108.462 0.0258639 88.4557 0.0258639 68.4237C0.0258639 65.7682 0.827646 64.969 3.49163 64.969C11.6388 64.969 19.7859 64.9948 27.9331 64.969C31.1402 64.969 33.5973 66.2065 35.2267 68.9651C35.4595 69.3776 35.6405 69.6096 36.2095 69.4549C45.9602 66.851 55.3747 63.4479 63.3408 57.0284C67.6342 53.5737 70.8931 49.3971 72.0569 43.8541C72.4966 41.7401 72.3932 39.5744 72.4449 37.4346C72.5484 32.6651 75.9883 28.5401 80.592 27.5862C85.4286 26.5807 90.1876 29.0041 92.205 33.4385C93.1878 35.5784 93.2137 37.8729 93.2654 40.1416C93.4723 48.1854 92.5153 56.1002 89.7479 63.7057C89.3341 64.8401 89.5927 65.0205 90.7048 65.0205C96.7053 64.969 102.68 64.969 108.68 65.0205C113.284 65.0463 117.19 68.0369 118.509 72.394C119.828 76.751 118.146 81.3659 114.319 83.9182C113.646 84.3565 112.534 84.6143 112.353 85.1815C112.172 85.7744 112.922 86.6252 113.206 87.3729C114.939 92.2713 112.741 97.7112 108.034 100.006C107.206 100.418 106.999 100.624 107.465 101.553C110.155 106.786 108.06 112.922 102.732 115.526C102.007 115.887 101.8 116.093 102.214 116.918C105.396 123.157 102.085 130.196 95.231 131.794C95.0241 131.846 94.8431 131.949 94.662 132.026C83.0233 132.026 71.3845 132.026 59.7457 132.026C59.3319 131.949 58.9181 131.846 58.4784 131.82C54.2884 131.639 50.176 131.046 46.0895 130.092C42.96 129.345 39.8563 128.494 36.7009 127.746C36.2354 127.643 35.6405 127.179 35.2526 127.953C34.0628 130.196 32.0713 131.356 29.7177 132.026C20.4584 132 11.1474 132 1.83634 132ZM36.2354 98.433C36.2354 105.214 36.2354 112.02 36.2354 118.8C36.2354 119.909 35.8992 121.301 36.4164 122.074C36.9854 122.925 38.5114 122.822 39.6236 123.131C46.8913 125.142 54.2626 126.767 61.8666 126.792C72.2121 126.818 82.5577 126.818 92.9033 126.818C96.0328 126.818 98.3347 124.575 98.3088 121.61C98.283 118.723 96.007 116.531 92.9291 116.506C90.6531 116.48 88.3512 116.506 86.0752 116.506C83.9802 116.506 82.7646 115.526 82.7905 113.902C82.8163 112.303 84.0061 111.375 86.0235 111.349C90.0324 111.349 94.0413 111.349 98.0502 111.349C101.18 111.324 103.482 109.132 103.482 106.167C103.482 103.203 101.18 101.063 98.0243 101.037C95.8776 101.011 93.7051 101.037 91.5584 101.037C91.248 101.037 90.9635 101.037 90.6531 101.037C89.0754 100.96 87.9891 99.9026 87.9891 98.4588C87.9891 97.0151 89.1013 95.9065 90.6531 95.9065C94.7914 95.8807 98.9296 95.9065 103.068 95.8807C106.327 95.8807 108.654 93.7409 108.654 90.7502C108.654 87.7596 106.327 85.594 103.094 85.594C100.637 85.594 98.1795 85.6198 95.7225 85.5682C94.2223 85.5424 93.1619 84.408 93.1619 83.0416C93.1361 81.6494 94.1965 80.5666 95.6707 80.4635C96.007 80.4377 96.369 80.4635 96.7053 80.4635C100.662 80.4635 104.646 80.4893 108.603 80.4635C110.93 80.4377 112.844 79.0713 113.543 76.983C114.732 73.5541 112.198 70.151 108.422 70.151C97.4812 70.1252 86.5149 70.151 75.5744 70.151C73.6605 70.151 72.4966 69.1713 72.4708 67.6244C72.4449 66.026 73.6346 64.9948 75.6003 64.9948C77.9281 64.9948 80.2558 64.969 82.5836 65.0205C83.4112 65.0463 83.8768 64.8401 84.213 63.9893C87.7305 55.3268 88.5581 46.2776 87.9374 37.0479C87.7822 34.5987 85.6355 32.6909 83.2043 32.5104C80.7472 32.3299 78.5488 33.8768 77.8505 36.2744C77.4884 37.5119 77.6694 38.7494 77.6436 39.9869C77.6436 44.2409 76.609 48.2369 74.514 51.9237C71.7983 56.6932 67.8928 60.3541 63.4184 63.4221C55.504 68.8362 46.6586 72.1104 37.4251 74.4565C36.4682 74.6885 36.2612 75.101 36.2612 76.0033C36.2612 83.4799 36.2354 90.9565 36.2354 98.433ZM5.19865 98.5362C5.19865 107.611 5.22452 116.66 5.17279 125.735C5.17279 126.638 5.40556 126.896 6.3108 126.87C13.501 126.844 20.717 126.844 27.9072 126.844C30.1056 126.844 31.0626 125.89 31.0626 123.699C31.0626 106.889 31.0626 90.1057 31.0626 73.2963C31.0626 71.0276 30.1315 70.1252 27.8296 70.1252C20.717 70.1252 13.6044 70.151 6.49185 70.0994C5.3797 70.0994 5.17279 70.4346 5.17279 71.4659C5.22452 80.4893 5.19865 89.5127 5.19865 98.5362Z" fill="#C8AF84"/>
<path id="Vector_2" d="M83.5664 0C84.9631 0.747656 85.4545 1.90781 85.4028 3.50625C85.3252 6.98672 85.3769 10.4414 85.3769 13.9219C85.3769 15.8555 84.3165 17.0672 82.7388 17.0156C81.1869 16.9641 80.23 15.8039 80.23 13.9219C80.23 10.4414 80.2817 6.98672 80.2041 3.50625C80.1524 1.90781 80.6438 0.773438 82.0404 0C82.5319 0 83.0491 0 83.5664 0Z" fill="#C8AF84"/>
<path id="Vector_3" d="M70.712 20.4703C70.712 21.5274 70.2465 22.3008 69.3154 22.7649C68.4102 23.2031 67.3756 23.2547 66.6514 22.5328C63.9874 19.9547 61.3493 17.3766 58.7888 14.6953C57.8835 13.7414 58.1163 12.3492 58.9957 11.4211C59.9268 10.4672 61.401 10.261 62.3839 11.1891C65.022 13.7156 67.5825 16.3196 70.1689 18.9235C70.5827 19.336 70.712 19.8774 70.712 20.4703Z" fill="#C8AF84"/>
<path id="Vector_4" d="M97.6623 23.0228C96.3691 23.0228 95.5931 22.533 95.1276 21.6049C94.6879 20.6768 94.662 19.6971 95.3862 18.9494C97.9209 16.3197 100.507 13.7416 103.145 11.215C104.154 10.2611 105.577 10.4416 106.534 11.3697C107.516 12.3494 107.62 13.7416 106.637 14.8502C105.654 15.9846 104.542 17.0158 103.482 18.0728C102.163 19.3877 100.869 20.6768 99.5503 21.9916C98.9813 22.5846 98.3347 23.0744 97.6623 23.0228Z" fill="#C8AF84"/>
<path id="Vector_5" d="M57.03 32.4846C58.6594 32.4846 60.2889 32.4588 61.9183 32.4846C63.5477 32.5104 64.6857 33.619 64.6599 35.0885C64.634 36.5065 63.5219 37.5893 61.97 37.6151C58.6077 37.6409 55.2713 37.6409 51.9089 37.6151C50.2795 37.5893 49.1415 36.4807 49.1674 35.0112C49.1932 33.5932 50.3054 32.5104 51.8572 32.4846C53.5901 32.4588 55.323 32.4846 57.03 32.4846Z" fill="#C8AF84"/>
<path id="Vector_6" d="M108.603 37.6405C106.973 37.6405 105.344 37.6663 103.714 37.6405C102.059 37.6147 100.921 36.5577 100.921 35.0882C100.921 33.6187 102.059 32.5358 103.689 32.5101C106.999 32.4843 110.31 32.4843 113.62 32.5101C115.276 32.5101 116.414 33.5929 116.414 35.0624C116.414 36.5319 115.276 37.6147 113.646 37.6405C111.939 37.6663 110.284 37.6405 108.603 37.6405Z" fill="#C8AF84"/>
<path id="Vector_7" d="M25.8898 103.641C25.8898 106.889 25.8898 110.163 25.8898 113.412C25.8898 115.345 24.8553 116.557 23.2517 116.531C21.6999 116.505 20.717 115.32 20.717 113.438C20.717 106.915 20.717 100.392 20.717 93.8953C20.717 91.9617 21.7516 90.75 23.3552 90.7758C24.907 90.8016 25.864 91.9875 25.8898 93.8695C25.8898 97.118 25.8898 100.366 25.8898 103.641Z" fill="#C8AF84"/>
<path id="Vector_8" d="M23.3034 80.4375C24.6742 80.4375 25.8381 81.5719 25.8898 82.9383C25.9157 84.3563 24.7518 85.568 23.3293 85.568C21.9068 85.568 20.717 84.3563 20.7429 82.9383C20.7688 81.5719 21.9326 80.4375 23.3034 80.4375Z" fill="#C8AF84"/>
</g>
</g>
</g>
</g>
<defs>
<clipPath id="clip0_12_418">
<rect width="119" height="132" fill="white"/>
</clipPath>
</defs>
</svg>
