<svg width="138" height="138" viewBox="0 0 138 138" fill="none" xmlns="http://www.w3.org/2000/svg">
<g id="Frame" clip-path="url(#clip0_12_430)">
<g id="Group">
<g id="Group_2">
<g id="Group_3">
<path id="Vector" d="M70.6034 0C71.2771 0.215625 71.9508 0.404297 72.6245 0.673828C78.6339 2.91094 81.2209 9.99961 78.0949 15.5789C77.9063 15.9293 77.6907 16.2797 77.4212 16.684C78.1218 17.0613 78.8494 16.8727 79.5231 16.8727C82.7569 16.9535 84.5893 18.8133 84.6163 22.0477C84.6432 25.0664 84.6432 25.0664 87.5806 25.0664C94.4523 25.0664 101.324 25.0664 108.196 25.0664C108.95 25.0664 109.543 24.9047 110.163 24.4195C114.313 21.2121 120.187 22.2633 122.99 26.6566C125.766 31.05 124.23 36.8449 119.514 39.1898C118.463 39.7289 118.705 40.1332 119.056 40.8879C125.146 53.5828 131.182 66.3047 137.272 78.9996C137.757 79.9969 138 80.9941 137.973 82.0992C137.919 84.4441 137.973 86.7621 137.946 89.107C137.892 93.2848 134.793 96.4922 130.616 96.5191C120.565 96.5731 110.486 96.5731 100.435 96.5191C96.4464 96.4922 93.3743 93.6352 93.1318 89.7C92.9701 86.843 93.0779 83.959 93.0779 81.075C93.0779 80.3742 93.4013 79.7812 93.6977 79.1613C99.761 66.4664 105.824 53.7445 111.941 41.0496C112.426 40.0254 112.48 39.4324 111.295 39.109C111.052 39.0281 110.756 38.8934 110.594 38.7047C109.327 37.1414 107.603 37.2223 105.824 37.2492C99.1681 37.3031 92.539 37.2762 85.8828 37.2492C84.8319 37.2492 84.4007 37.5187 84.5624 38.5969C84.6163 38.8664 84.5624 39.1359 84.5624 39.4055C84.5624 43.7988 83.1611 45.2812 78.7417 45.443C77.8254 45.4699 77.7715 45.8742 77.7715 46.602C77.7985 51.9387 77.7715 57.3023 77.7715 62.6391C77.7715 63.1242 77.7985 63.6363 77.6637 64.1215C77.3943 65.1727 76.6667 65.7387 75.5888 65.6578C74.5108 65.577 73.8641 64.957 73.7563 63.852C73.7024 63.3129 73.7294 62.7738 73.7294 62.2348C73.7294 57.1137 73.7024 51.9926 73.7563 46.8715C73.7832 45.7125 73.406 45.416 72.3011 45.4699C70.0105 45.5508 67.72 45.5508 65.4294 45.4699C64.3515 45.443 64.082 45.7934 64.082 46.8445C64.109 59.8629 64.109 72.9082 64.109 85.9266C64.109 86.3848 64.109 86.816 64.082 87.2742C64.0012 88.4602 63.3005 89.107 62.1957 89.1879C61.0639 89.2687 60.3363 88.5949 60.1207 87.4898C60.0129 87.0047 60.0668 86.5195 60.0668 86.0074C60.0668 73.016 60.0398 60.0516 60.0937 47.0602C60.0937 45.9012 59.9051 45.416 58.5847 45.443C55.1084 45.4969 53.2759 43.5832 53.2759 40.1332C53.2759 37.3031 53.2759 37.3031 50.3925 37.3031C43.7903 37.3031 37.188 37.3301 30.5858 37.2762C29.5618 37.2762 28.6456 37.357 27.9449 38.2195C27.7024 38.516 27.3251 38.7047 26.9748 38.9203C25.4118 39.8906 25.4118 39.8906 26.2472 41.6426C32.2296 54.1488 38.1851 66.6551 44.1675 79.1613C44.5987 80.0777 44.8412 80.9941 44.8143 82.0184C44.7873 84.2285 44.8143 86.4117 44.7873 88.6219C44.7335 93.5812 41.7422 96.573 36.7838 96.573C27.5677 96.6 18.3784 96.4652 9.16227 96.627C4.63503 96.6809 1.45518 95.0906 0 90.5625C0 87.1395 0 83.7434 0 80.3203C0.161687 80.0508 0.323374 79.7812 0.458114 79.5117C6.60223 66.6551 12.7463 53.7715 18.9174 40.9148C19.3486 39.9984 19.2677 39.648 18.3245 39.1629C13.7165 36.7371 12.2074 31.023 14.9561 26.6836C17.7586 22.2902 23.6333 21.2391 27.7832 24.4465C28.403 24.9316 28.9959 25.0934 29.7504 25.0934C36.6221 25.0664 43.4938 25.0934 50.3656 25.0934C53.3298 25.0934 53.3298 25.0934 53.3298 22.1016C53.3568 18.8672 55.1892 17.0344 58.396 16.9266C59.0697 16.8996 59.7973 17.0883 60.498 16.7379C60.2554 16.3066 60.0398 15.9832 59.8243 15.6328C57.1564 10.8621 58.6116 4.85156 63.1388 1.80586C64.4323 0.943359 65.8875 0.566016 67.3158 0.0539063C68.4476 0 69.5255 0 70.6034 0ZM115.606 82.9617C109.866 82.9617 104.1 82.9887 98.3597 82.9348C97.4704 82.9348 97.0662 83.1234 97.1201 84.1207C97.2009 85.7379 97.0931 87.3551 97.147 88.9723C97.2279 91.2094 98.5214 92.4762 100.731 92.4762C110.621 92.5031 120.484 92.5031 130.374 92.4762C132.61 92.4762 133.904 91.1016 133.931 88.8105C133.958 87.382 133.85 85.9266 133.958 84.498C134.039 83.3121 133.742 82.9078 132.449 82.9348C126.844 83.0156 121.211 82.9617 115.606 82.9617ZM22.4206 82.9617C16.6807 82.9617 10.9139 82.9887 5.17399 82.9348C4.33861 82.9348 3.96134 83.0965 4.01523 84.0398C4.09608 85.657 4.01523 87.2742 4.04218 88.8914C4.06913 91.1555 5.38957 92.4762 7.68014 92.4762C17.5161 92.5031 27.3521 92.5031 37.188 92.4762C39.4786 92.4762 40.7452 91.2094 40.826 88.8914C40.8799 87.409 40.7721 85.9266 40.853 84.4441C40.9338 83.3121 40.6374 82.9078 39.3978 82.9348C33.7387 83.0156 28.0797 82.9617 22.4206 82.9617ZM20.4265 47.4914C20.1301 47.8687 20.0223 47.9496 19.9684 48.0574C15.1986 58.0031 10.4558 67.9488 5.686 77.8945C5.28178 78.757 5.47042 78.9457 6.3597 78.9457C10.5905 78.9187 14.7944 78.8918 19.0252 78.9457C20.1301 78.9727 20.4804 78.6762 20.4534 77.5441C20.3995 70.7789 20.4265 63.9867 20.4265 57.1945C20.4265 54.068 20.4265 50.9414 20.4265 47.4914ZM117.708 47.5723C117.574 47.8418 117.547 47.8687 117.547 47.8957C117.547 57.8953 117.547 67.9219 117.493 77.9215C117.493 78.8379 117.924 78.9187 118.651 78.9187C122.828 78.8918 127.005 78.9187 131.182 78.9187C132.718 78.9187 132.745 78.9188 132.071 77.5441C127.49 67.9488 122.909 58.3805 118.328 48.7852C118.166 48.4348 117.978 48.0844 117.708 47.5723ZM39.6673 78.9187C34.628 68.3801 29.6965 58.057 24.7651 47.707C24.4956 57.8953 24.5226 67.9758 24.4956 78.0563C24.4956 78.9727 25.0346 78.8918 25.6274 78.8918C29.0228 78.8918 32.4452 78.8918 35.8407 78.8918C37.0264 78.9188 38.2121 78.9187 39.6673 78.9187ZM98.3058 78.9187C103.049 78.9187 107.549 78.8648 112.022 78.9457C113.208 78.9727 113.504 78.6492 113.504 77.4633C113.451 67.9488 113.477 58.4344 113.477 48.9469C113.477 48.5695 113.612 48.1652 113.262 47.6531C108.277 58.057 103.372 68.3801 98.3058 78.9187ZM68.9596 4.04297C65.4564 4.06992 62.546 6.98086 62.5729 10.4848C62.5999 13.9887 65.5372 16.8996 69.0404 16.8727C72.5436 16.8457 75.454 13.9078 75.4271 10.4039C75.4001 6.9 72.4628 4.04297 68.9596 4.04297ZM43.6286 33.2062C46.8084 33.2062 49.9883 33.2062 53.1951 33.2062C56.1054 33.2062 56.0246 33.2062 56.1054 30.3492C56.1324 29.1902 55.6743 29.0824 54.7042 29.0824C47.3474 29.1094 39.9906 29.1094 32.6339 29.0824C31.4751 29.0824 30.7206 29.1094 31.2056 30.5918C31.3673 31.077 31.3134 31.6699 31.2056 32.182C31.017 33.0984 31.3943 33.2332 32.1757 33.2062C36.0023 33.1793 39.8289 33.2062 43.6286 33.2062ZM94.4523 29.1094C91.2724 29.1094 88.0926 29.1094 84.8858 29.1094C81.8407 29.1094 81.8676 29.1094 81.8946 32.1012C81.8946 32.9906 82.164 33.2332 83.0264 33.2332C90.5987 33.2062 98.198 33.2062 105.77 33.2332C106.552 33.2332 106.929 33.1254 106.767 32.209C106.66 31.5621 106.633 30.8344 106.821 30.2145C107.091 29.2441 106.767 29.1094 105.878 29.1094C102.078 29.1094 98.2519 29.1094 94.4523 29.1094ZM68.9865 41.4C72.0316 41.4 75.1037 41.4 78.1488 41.4C80.5741 41.4 80.5741 41.4 80.5741 39.0281C80.5741 37.2762 80.5741 37.2492 78.7417 37.2492C72.4628 37.2492 66.1839 37.2492 59.8781 37.2492C57.372 37.2492 57.4528 37.2492 57.3451 39.702C57.2912 41.1305 57.8301 41.4539 59.1506 41.427C62.4382 41.3461 65.7258 41.4 68.9865 41.4ZM68.9865 20.9426C65.9414 20.9426 62.8963 20.9426 59.8243 20.9426C57.3989 20.9426 57.4528 20.9426 57.372 23.3145C57.3181 24.6621 57.6954 25.1203 59.0967 25.0934C65.4294 25.0125 71.7622 25.0664 78.068 25.0664C80.8436 25.0664 80.4933 25.2551 80.5741 22.4789C80.6011 21.3199 80.2507 20.8887 79.065 20.9156C75.7235 20.9695 72.355 20.9426 68.9865 20.9426ZM68.8518 33.2062C70.9268 33.2062 72.9748 33.2062 75.0498 33.2062C77.9063 33.2062 77.8524 33.2062 77.9063 30.2953C77.9332 29.2172 77.529 29.0555 76.5858 29.0824C72.0586 29.1363 67.5313 29.1094 63.0041 29.1094C60.0668 29.1094 60.0937 29.1094 60.0937 32.0742C60.0937 33.0715 60.4441 33.2602 61.3333 33.2332C63.8395 33.1793 66.3456 33.2062 68.8518 33.2062ZM115.552 26.6297C112.885 26.6297 110.756 28.732 110.756 31.4004C110.756 33.9879 112.858 36.1172 115.445 36.1441C118.139 36.1711 120.268 34.0957 120.295 31.4273C120.322 28.759 118.247 26.6297 115.552 26.6297ZM22.5284 26.6297C19.8336 26.6027 17.7047 28.6512 17.6778 31.3465C17.6508 33.9609 19.6989 36.0902 22.2859 36.1441C24.9537 36.198 27.1634 34.1496 27.2173 31.5082C27.2712 28.8398 25.1693 26.6566 22.5284 26.6297Z" fill="#C8AF84"/>
<path id="Vector_2" d="M43.6555 138C42.6585 137.191 42.389 136.167 42.4698 134.927C42.5507 133.364 42.4429 131.774 42.5237 130.211C42.7124 126.195 45.6766 123.23 49.7188 123.122C52.6831 123.041 55.6473 123.041 58.6116 123.122C59.8242 123.149 60.2015 122.852 60.2015 121.586C60.1476 113.58 60.1746 105.602 60.1746 97.5973C60.1746 97.0043 60.1207 96.4383 60.3363 95.8723C60.7405 94.9289 61.4681 94.4977 62.4651 94.6055C63.4083 94.7133 64.0012 95.3063 64.1628 96.2496C64.2437 96.6809 64.2167 97.1391 64.2167 97.5973C64.2167 105.602 64.2437 113.58 64.1898 121.586C64.1898 122.718 64.4054 123.176 65.645 123.122C67.8817 123.014 70.1453 123.014 72.3819 123.122C73.5946 123.176 73.8641 122.772 73.8641 121.613C73.8371 105.845 73.8371 90.0774 73.8371 74.3098C73.8371 73.8516 73.8102 73.4203 73.8641 72.9621C73.9449 71.884 74.5378 71.2102 75.6426 71.1024C76.8014 70.9946 77.5559 71.5606 77.7985 72.6656C77.9332 73.1778 77.8793 73.7438 77.8793 74.2828C77.8793 90.0504 77.9063 105.818 77.8524 121.586C77.8524 122.852 78.2296 123.149 79.4423 123.122C82.2179 123.041 85.0205 123.068 87.7961 123.095C92.4312 123.149 95.4493 126.114 95.5571 130.75C95.5841 132.151 95.5032 133.526 95.5841 134.927C95.6649 136.167 95.3685 137.218 94.3983 138C77.4212 138 60.5518 138 43.6555 138ZM68.8518 133.957C75.5887 133.957 82.3257 133.957 89.0627 133.957C91.461 133.957 91.461 133.957 91.461 131.558C91.461 128.162 90.4101 127.138 87.0416 127.111C75.3732 127.111 63.7047 127.111 52.0094 127.111C47.1587 127.111 46.512 127.785 46.4851 132.609C46.4851 133.661 46.7545 133.957 47.8324 133.957C54.8389 133.93 61.8453 133.957 68.8518 133.957Z" fill="#C8AF84"/>
</g>
</g>
</g>
</g>
<defs>
<clipPath id="clip0_12_430">
<rect width="138" height="138" fill="white"/>
</clipPath>
</defs>
</svg>
