<svg width="100" height="100" viewBox="0 0 100 100" fill="none" xmlns="http://www.w3.org/2000/svg">
<g id="Group">
<g id="Group_2">
<g id="Group_3">
<path id="Vector" d="M50.9667 2.84314e-05C52.3811 0.424357 53.6069 1.22587 54.8328 1.98023C66.9497 9.1938 79.0666 16.4074 91.2307 23.5738C92.9752 24.6111 93.7767 25.9312 93.7295 27.9585C93.6824 31.5418 93.7295 35.125 93.6824 38.7082C93.6824 39.274 93.7767 39.604 94.3896 39.8869C96.4641 40.9241 97.5956 42.6686 97.5956 44.9788C97.6428 49.6936 97.6428 54.4083 97.5956 59.1231C97.5956 60.5847 96.8413 61.339 95.3797 61.339C92.9752 61.339 90.5706 61.339 88.1661 61.339C86.6574 61.339 85.903 60.5847 85.903 59.0288C85.903 54.4083 85.8559 49.7879 85.903 45.1674C85.903 42.7629 87.0346 40.9241 89.2034 39.8397C89.5805 39.6511 89.8163 39.5097 89.8163 38.9911C89.7691 36.6337 89.8163 34.2292 89.8163 31.8718C89.4862 31.6832 89.2977 31.9661 89.1091 32.0604C86.6102 33.5219 84.1586 35.0307 81.6126 36.4922C81.094 36.7751 80.9054 37.1523 80.9525 37.7181C80.9525 41.0184 80.9525 44.2716 80.9525 47.5719C80.9997 50.3536 79.8681 52.3338 77.4636 53.7483C69.4957 58.4159 61.5749 63.1306 53.6541 67.8925C51.1553 69.4013 48.7979 69.3541 46.2991 67.8925C38.4254 63.1778 30.5518 58.5102 22.631 53.8426C20.1322 52.381 18.9063 50.3536 19.0006 47.4305C19.0478 44.2244 19.0006 40.9713 19.0478 37.7652C19.0478 37.1052 18.812 36.728 18.2463 36.398C14.9931 34.5121 11.787 32.579 8.58101 30.6931C5.46927 28.8072 5.42212 25.5069 8.58101 23.6681C21.3109 16.1245 34.0407 8.58089 46.7234 0.990127C47.4306 0.565799 48.2321 0.282914 49.0336 -0.0471191C49.6465 2.84314e-05 50.3066 2.84314e-05 50.9667 2.84314e-05ZM89.6748 27.2042C89.2505 26.9684 89.0148 26.7799 88.7319 26.5913C76.3321 19.2362 63.9323 11.8812 51.5796 4.5262C50.4481 3.86613 49.5522 3.86613 48.4207 4.5262C36.068 11.9284 23.6682 19.2834 11.2684 26.6384C10.9855 26.827 10.6084 26.9213 10.4198 27.2985C10.6555 27.4399 10.9384 27.6285 11.1741 27.7699C23.6211 35.1721 36.068 42.5271 48.4679 49.9293C49.5051 50.5422 50.4009 50.5422 51.4382 49.9293C58.9346 45.4503 66.4311 41.0184 73.9275 36.5865C79.1609 33.4748 84.3472 30.3631 89.6748 27.2042ZM48.0435 64.3565C48.0435 61.4333 47.9492 58.6516 48.0907 55.917C48.1378 54.5498 47.7135 53.8897 46.5348 53.2296C39.0383 48.8449 31.589 44.3659 24.1397 39.934C23.8097 39.7454 23.4325 39.3211 23.1496 39.4625C22.7724 39.6983 23.0082 40.2169 22.961 40.6412C22.961 42.9043 23.0082 45.2145 22.9139 47.4776C22.8667 48.8921 23.4325 49.7407 24.6112 50.4951C32.1076 54.8798 39.557 59.3588 47.0063 63.7907C47.2892 63.9321 47.5721 64.0736 48.0435 64.3565ZM51.9568 64.3093C52.2397 64.1679 52.3811 64.1207 52.5225 64.0264C60.2547 59.406 67.9869 54.8327 75.7663 50.2593C76.7093 49.6936 77.0864 48.8921 77.0864 47.8548C77.0864 45.4031 77.0864 42.9515 77.0864 40.5469C77.0864 40.2169 77.275 39.7454 76.945 39.5568C76.615 39.3683 76.3321 39.7454 76.002 39.934C68.1284 44.5545 60.2547 49.2221 52.4282 53.8897C52.0982 54.0783 51.9568 54.2669 51.9568 54.6441C51.9568 57.7558 51.9568 60.9618 51.9568 64.3093ZM93.7295 51.0608C93.7295 49.1278 93.7767 47.1476 93.7295 45.2146C93.7295 43.9887 92.928 43.1872 91.8436 43.1401C90.7121 43.0929 89.8634 43.9416 89.8634 45.2146C89.8163 49.0807 89.8634 52.9468 89.8634 56.8129C89.8634 57.3786 90.0992 57.4729 90.5706 57.4258C91.3721 57.3786 92.2208 57.3786 93.0223 57.4258C93.6824 57.4729 93.8238 57.19 93.8238 56.5771C93.7295 54.7855 93.7295 52.9468 93.7295 51.0608Z" fill="#C8AF84"/>
<path id="Vector_2" d="M100 89.0618C99.5758 90.8063 99.1514 92.5036 98.1613 94.0594C95.7568 97.7841 92.3622 99.7643 87.9775 100C87.6946 100 87.4117 100 87.0817 100C61.622 100 36.1623 100 10.7497 100C5.61066 100 1.46167 96.8412 0.282983 92.0321C-1.03715 86.6101 2.64036 81.471 8.15663 81.0939C12.2585 80.811 15.936 84.1113 15.936 88.2131C15.936 89.3447 15.1816 90.1933 14.1444 90.2876C13.06 90.3819 12.1642 89.6747 12.117 88.496C11.9756 86.1387 10.184 84.6299 7.87374 85.0543C6.36502 85.3371 5.23348 86.1387 4.52627 87.4588C3.15899 89.9576 4.33767 93.5408 7.02509 95.1438C9.94824 96.8883 14.1915 96.0868 16.596 93.3522C19.7549 89.769 19.5663 84.2999 16.1246 80.3395C14.0972 78.0293 11.5513 76.7563 8.48666 76.5205C6.6479 76.4263 5.79925 75.7662 5.8464 74.4932C5.89354 73.2202 6.78935 72.6073 8.58096 72.6073C14.1915 72.6073 19.8492 72.6073 25.4598 72.6073C27.2514 72.6073 28.1943 73.2674 28.1943 74.5404C28.1943 75.8605 27.2985 76.5205 25.4126 76.5205C23.291 76.5205 21.1694 76.5205 19.0477 76.5205C18.7177 76.5205 18.3877 76.4263 18.1048 76.6148C23.3381 82.744 24.6111 89.1561 19.6135 96.0396C19.8021 96.1811 20.085 96.0868 20.3207 96.0868C30.9761 96.0868 41.5843 96.0868 52.2396 96.0868C56.6715 96.0868 60.349 93.1636 60.9619 89.2032C61.7163 84.5356 59.3589 79.9152 55.1156 77.7464C53.3711 76.8506 51.5324 76.4734 49.5522 76.4734C47.6663 76.4734 45.7804 76.4734 43.8945 76.4734C42.5272 76.4734 41.7257 75.8133 41.6314 74.6818C41.5371 73.786 42.1972 72.843 43.1401 72.7016C43.5645 72.6073 43.9888 72.6073 44.4131 72.6073C57.7087 72.6073 71.0515 72.6073 84.3471 72.6073C91.5135 72.6073 97.1241 76.5205 99.2457 82.9798C99.5758 83.9699 99.7644 84.96 100 85.9972C100 86.9873 100 88.0246 100 89.0618ZM61.9049 96.0396C62.0934 96.1811 62.3292 96.1339 62.5178 96.1339C70.7686 96.1339 79.0194 96.1811 87.3174 96.1339C93.3051 96.0868 97.2655 90.9477 95.804 85.1014C94.531 79.9152 90.2406 76.5677 84.6771 76.5205C76.8506 76.4734 69.0713 76.5205 61.2448 76.5205C60.9619 76.5205 60.679 76.4263 60.3961 76.662C65.6295 82.6969 66.9025 89.1089 61.9049 96.0396Z" fill="#C8AF84"/>
<path id="Vector_3" d="M36.9167 74.5404C36.9167 75.5776 36.0209 76.4263 34.9365 76.4263C33.8992 76.4263 33.0034 75.5304 33.0034 74.4932C33.0034 73.456 33.8992 72.6073 34.9836 72.6073C36.0209 72.6073 36.9167 73.5031 36.9167 74.5404Z" fill="#C8AF84"/>
<path id="Vector_4" d="M50.5423 34.4178C46.3933 34.7006 42.9044 32.0132 42.48 28.2886C42.1971 25.7898 43.3287 23.9039 45.3089 22.4423C48.2792 20.2735 52.7582 20.5564 55.3985 23.008C58.7931 26.1198 58.0387 31.306 53.9369 33.4748C52.8053 34.0877 51.6267 34.4178 50.5423 34.4178ZM50.0236 30.5517C52.0038 30.5517 53.7483 29.1844 53.7012 27.6285C53.654 26.1198 51.8624 24.7525 49.9293 24.7997C47.9963 24.8468 46.299 26.1669 46.3461 27.6757C46.3461 29.1372 47.902 30.4102 49.8822 30.5045C49.8822 30.5517 49.9765 30.5517 50.0236 30.5517Z" fill="#C8AF84"/>
</g>
</g>
</g>
</svg>
