<svg width="100" height="100" viewBox="0 0 100 100" fill="none" xmlns="http://www.w3.org/2000/svg">
<g id="Group">
<g id="Group_2">
<g id="Group_3">
<path id="Vector" d="M0 80.2816C0.55332 79.2252 1.45875 78.8731 2.666 78.8731C5.03018 78.9234 7.39437 78.8731 9.90946 78.8731C9.35614 77.7162 8.80282 76.6598 8.60161 75.4526C7.94769 71.4285 9.25553 68.0079 11.8209 64.9898C12.3239 64.3862 12.4245 63.9838 12.173 63.2796C10.5634 58.6518 9.85915 53.8731 9.80885 48.9939C9.80885 45.3721 9.80885 41.7001 9.80885 38.0784C9.80885 36.1166 10.4628 35.4627 12.3742 35.4627C20.3722 35.4627 28.3702 35.4627 36.4185 35.4627C36.67 35.4627 36.8712 35.4627 37.1227 35.4627C38.0785 35.5633 38.833 36.2675 38.9336 37.2232C39.0342 38.179 38.3803 39.0844 37.3742 39.2856C37.0221 39.3862 36.6197 39.3359 36.2173 39.3359C29.1247 39.3359 22.0322 39.3359 14.9396 39.3359C13.9839 39.3359 13.7827 39.6377 13.7827 40.5431C13.8833 44.3661 13.6821 48.1387 13.9336 51.9617C14.1348 54.9798 14.6881 57.9476 15.5433 60.8651C15.7445 61.519 15.8954 61.7202 16.6499 61.3681C19.2153 60.1609 21.8813 59.7584 24.5976 60.513C29.326 61.8208 31.9416 66.5492 30.835 71.68C30.2314 74.346 28.9235 76.6598 27.0121 78.6216C27.2636 78.9737 27.5654 78.8228 27.8169 78.8228C39.7887 78.8228 51.7606 78.8228 63.7324 78.8228C64.336 78.8228 64.7384 78.6216 65.1911 78.2192C73.4406 70.2715 77.5654 60.5633 77.7666 49.1448C77.8169 46.1769 77.7666 43.2091 77.8169 40.2413C77.8169 39.4868 77.5654 39.3359 76.8612 39.3359C69.7183 39.3359 62.5251 39.3359 55.3823 39.3359C55.0805 39.3359 54.7284 39.3359 54.4266 39.3359C53.3702 39.185 52.6157 38.3299 52.666 37.3238C52.7163 36.3178 53.4708 35.513 54.5272 35.4627C55.4829 35.4124 56.4386 35.4627 57.3441 35.4627C66.0463 35.4627 74.7988 35.4627 83.501 35.4627C92.9074 35.4627 100.201 42.9073 100.05 52.2635C99.8994 60.8148 92.8068 68.0079 84.2052 68.2594C82.1429 68.3097 80.0302 68.2594 77.9678 68.2594C77.5654 68.2594 77.2636 68.2594 77.0121 68.7122C75.2515 72.2836 73.0382 75.5029 70.4225 78.4707C70.3722 78.521 70.3219 78.6216 70.3219 78.7222C70.674 78.9234 71.0262 78.8228 71.3783 78.8228C77.2133 78.8228 83.0986 78.8228 88.9336 78.8228C90.8451 78.8228 91.5493 79.6277 91.4487 81.5391C91.0966 87.3238 86.167 92.0019 80.3823 92.1025C78.5211 92.1528 76.66 92.1025 74.7988 92.1025C74.2958 92.1025 74.0443 92.2031 73.8934 92.7061C72.7364 96.6297 70.1207 98.9938 66.0966 99.7987C65.996 99.7987 65.9457 99.8993 65.8451 99.9496C52.4145 99.9496 39.0342 99.9496 25.6036 99.9496C25.4527 99.8993 25.3018 99.7987 25.1509 99.7484C21.2777 98.8932 18.7626 96.5794 17.5553 92.8067C17.4044 92.3037 17.2032 92.1025 16.6499 92.1025C14.7887 92.1528 12.9276 92.1528 11.0664 92.1025C5.78471 92.0019 1.15694 88.0784 0.201207 82.8973C0.150905 82.6458 0.0503018 82.3942 0 82.1427C0 81.5894 0 80.9355 0 80.2816ZM4.32596 82.847C4.22535 83.1991 4.37626 83.4003 4.47686 83.6518C5.5835 86.3681 8.2495 88.2796 11.2173 88.2796C13.6821 88.3299 16.1469 88.2796 18.662 88.2796C20.3722 88.2796 21.0262 88.8832 21.1268 90.5431C21.328 93.6116 23.7928 96.0763 26.9115 96.0763C39.4869 96.1266 52.0624 96.1266 64.5875 96.0763C67.6559 96.0763 70.1207 93.6619 70.3219 90.5431C70.4225 88.8832 71.0765 88.2796 72.7364 88.2796C75.2012 88.2796 77.666 88.3299 80.1811 88.2796C83.1992 88.179 85.4125 86.7705 86.8209 84.0542C87.4245 82.847 87.3742 82.7967 86.0664 82.7967C59.2052 82.7967 32.2938 82.7967 5.4326 82.7967C5.03018 82.847 4.67807 82.847 4.32596 82.847ZM78.9738 64.4868C81.2374 64.3862 83.3501 64.5874 85.5131 64.2856C91.8008 63.4305 96.4789 57.6458 96.1268 51.1568C95.7746 44.8691 90.3923 39.5874 84.1549 39.4365C81.6398 39.3862 81.6398 39.3862 81.6398 41.851C81.6398 44.0643 81.6398 44.0643 83.8531 44.1146C87.827 44.2152 91.1469 47.3339 91.4487 51.2574C91.8008 55.2816 88.9839 58.853 85.0604 59.5572C83.7525 59.8087 82.3944 59.6578 81.0865 59.7081C80.7344 59.7081 80.4326 59.6578 80.2817 60.1609C79.829 61.6196 79.4266 62.9778 78.9738 64.4868ZM12.7264 75.8047C14.7384 71.7303 15.5433 71.026 19.6177 69.517C21.2777 68.9134 22.3843 67.7061 22.837 65.9959C23.2897 64.3359 22.9879 63.9838 21.328 64.185C17.2032 64.688 14.4366 67.0019 12.8773 70.7745C12.2233 72.3339 12.0724 73.9938 12.7264 75.8047ZM26.66 67.2534C24.497 71.4788 24.0443 71.8309 19.6177 73.5914C17.7565 74.346 16.7505 75.7544 16.3984 77.6659C16.2475 78.521 16.5493 78.9234 17.4547 78.8731C21.6298 78.6719 24.4467 76.5089 26.2575 72.8872C27.163 71.1769 27.4145 69.3158 26.66 67.2534ZM82.7465 55.8349C83.1489 55.8349 83.5513 55.8852 83.9034 55.8349C85.8652 55.6337 87.3742 54.0743 87.4748 52.2132C87.5754 50.3017 86.3179 48.5411 84.4064 48.1387C83.8028 47.9878 83.0986 48.0884 82.4447 48.0381C81.7907 47.9878 81.5392 48.189 81.5392 48.8932C81.5895 50.7041 81.4386 52.4647 81.2374 54.2252C81.1368 55.8852 81.1368 55.8852 82.7465 55.8349Z" fill="#C8AF84"/>
<path id="Vector_2" d="M47.6357 1.81081C47.6357 2.51503 47.3339 2.96775 46.9818 3.42046C44.0643 6.89129 44.1649 10.8148 47.2333 14.1348C51.4084 18.6116 51.4587 25.4527 47.3339 29.8289C46.7303 30.4828 46.0764 30.8349 45.171 30.5834C44.4164 30.3822 43.9637 29.8289 43.7625 29.0744C43.5613 28.2193 44.014 27.6156 44.5673 26.9617C47.1327 24.0442 47.1327 19.9195 44.5673 17.002C44.3158 16.7001 44.014 16.4486 43.7625 16.1468C39.8893 11.7706 40.0402 4.97982 44.0643 0.754469C44.7182 0.100545 45.4225 -0.251567 46.3279 0.100545C47.2333 0.452658 47.5854 1.10658 47.6357 1.81081Z" fill="#C8AF84"/>
<path id="Vector_3" d="M59.5574 28.7223C59.5574 28.169 59.8089 27.7163 60.161 27.3139C62.1228 24.9497 62.0725 22.4849 60.0101 20.2213C56.8411 16.7002 56.7405 11.67 59.8089 8.24946C60.7646 7.14282 61.8713 6.99192 62.7767 7.74644C63.6821 8.50097 63.6821 9.65791 62.7767 10.7646C60.9155 13.0281 61.0161 15.5432 63.0785 17.8068C66.3481 21.3782 66.2978 26.7102 63.0282 29.9798C62.4246 30.6338 61.6701 30.8853 60.8149 30.5332C59.9598 30.1811 59.5574 29.5774 59.5574 28.7223Z" fill="#C8AF84"/>
<path id="Vector_4" d="M33.9538 23.5915C33.9035 26.2071 33.0986 28.2695 31.489 29.9798C30.6338 30.8852 29.5272 30.9355 28.7224 30.181C27.8672 29.4265 27.8169 28.3198 28.5715 27.4144C30.6338 24.7987 30.5835 22.5854 28.3703 20.0703C25.2516 16.5995 25.2515 11.519 28.32 8.1488C29.2757 7.09246 30.4326 6.94156 31.2878 7.74638C32.1429 8.50091 32.0926 9.65785 31.2375 10.7142C29.4266 12.9275 29.4769 15.4929 31.3884 17.6055C33.0986 19.517 33.9538 21.5794 33.9538 23.5915Z" fill="#C8AF84"/>
<path id="Vector_5" d="M47.6357 37.4244C47.6357 38.4808 46.7303 39.4365 45.6739 39.4365C44.6679 39.4365 43.7625 38.5814 43.7122 37.525C43.7122 36.4687 44.517 35.6136 45.5733 35.5633C46.7303 35.513 47.6357 36.3681 47.6357 37.4244Z" fill="#C8AF84"/>
</g>
</g>
</g>
</svg>
