<svg width="100" height="96" viewBox="0 0 100 96" fill="none" xmlns="http://www.w3.org/2000/svg">
<g id="Group">
<g id="Group_2">
<g id="Group_3">
<path id="Vector" d="M5.68554e-05 34.8829C11.3626 34.8829 22.7252 34.8829 34.0877 34.9405C34.7478 34.9405 34.9364 34.6522 35.0307 33.9027C36.3037 23.063 37.6238 12.281 38.8497 1.49907C38.9911 0.345912 39.274 -0.0576917 40.2641 -3.40855e-05C46.8176 0.0576236 53.324 0.0576236 59.8775 -3.40855e-05C60.679 -3.40855e-05 60.9147 0.288254 61.009 1.21078C62.2348 11.7045 63.5078 22.1982 64.7808 32.7495C65.0165 34.9405 65.0166 34.9405 66.761 34.9405C77.4164 34.9405 88.0246 34.9405 98.6799 34.9405C99.0571 34.9405 99.4343 34.9405 99.9058 34.9405C98.9156 39.9567 97.9256 44.8576 96.9355 49.7585C96.2282 53.3333 95.4739 56.9657 93.8237 60.1369C89.9576 67.5171 84.4885 71.6108 77.3692 72.245C74.0689 72.5333 70.7214 72.3027 67.4211 72.3603C65.7709 72.3603 66.0067 72.3027 66.431 73.9747C68.2226 80.8937 70.0142 87.8126 71.8058 94.7892C72.1358 96.0576 72.1358 96.0576 71.0514 96.0576C56.9543 96.0576 42.8572 96.0576 28.7601 96.0576C27.8171 96.0576 27.77 95.7693 28.0057 94.7892C29.8445 87.8126 31.6361 80.836 33.4277 73.9171C33.8049 72.3603 33.852 72.3603 32.5319 72.3603C29.2787 72.3603 26.0255 72.4756 22.7723 72.245C13.1542 71.6108 5.70491 63.9423 3.39468 52.5261C2.31029 47.0486 1.17875 41.5711 0.094352 36.0937C0.0472044 35.863 -0.0470907 35.6901 -0.0942383 35.4594C5.68554e-05 35.1711 5.68554e-05 35.0558 5.68554e-05 34.8829ZM3.77186 38.6306C4.05475 39.9567 4.33763 41.2828 4.52622 42.6666C4.66767 43.5892 4.9977 43.7621 5.70491 43.7621C10.3254 43.7045 14.9458 43.7621 19.5663 43.7621C21.4522 43.7621 21.4051 43.7621 21.4993 46.0684C21.5465 47.1063 21.3579 47.3946 20.4621 47.3946C15.7945 47.3369 11.174 47.3946 6.50642 47.3369C5.65777 47.3369 5.51632 47.6828 5.75206 48.5477C5.9878 49.5855 6.17639 50.6234 6.41213 51.6612C8.58091 62.0973 15.323 68.6702 24.1396 68.7279C41.3956 68.7856 58.6516 68.7856 75.9076 68.7279C84.5356 68.6702 91.2777 62.3856 93.5408 52.2955C94.4838 48.2018 95.191 44.0504 96.0396 39.8991C96.3225 38.5153 96.3225 38.5153 95.191 38.5153C65.1108 38.5153 35.0307 38.5153 4.95055 38.5153C4.52622 38.4576 4.19619 38.4 3.77186 38.6306ZM68.0811 92.3675C68.0811 92.1946 68.1283 92.0793 68.0811 91.9639C66.431 85.6216 64.828 79.3369 63.1778 72.9946C62.9892 72.3027 62.6592 72.3027 62.2348 72.3027C56.1057 72.3027 50.0236 72.3027 43.8944 72.3027C43.2344 72.3027 42.9986 72.591 42.8101 73.3405C42.2443 75.7045 41.6314 78.0684 41.0184 80.3747C40.3584 83.027 40.3584 83.027 38.2367 82.1045C37.7181 81.8738 37.6238 81.6432 37.7653 81.009C38.331 78.991 38.8025 76.9729 39.3211 75.0126C40.0283 72.3027 40.0283 72.3603 37.7181 72.3603C37.1523 72.3603 36.8695 72.591 36.6809 73.2829C35.6436 77.3765 34.6064 81.4702 33.522 85.5639C33.3334 86.2558 33.3805 86.5441 34.0877 86.5441C35.5022 86.4865 36.9637 86.5441 38.3782 86.5441C40.547 86.5441 40.547 86.5441 40.4527 89.1964C40.4527 89.9459 40.2169 90.1189 39.6512 90.1189C37.7653 90.0612 35.8794 90.1189 33.9935 90.1189C32.2961 90.1189 32.2961 90.1189 31.8718 92.0792C31.8718 92.1946 31.8718 92.3099 31.8718 92.4828C43.9887 92.3675 56.0114 92.3675 68.0811 92.3675ZM52.5224 34.8829C55.3513 34.8829 58.1802 34.8252 61.009 34.8829C61.8577 34.8829 62.282 34.7099 61.9991 33.5567C61.8105 32.8072 61.8105 32 61.7162 31.1928C60.6318 22.3711 59.5946 13.4919 58.5573 4.67024C58.463 3.80537 58.1802 3.57474 57.5201 3.57474C52.6167 3.6324 47.7605 3.6324 42.8572 3.57474C41.8671 3.57474 41.5371 3.92069 41.4428 5.07384C40.3112 14.645 39.1325 24.2162 38.001 33.7874C37.9538 34.191 37.5295 34.9982 38.3782 34.8829C38.9439 34.7675 39.8869 35.6324 40.0755 34.1333C40.2641 32.4036 40.4998 30.6738 40.6884 28.9441C41.0184 26.2919 40.9713 26.2919 43.1872 26.7531C43.8473 26.8684 43.8944 27.2144 43.8001 27.8486C43.5644 29.809 43.3287 31.7693 43.0458 33.7297C42.9043 34.5946 42.9986 34.9405 43.8473 34.9405C46.7233 34.8252 49.6464 34.8829 52.5224 34.8829Z" fill="#C8AF84"/>
<path id="Vector_2" d="M26.3083 1.672C27.9114 1.672 27.9114 1.672 27.5813 3.63236C27.3456 5.0738 26.7327 6.28461 26.0255 7.43776C24.5167 9.9747 24.5167 11.9927 25.9783 14.5297C28.3357 18.6233 28.3357 22.1405 25.9312 26.2342C25.4597 27.0414 24.9882 27.8486 24.9411 28.8864C24.9411 29.5206 24.611 29.6936 24.1867 29.636C23.951 29.636 23.6681 29.636 23.3852 29.636C21.8293 29.636 21.735 29.463 22.1122 27.6179C22.3951 26.1765 23.008 24.9657 23.7152 23.8125C25.224 21.2756 25.2711 19.2576 23.7152 16.836C21.405 13.3188 21.405 8.4756 23.7152 5.0738C24.281 4.26659 24.7053 3.28641 24.7525 2.19092C24.7525 1.72965 24.9411 1.55668 25.2711 1.61434C25.6483 1.672 25.9783 1.672 26.3083 1.672Z" fill="#C8AF84"/>
<path id="Vector_3" d="M89.2035 1.67207C91.0422 1.67207 91.0422 1.67207 90.6651 3.69009C90.3822 5.13153 89.7693 6.34234 89.1092 7.49549C87.6476 9.97477 87.6476 12.0504 89.1092 14.4721C91.5137 18.5658 91.5137 22.1405 89.1092 26.1766C88.5906 27.0414 88.1662 27.9063 88.1191 28.9441C88.1191 29.3477 87.9777 29.636 87.6005 29.636C86.9404 29.636 86.2803 29.636 85.6674 29.636C85.2431 29.636 85.196 29.4054 85.2431 28.9441C85.2902 27.0991 85.9032 25.4847 86.799 24.0432C87.459 23.0054 87.9777 21.8523 88.0248 20.4685C88.0719 18.7964 87.4119 17.5279 86.6575 16.2595C85.1017 13.6649 84.8188 10.8396 85.6674 7.78378C85.9503 6.8036 86.4218 5.93874 86.9404 5.13153C87.3176 4.4973 87.7891 3.86306 87.8362 3.05585C87.7891 1.72973 88.3548 1.38378 89.2035 1.67207Z" fill="#C8AF84"/>
<path id="Vector_4" d="M76.4736 1.67204C78.1238 1.67204 78.2181 1.84502 77.8409 3.74772C77.558 5.07385 77.0865 6.28466 76.3321 7.32249C75.2006 8.99457 74.8706 10.8396 75.4363 12.8576C75.5778 13.3189 75.4835 13.4919 75.1535 13.7225C74.8234 13.9531 74.4934 14.1838 74.1162 14.4144C72.8904 15.2216 72.8432 15.2793 72.466 13.5495C71.8531 10.782 72.1832 8.18736 73.5504 5.8234C74.2105 4.67024 74.8706 3.6324 75.012 2.13331C75.2006 1.15313 76.0964 1.96033 76.4736 1.67204Z" fill="#C8AF84"/>
<path id="Vector_5" d="M9.19385 11.1279C9.19385 9.22515 9.61818 7.43776 10.5611 5.88101C11.2212 4.78551 11.9756 3.69001 12.0227 2.19092C12.0227 1.78731 12.2584 1.672 12.5413 1.672C12.9185 1.672 13.2485 1.672 13.6257 1.672C15.1344 1.672 15.1344 1.672 14.8516 3.51704C14.6158 4.95848 14.0972 6.22695 13.3428 7.32245C12.2113 8.99452 11.8813 10.8396 12.447 12.8576C12.5885 13.3188 12.4942 13.4918 12.1641 13.7224C11.8341 13.9531 11.5041 14.1837 11.1269 14.4143C9.94821 15.2215 9.94821 15.2215 9.52388 13.6648C9.28814 12.8576 9.1467 11.9927 9.19385 11.1279Z" fill="#C8AF84"/>
<path id="Vector_6" d="M10.6082 29.6936C9.05232 29.6936 9.05232 29.6936 9.38236 27.7909C9.61809 26.4648 10.0896 25.254 10.7968 24.1585C11.9755 22.4287 12.3527 20.526 11.7397 18.3927C11.5983 17.9314 11.7869 17.7585 12.0698 17.5855C12.5884 17.2395 13.107 16.8936 13.5785 16.5477C14.05 16.1441 14.2857 16.4323 14.4271 16.9513C15.3229 19.9495 15.1344 22.7747 13.6256 25.4269C12.9656 26.5801 12.1641 27.6756 12.1169 29.2323C12.1169 29.5783 11.9283 29.6936 11.6454 29.6936C11.3154 29.6936 10.9382 29.6936 10.6082 29.6936Z" fill="#C8AF84"/>
<path id="Vector_7" d="M73.8333 29.6937C72.136 29.6937 72.136 29.6937 72.466 27.7333C72.7017 26.2919 73.2675 25.0811 74.0219 23.9279C75.1063 22.2558 75.3892 20.4684 74.8705 18.4504C74.7762 18.0468 74.8234 17.8162 75.1534 17.5856C75.5306 17.3549 75.9078 17.0666 76.2378 16.836C77.3694 16.0865 77.4165 16.0288 77.7465 17.5856C78.3595 20.2955 78.1237 22.8324 76.8507 25.1964C76.1435 26.4648 75.3892 27.5603 75.2006 29.1747C75.0591 30.2126 74.2105 29.463 73.8333 29.6937Z" fill="#C8AF84"/>
<path id="Vector_8" d="M76.3789 62.9621C76.3789 61.2324 76.3789 61.3477 77.7933 61.0594C82.4609 60.1945 85.7141 57.1387 87.4114 51.7189C87.7886 50.5657 88.0715 50.1621 89.1087 50.5657C90.8061 51.2 90.8532 51.1423 90.1931 53.1027C87.9772 59.7909 83.9225 63.654 78.0762 64.6918C76.3789 64.9801 76.3789 64.9225 76.3789 62.9621Z" fill="#C8AF84"/>
<path id="Vector_9" d="M92.2208 43.5315C91.9379 45.0306 91.8436 46.5297 91.325 47.7405C90.8064 48.9513 89.8634 47.6252 89.1091 47.6252C88.8262 47.6252 88.3547 47.5675 88.5433 46.8756C88.8262 45.5495 89.1091 44.1657 89.392 42.8396C89.392 42.7819 89.392 42.6666 89.4391 42.6089C90.2878 41.9171 90.9478 42.8396 91.7493 42.8972C92.0794 42.8972 92.4094 43.0702 92.2208 43.5315Z" fill="#C8AF84"/>
<path id="Vector_10" d="M56.8601 14.472C57.2373 14.3567 57.2373 14.8756 57.2845 15.2792C57.7088 18.9117 58.1803 22.6018 58.6046 26.2342C58.6989 27.0991 58.7932 27.9639 58.9346 28.8288C59.0289 29.3477 58.8875 29.5207 58.4632 29.636C56.1529 30.2126 56.1529 30.2702 55.8229 27.5027C55.3043 23.6396 54.88 19.7189 54.3613 15.7982C54.267 15.1639 54.3142 14.818 54.9271 14.7603C55.4929 14.7603 56.1058 14.645 56.8601 14.472Z" fill="#C8AF84"/>
<path id="Vector_11" d="M55.8229 6.5729C56.1058 6.45758 56.2001 6.68821 56.2473 7.09182C56.3887 8.24497 56.5301 9.45578 56.6716 10.6089C56.6716 10.6666 56.7187 10.7819 56.7187 10.8396C56.2001 11.8774 55.2571 11.3008 54.5499 11.6468C54.1728 11.8197 53.8427 11.7044 53.7956 11.0702C53.6541 9.91704 53.5127 8.70623 53.3712 7.55308C53.3241 7.14947 53.4184 6.9765 53.7484 6.91884C54.4556 6.86119 55.1157 6.74587 55.8229 6.5729Z" fill="#C8AF84"/>
</g>
</g>
</g>
</svg>
