<svg width="120" height="83" viewBox="0 0 120 83" fill="none" xmlns="http://www.w3.org/2000/svg">
<g clip-path="url(#clip0_131_703)">
<path d="M0 68.151C0.724346 64.7707 1.38833 61.3904 2.11268 57.9498C3.86318 49.0162 5.61368 40.1429 7.36418 31.2093C7.72636 29.4588 7.42455 27.7083 7.666 25.9578C8.81288 17.4468 14.7887 10.6862 23.1791 8.51315C31.1469 6.46084 39.7787 9.59967 44.7284 16.3602C45.2113 17.0242 45.6942 17.326 46.5392 17.2657C48.833 17.2053 51.1268 17.2053 53.4809 17.2657C54.2052 17.2657 54.4467 17.0846 54.3863 16.3602C54.326 15.2134 54.326 14.0665 54.3863 12.98C54.5674 10.988 55.5936 9.47895 57.4044 8.51315C57.9477 8.21134 58.1288 7.90953 58.1288 7.36627C58.0684 5.79685 58.1288 4.22744 58.1288 2.65802C58.1288 1.20933 58.8531 0.364258 60.0604 0.364258C61.2072 0.364258 61.8712 1.20933 61.8712 2.59766C61.8712 4.16707 61.8712 5.73649 61.8712 7.30591C61.8712 7.84917 61.992 8.21134 62.5352 8.51315C64.6479 9.59967 65.6137 11.4105 65.6137 13.7647C65.6137 14.9115 65.2515 16.4206 65.7948 17.0242C66.4587 17.8089 67.9678 17.2053 69.175 17.2657C70.6841 17.326 72.1328 17.2657 73.6419 17.2657C74.3662 17.2657 74.7284 17.0846 75.1509 16.481C80.5835 9.41858 87.7666 6.46084 96.3984 8.45279C105.03 10.3844 110.282 16.1791 112.153 24.8109C112.274 25.4749 112.455 26.1389 112.394 26.8029C112.213 31.9337 113.783 36.823 114.688 41.7727C116.318 50.4045 118.129 58.9759 119.698 67.6077C120.845 73.8854 117.223 79.9216 111.308 82.0947C105.332 84.2677 98.8129 81.9739 95.493 76.4206C91.328 69.4186 87.2837 62.4166 83.1791 55.4146C82.0926 53.5433 81.006 51.7325 79.9195 49.8612C79.6177 49.318 79.2555 49.1369 78.6519 49.1369C66.2173 49.1369 53.7223 49.1369 41.2877 49.1369C40.503 49.1369 40.2012 49.5594 39.8994 50.1027C34.829 58.7948 29.7586 67.487 24.6278 76.1792C21.9718 80.646 18.0483 83.0001 12.8571 82.9397C6.76056 82.8794 1.38833 78.3522 0.241449 72.3763C0.181087 72.0745 0.0603622 71.7727 0 71.4709C0 70.3844 0 69.2979 0 68.151ZM72.6157 21.1288C72.4346 21.0685 72.3742 21.0685 72.3139 21.0685C64.2857 21.0685 56.1972 21.0685 48.169 21.0685C47.6258 21.0685 47.4447 21.1288 47.4447 21.7325C47.505 22.6983 46.9014 23.3622 45.9356 23.5433C44.9698 23.7244 44.3058 23.2415 43.8229 22.3965C43.6418 22.0946 43.5211 21.7325 43.4004 21.4307C40.2012 14.4286 32.5956 10.5051 25.0503 11.9538C17.505 13.3421 11.7706 19.7405 11.2274 27.3461C10.5634 36.6419 17.8068 44.9719 26.9819 45.3944C36.7002 45.8773 44.668 38.5735 44.9698 28.9759C45.0302 27.4669 45.6942 26.6218 46.841 26.6218C47.9879 26.6218 48.7123 27.5272 48.7123 28.9759C48.6519 33.6842 47.0825 37.8492 44.1851 41.4709C43.0382 42.9196 41.7103 44.1268 40.1408 45.3341C53.4809 45.3341 66.5795 45.3341 79.7384 45.3341C79.1348 43.7043 79.4366 42.6781 80.5835 42.2556C81.4286 41.9538 82.0926 42.3763 82.7565 42.7989C86.3179 45.0323 90.2414 45.8773 94.4064 45.2134C104.125 43.7647 110.463 34.2878 108.229 24.6299C106.117 15.153 96.0966 9.47895 86.8008 12.4971C76.4789 15.817 71.9517 27.648 77.3843 37.1852C78.169 38.5735 78.0483 39.66 77.0221 40.2637C75.996 40.8673 74.9698 40.4447 74.1851 39.1168C72.3742 36.0383 71.4084 32.658 71.2877 29.0967C71.167 26.32 71.7706 23.7244 72.6157 21.1288ZM36.0362 49.1973C33.3803 49.1973 30.9054 49.1973 28.4909 49.1973C23.2998 49.2576 18.7726 47.5675 14.7887 44.3079C12.7968 42.6781 11.2877 40.6862 10.0201 38.4528C9.65795 38.6339 9.65795 38.8753 9.65795 39.0564C7.72636 48.7747 5.85513 58.493 3.92354 68.2113C3.44064 70.6862 3.9839 72.98 5.37223 75.0323C9.29577 80.827 17.6861 80.5252 21.3078 74.4286C26.0765 66.4005 30.7847 58.2516 35.5533 50.2234C35.674 49.982 35.7948 49.6802 36.0362 49.1973ZM83.9638 49.1973C84.2656 49.7405 84.4467 50.0423 84.6278 50.4045C87.1026 54.6299 89.5775 58.7948 92.0523 63.0202C94.3461 66.8834 96.5795 70.8069 98.8732 74.6097C101.288 78.5936 105.996 80.2234 110.282 78.5936C114.567 76.9639 116.982 72.6178 116.137 68.0303C114.628 60.2435 113.058 52.3965 111.549 44.6097C111.127 42.5574 110.704 40.5051 110.282 38.2717C110.04 38.5735 109.92 38.7546 109.799 38.8753C105.453 45.817 99.2354 49.2576 91.0262 49.1369C88.7324 49.1369 86.4386 49.1973 83.9638 49.1973ZM58.1288 15.0926C58.1288 17.326 58.1288 17.326 60.3622 17.326C60.664 17.326 60.9054 17.326 61.2072 17.326C61.6901 17.3864 61.9316 17.2053 61.8712 16.662C61.8109 15.6359 61.8712 14.5494 61.8712 13.5232C61.8109 12.4367 61.0262 11.652 60 11.7123C58.9738 11.7123 58.2495 12.4367 58.1288 13.5836C58.1288 14.0665 58.1288 14.5494 58.1288 15.0926Z" fill="#C8AF84"/>
<path d="M86.2576 26.6822C84.2053 26.6822 82.5151 24.992 82.5151 22.9397C82.5151 20.8874 84.2053 19.1973 86.2576 19.1973C88.3099 19.1973 90.0604 20.8874 90.0604 23.0001C90 25.0524 88.3099 26.6822 86.2576 26.6822Z" fill="#C8AF84"/>
<path d="M101.288 22.9398C101.288 24.9921 99.5975 26.6822 97.6056 26.6822C95.4929 26.6822 93.8027 24.9921 93.8027 22.8794C93.8631 20.8875 95.5532 19.137 97.6056 19.1973C99.5975 19.1973 101.288 20.8875 101.288 22.9398Z" fill="#C8AF84"/>
<path d="M86.318 37.9699C84.2657 37.9699 82.5756 36.3401 82.5152 34.2878C82.4548 32.2355 84.2053 30.4246 86.2576 30.485C88.31 30.485 90.0001 32.1751 90.0001 34.2274C90.0001 36.2194 88.3703 37.9095 86.318 37.9699Z" fill="#C8AF84"/>
<path d="M101.288 34.2274C101.288 36.2798 99.6579 37.9699 97.6056 37.9699C95.5533 37.9699 93.8631 36.3401 93.8028 34.2878C93.7424 32.2355 95.4929 30.4246 97.6056 30.485C99.5976 30.485 101.288 32.1751 101.288 34.2274Z" fill="#C8AF84"/>
<path d="M59.8792 39.8411C58.7323 39.8411 57.5251 39.8411 56.3782 39.8411C55.1709 39.8411 54.3862 39.0564 54.3862 38.0303C54.3862 37.0041 55.1709 36.159 56.3178 36.159C58.7927 36.0987 61.2072 36.0987 63.682 36.159C64.8892 36.159 65.6136 37.0041 65.6136 38.0906C65.6136 39.1772 64.8289 39.9015 63.6216 39.9015C62.4144 39.8411 61.1468 39.8411 59.8792 39.8411Z" fill="#C8AF84"/>
<path d="M26.2576 20.0423C26.2576 19.1369 26.1973 18.2314 26.2576 17.3864C26.318 16.2998 27.1027 15.5151 28.0685 15.5151C29.0946 15.5151 29.9397 16.2998 29.9397 17.4467C30.0001 19.2576 30.0001 21.1288 29.9397 22.9397C29.9397 24.1469 29.155 24.8713 28.0685 24.8713C26.982 24.8713 26.2576 24.0866 26.1973 22.8793C26.2576 21.9135 26.2576 20.9477 26.2576 20.0423Z" fill="#C8AF84"/>
<path d="M19.6782 30.4246C18.7727 30.4246 17.8069 30.4246 16.9015 30.4246C15.815 30.3643 15.0303 29.6399 15.0303 28.6138C15.0303 27.5876 15.7546 26.7425 16.8411 26.7425C18.7727 26.6822 20.644 26.6822 22.5755 26.7425C23.6621 26.8029 24.3864 27.648 24.3864 28.6138C24.3864 29.6399 23.6017 30.4246 22.5152 30.4246C21.5494 30.485 20.644 30.4246 19.6782 30.4246Z" fill="#C8AF84"/>
<path d="M36.5795 30.4246C35.6741 30.4246 34.7083 30.4246 33.8029 30.4246C32.7163 30.3642 31.9316 29.6399 31.9316 28.6137C31.9316 27.5875 32.656 26.7425 33.7425 26.6821C35.6741 26.6218 37.5453 26.6218 39.4769 26.6821C40.5634 26.7425 41.3481 27.5272 41.2878 28.5533C41.2878 29.6399 40.5031 30.3642 39.2958 30.4246C39.2355 30.4246 39.2355 30.4246 39.1751 30.4246C38.33 30.4246 37.4246 30.4246 36.5795 30.4246Z" fill="#C8AF84"/>
<path d="M30.0001 37.0041C30.0001 37.9096 30.0605 38.8754 30.0001 39.7808C29.9398 40.9277 29.2154 41.652 28.1893 41.652C27.1027 41.652 26.318 40.9277 26.2577 39.7204C26.1973 37.9096 26.1973 36.0383 26.2577 34.2275C26.2577 33.0806 27.1027 32.2355 28.1289 32.2959C29.1551 32.2959 29.9398 33.0806 30.0001 34.2878C30.0001 35.1933 30.0001 36.0987 30.0001 37.0041Z" fill="#C8AF84"/>
</g>
<defs>
<clipPath id="clip0_131_703">
<rect width="120" height="82.5755" fill="white" transform="translate(0 0.424561)"/>
</clipPath>
</defs>
</svg>
