<svg width="21" height="20" viewBox="0 0 21 20" fill="none" xmlns="http://www.w3.org/2000/svg">
<path d="M10.1 0C4.59998 0 0.0999756 4.5 0.0999756 10C0.0999756 15.5 4.59998 20 10.1 20C15.6 20 20.1 15.5 20.1 10C20.1 4.5 15.6 0 10.1 0ZM10.1 3.8C11.2 3.8 12.5 6.1 12.6 9.5H7.59998C7.69998 6.1 8.99998 3.8 10.1 3.8ZM8.59998 3.5C7.49998 4.6 6.69998 6.8 6.59998 9.5H3.39998C3.69998 6.6 5.79998 4.1 8.59998 3.5ZM3.39998 10.5H6.59998C6.69998 13.2 7.39998 15.5 8.59998 16.5C5.79998 15.9 3.69998 13.4 3.39998 10.5ZM10.1 16.2C8.99998 16.2 7.69998 13.9 7.59998 10.5H12.6C12.5 13.9 11.2 16.2 10.1 16.2ZM11.6 16.5C12.7 15.4 13.5 13.2 13.6 10.5H16.8C16.6 13.4 14.4 15.9 11.6 16.5ZM13.6 9.5C13.5 6.8 12.8 4.5 11.6 3.5C14.4 4.2 16.5 6.6 16.8 9.5H13.6Z" fill="#C8AF84"/>
</svg>
