<svg width="76" height="76" viewBox="0 0 76 76" fill="none" xmlns="http://www.w3.org/2000/svg">
<path d="M75.385 31.4439C73.3936 20.711 67.8585 12.2592 58.7506 6.20553C52.0149 1.73107 44.5177 -0.199094 36.464 0.0641099C21.6747 0.590518 7.88099 10.3876 2.75595 24.3081C-1.90051 36.9127 -0.43621 48.9323 7.35384 59.9284C13.2696 68.3217 21.4989 73.3225 31.6319 75.165C33.0376 75.4282 34.4726 75.4574 35.8783 75.7206H40.3298C41.7355 75.4574 43.1705 75.3989 44.5762 75.165C51.8977 73.8782 58.3113 70.749 63.7878 65.6896C70.4357 59.5482 74.36 51.9445 75.6486 43.0248C75.795 42.0598 75.8829 41.0947 76 40.1004V35.6551C75.7072 34.2806 75.6486 32.8476 75.385 31.4439ZM57.2863 53.0266C55.9392 54.3426 54.6799 55.7756 52.9227 56.6237C50.5213 57.7643 48.0613 57.969 45.5134 57.2379C38.8362 55.2785 33.3012 51.4766 28.4397 46.622C24.7497 42.9079 21.7039 38.7258 19.6246 33.8712C18.8046 31.9703 18.0432 30.0401 18.1018 27.3203C18.1603 25.3902 18.9804 23.1383 20.7375 21.2959C21.5282 20.4185 22.3775 19.5704 23.2268 18.7516C24.0761 17.9327 24.9254 17.9327 25.7747 18.7516C28.059 21.0034 30.314 23.2553 32.569 25.5364C33.4183 26.4137 33.4183 27.2619 32.569 28.11C31.339 29.3675 30.0504 30.625 28.8204 31.8825C27.2976 33.4325 27.1804 35.0995 28.469 36.8542C31.6026 41.0654 35.2926 44.6626 39.5683 47.704C41.1791 48.8446 42.9069 48.7276 44.3127 47.3238C45.5134 46.154 46.6555 44.9258 47.8563 43.756C48.9106 42.7031 49.7306 42.6739 50.7556 43.7267C52.952 45.8908 55.1192 48.0842 57.2863 50.2483C58.282 51.2134 58.282 52.0323 57.2863 53.0266Z" fill="#C8AF84"/>
<path d="M57.2863 53.0266C55.9392 54.3427 54.6799 55.7757 52.9227 56.6238C50.5213 57.7643 48.0613 57.969 45.5134 57.2379C38.8362 55.2785 33.3012 51.4767 28.4397 46.622C24.7497 42.9079 21.7039 38.7259 19.6246 33.8712C18.8046 31.9703 18.0432 30.0402 18.1018 27.3204C18.1603 25.3902 18.9804 23.1384 20.7375 21.2959C21.5282 20.4186 22.3775 19.5705 23.2268 18.7516C24.0761 17.9328 24.9254 17.9328 25.7747 18.7516C28.059 21.0035 30.314 23.2553 32.569 25.5364C33.4183 26.4138 33.4183 27.2619 32.569 28.11C31.339 29.3675 30.0504 30.6251 28.8204 31.8826C27.2976 33.4326 27.1804 35.0995 28.469 36.8542C31.6026 41.0655 35.2926 44.6626 39.5683 47.7041C41.1791 48.8446 42.9069 48.7276 44.3127 47.3239C45.5134 46.1541 46.6555 44.9258 47.8563 43.756C48.9106 42.7032 49.7306 42.6739 50.7556 43.7268C52.952 45.8909 55.1192 48.0842 57.2863 50.2484C58.2821 51.2135 58.2821 52.0323 57.2863 53.0266Z" fill="white"/>
</svg>
