<svg width="20" height="20" viewBox="0 0 20 20" fill="none" xmlns="http://www.w3.org/2000/svg">
<path d="M10 0C4.5 0 0 4.5 0 10C0 15.5 4.5 20 10 20C15.5 20 20 15.5 20 10C20 4.5 15.5 0 10 0ZM4.9 4.9H15.1C15.3 4.9 15.5 4.9 15.7 5L15.6 5.1L11 10.3C10.7 10.6 10.4 10.8 10 10.8C9.6 10.8 9.2 10.6 9 10.3L4.3 5C4.5 4.9 4.7 4.9 4.9 4.9ZM16.7 13.6C16.7 14.5 16 15.2 15.1 15.2H4.9C4 15.2 3.3 14.5 3.3 13.6V6.4C3.3 6.1 3.4 5.8 3.5 5.6L8.1 10.9C8.6 11.4 9.2 11.7 9.9 11.7C10.6 11.7 11.2 11.4 11.7 10.9L16.3 5.7C16.3 5.7 16.4 5.6 16.4 5.5C16.6 5.7 16.6 6 16.6 6.3V13.6H16.7Z" fill="#C8AF84"/>
</svg>
