<svg width="30" height="30" viewBox="0 0 30 30" fill="none" xmlns="http://www.w3.org/2000/svg">
<g id="&#240;&#159;&#166;&#134; icon &#34;facebook icon&#34;">
<path id="Vector" d="M29.9665 14.9833C29.9665 6.70595 23.255 0 14.9833 0C6.70595 0 0 6.70595 0 14.9833C0 22.4599 5.47732 28.6592 12.6421 29.782V19.3153H8.83731V14.9842H12.6421V11.6813C12.6421 7.92708 14.8756 5.85377 18.2992 5.85377C19.939 5.85377 21.6555 6.14595 21.6555 6.14595V9.83277H19.7629C17.905 9.83277 17.3244 10.9893 17.3244 12.1739V14.9833H21.4794L20.8117 19.3144H17.3244V29.7811C24.4836 28.6583 29.9665 22.459 29.9665 14.9823V14.9833Z" fill="#C8AF84"/>
</g>
</svg>
