<svg width="27" height="30" viewBox="0 0 27 30" fill="none" xmlns="http://www.w3.org/2000/svg">
<g id="&#240;&#159;&#166;&#134; icon &#34;tiktok&#34;">
<path id="Vector" d="M14.5556 0.0248181C16.1811 0 17.7943 0.012409 19.4075 0C19.5068 1.89858 20.1893 3.83439 21.5791 5.17456C22.9689 6.55197 24.9295 7.18483 26.8405 7.39578V12.3966C25.0536 12.3346 23.2543 11.9623 21.6287 11.1929C20.9214 10.8703 20.2637 10.4608 19.6184 10.0389C19.606 13.6623 19.6308 17.2858 19.5936 20.8968C19.4944 22.6341 18.9235 24.3589 17.9184 25.786C16.2928 28.1685 13.476 29.7196 10.5847 29.7693C8.81018 29.8685 7.03569 29.3846 5.52178 28.4911C3.01516 27.0145 1.25308 24.3093 0.99249 21.4056C0.967672 20.7851 0.955263 20.1647 0.980081 19.5566C1.20344 17.1989 2.36989 14.9405 4.18161 13.4018C6.24151 11.6149 9.1204 10.7586 11.8132 11.2674C11.838 13.1039 11.7635 14.9405 11.7635 16.777C10.535 16.3799 9.09558 16.4916 8.016 17.2361C7.23423 17.7449 6.6386 18.5267 6.32837 19.4077C6.06778 20.0406 6.14224 20.7355 6.15465 21.4056C6.45246 23.4407 8.41309 25.1531 10.4978 24.967C11.8876 24.9546 13.2154 24.148 13.9351 22.9691C14.1709 22.5596 14.4315 22.1377 14.4439 21.6538C14.568 19.4325 14.5183 17.2237 14.5307 15.0025C14.5431 10.0017 14.5183 5.01325 14.5556 0.0248181Z" fill="#C8AF84"/>
</g>
</svg>
