<svg width="90" height="112" viewBox="0 0 90 112" fill="none" xmlns="http://www.w3.org/2000/svg">
<g clip-path="url(#clip0_131_706)">
<path d="M64.3979 112C63.6119 111.663 63.2189 110.989 62.882 110.259C58.4466 99.8166 54.0111 89.3736 49.5195 78.9307C47.4983 74.1584 43.9612 71.2389 38.852 70.2844C38.1222 70.1721 37.3923 70.1721 36.6624 70.0599C35.4272 69.9476 34.8096 69.33 34.8658 68.3194C34.9219 67.3649 35.5956 66.8035 36.7747 66.8035C38.852 66.8035 40.8733 67.2526 42.7822 67.9825C43.119 67.7018 42.9506 67.4211 43.0068 67.1403C43.0068 65.7367 42.8945 64.277 43.0629 62.8733C43.2313 61.1328 42.8945 59.9538 40.9855 59.3924C39.9188 59.1116 39.5819 57.9887 40.0311 57.0904C40.4802 56.2483 41.3786 56.0237 42.3892 56.4728C45.6456 57.9887 49.0142 59.2239 52.6075 59.7854C56.0885 60.3468 57.829 59.5608 59.5694 56.4728C60.2993 55.1815 60.8046 53.7779 61.3661 52.3743C61.6468 51.6444 61.5907 51.3075 60.7485 51.1391C58.8957 50.6899 57.2114 49.7916 55.9762 48.3318C55.0779 47.3212 55.0217 46.3668 55.8078 45.6369C56.5376 44.9632 57.4921 45.1316 58.3343 46.0861C59.2887 47.1528 60.5239 47.7143 61.8714 48.1073C62.3767 48.2757 62.6574 48.1073 62.8258 47.5458C63.0504 46.4791 63.3311 45.4123 63.5557 44.3456C63.7803 43.4473 64.2856 42.8858 65.2401 42.7735C66.0261 42.7174 66.756 42.5489 67.3736 42.0998C68.3842 41.426 68.4965 40.64 67.7666 39.6856C67.3174 39.1241 66.8121 38.5627 66.363 38.0574C64.2295 35.6993 63.3311 33.0043 63.8926 29.8602C64.0049 29.1865 63.7803 28.7935 63.1627 28.4566C61.6468 27.6144 59.9625 27.3337 58.222 27.2214C57.6044 27.1653 56.9868 27.2214 56.3692 27.2214C55.134 27.2214 54.4603 26.66 54.4603 25.6494C54.4603 24.6949 55.0779 24.0212 56.2008 23.965C58.7834 23.8527 61.3661 24.1335 63.7803 25.1441C64.0049 25.2564 64.2295 25.3125 64.5102 25.4248C65.0716 20.7648 64.6786 16.3855 62.1521 12.3992C62.0398 12.4554 61.9275 12.4554 61.9275 12.5115C59.794 17.4522 55.527 19.4173 50.6986 20.1472C48.6774 20.4841 47.6106 21.0455 46.8807 23.0667C45.4771 26.8284 43.119 29.9725 40.3118 32.892C39.3012 33.9027 38.4029 33.9027 37.4484 32.7798C36.3255 31.4884 35.1465 31.0954 33.799 31.5446C32.4515 31.9937 31.4971 33.3412 31.4409 34.9133C31.2725 38.4504 33.8552 41.3138 37.3923 41.6506C39.1889 41.8191 39.8627 42.3244 39.7504 43.5034C39.6381 44.6263 38.9082 45.0193 37.1677 44.907C35.0903 44.7386 33.2376 44.0648 31.7217 42.7174C31.2164 42.2682 30.9356 42.3244 30.4865 42.7174C29.139 43.8403 27.6792 44.7947 26.1633 45.693C25.8826 45.8615 25.4896 45.9738 25.658 46.4791C26.9494 51.5321 25.9388 56.4728 24.7036 61.4136C24.3667 62.8733 23.9737 64.277 23.4684 65.6806C23.1315 66.6912 23.4122 66.8596 24.3667 66.8035C26.1072 66.7473 27.8477 66.7473 29.5882 66.8035C30.8795 66.8035 31.6094 67.4772 31.6094 68.4317C31.6094 69.4423 30.8234 70.0599 29.5882 70.0599C27.4547 70.0599 25.3773 70.116 23.2438 70.0599C22.4016 70.0599 22.1209 70.3406 21.8402 71.1266C17.8539 83.4223 19.1452 95.3811 23.5245 107.284C23.7491 107.901 24.0298 108.519 24.2544 109.08C24.872 110.596 24.8159 110.933 23.6368 112C23.3 112 22.9069 112 22.5701 112C21.9525 111.663 21.5595 111.102 21.2787 110.428C17.6293 101.669 15.8889 92.5177 16.2257 83.0293C16.3942 78.1447 17.7416 73.4285 19.1452 68.7685C20.4927 64.3331 21.9525 60.0099 22.6262 55.4061C22.9631 53.048 23.1315 50.7461 22.7385 48.3318C22.6262 47.5458 22.4016 47.3774 21.6156 47.6581C17.4609 49.174 13.1939 49.6232 8.92691 47.995C4.04232 46.1983 0.898211 42.6051 0.168329 37.2713C-0.561552 32.2183 1.06664 27.9513 5.22135 24.8072C7.46714 23.0667 10.1059 22.2246 12.9132 22.1684C13.5869 22.1684 13.9238 22 14.0361 21.2139C14.9344 12.2869 19.7067 6.2233 27.9038 2.85462C35.2026 -0.177196 42.7822 -0.289486 50.474 1.451C51.653 1.73172 52.1583 2.46161 51.9899 3.47221C51.7653 4.48282 50.9232 4.87583 49.688 4.59511C42.7822 3.13534 35.9887 3.13534 29.4197 5.77414C20.7734 9.14283 16.3942 16.4416 17.2363 25.7055C17.5732 29.1865 18.6961 32.4429 20.3243 35.4747C21.5595 37.7766 22.8508 40.0224 24.086 42.3244C24.3106 42.7174 24.479 42.8297 24.872 42.6051C26.2195 41.7629 27.4547 40.9207 28.6898 39.9101C29.139 39.5733 29.0829 39.2364 28.9144 38.7872C28.2968 37.1029 28.0161 35.3624 28.353 33.5658C29.2513 28.9619 34.2482 26.7161 38.2345 29.0742C38.852 29.4111 39.1328 29.4111 39.5258 28.8496C41.9962 25.8178 43.9612 22.5614 44.9718 18.7997C45.2525 17.8453 45.814 17.3961 46.8246 17.34C49.5757 17.2277 52.2145 16.7785 54.741 15.4872C57.0429 14.3081 58.7273 12.6238 59.2326 9.92885C59.3449 9.31126 59.2326 8.97439 58.7273 8.63753C57.7167 7.90764 56.7061 7.23391 55.5832 6.67246C54.5164 6.11101 54.1234 5.15655 54.6287 4.25824C55.0779 3.41607 56.0323 3.24763 57.0991 3.75293C64.8471 7.57078 68.8895 15.2626 67.935 24.1896C67.7104 26.1547 67.3736 28.0636 67.0367 30.0287C66.6437 32.2183 67.149 34.1272 68.6649 35.7554C69.2825 36.4292 69.9001 37.1029 70.4054 37.8328C72.4266 40.64 71.2476 44.1771 67.7104 45.4123C66.5875 45.8053 66.1945 46.3668 65.9699 47.4335C65.1839 50.8022 64.2295 54.1148 62.6574 57.2027C62.2644 57.9887 62.7136 57.9326 63.2189 57.9326C65.7454 57.8764 68.1034 58.3256 70.4054 59.3924C71.5844 59.9538 72.0336 60.7398 71.5844 61.6943C71.1914 62.6488 70.2931 62.8733 69.1141 62.368C60.8608 58.9432 52.2706 63.5471 50.5301 72.3056C50.3617 73.2601 50.3617 74.1023 50.9793 75.0006C51.9338 76.4042 52.4952 78.0324 53.1689 79.6045C53.562 80.5028 54.0111 80.5589 54.6287 79.829C54.6849 79.7729 54.741 79.6606 54.7971 79.5483C55.527 78.5377 56.3692 78.257 57.1552 78.7623C57.9974 79.2676 58.1658 80.2782 57.4921 81.3449C56.9868 82.1871 56.2569 82.8608 55.3024 83.2539C54.8533 83.4223 54.7971 83.6469 54.9656 84.096C55.6955 85.7804 56.4253 87.4647 57.1552 89.2052C57.3798 89.7667 57.8851 89.9912 58.3904 90.2158C61.2538 91.3387 64.0049 90.7211 66.756 89.5982C67.149 89.4298 67.149 89.1491 67.149 88.8122C67.4297 86.0611 68.7772 83.9837 71.1353 82.524C72.8757 81.4572 74.6162 80.3905 76.3567 79.3237C77.4235 78.65 78.0972 77.6955 78.0411 76.3481C77.9849 75.7305 77.7603 75.1129 77.1427 74.8322C76.5813 74.5514 76.1321 74.8883 75.683 75.2813C74.9531 75.8989 73.9986 75.8428 73.4372 75.2252C72.8196 74.5514 72.8196 73.6531 73.5495 72.8671C74.3355 72.0249 75.4023 71.5758 76.5252 71.4073C76.0199 69.2177 75.0093 67.3649 73.5495 65.7367C73.0442 65.1191 72.8758 64.4454 73.3249 63.7155C73.7179 63.0418 74.3355 62.8172 75.1215 62.9856C75.6268 63.0979 75.9076 63.4348 76.2444 63.8278C78.3218 66.2982 79.6131 69.1615 80.0623 72.3618C80.1184 72.6987 80.1184 73.0355 80.2869 73.3162C81.2413 74.6637 81.5782 76.1235 81.2413 77.7517C81.129 78.2008 81.2413 78.3693 81.7466 78.4816C84.7784 79.1553 86.5751 81.1204 87.5295 83.9837C88.8209 87.8016 89.1577 91.7879 89.4384 95.7741C89.7192 100.49 89.7192 105.206 89.7753 109.923C89.7753 110.877 89.4946 111.607 88.5963 112.056C88.2594 112.056 87.8664 112.056 87.5295 112.056C86.6312 111.439 86.4628 110.596 86.4628 109.586C86.4628 106.161 86.4066 102.736 86.3505 99.3674C86.2943 97.5146 86.4066 97.8515 84.8346 97.8515C81.8589 97.8515 78.8832 97.8515 75.9076 97.8515C72.4827 97.8515 69.8439 96.504 68.2157 93.4161C67.935 92.8546 67.6543 92.8546 67.0928 93.0792C65.3524 93.7529 63.5557 94.0898 61.6468 94.1459C60.9169 94.1459 60.187 94.0898 59.3449 94.0336C59.5133 94.4828 59.6817 94.8197 59.794 95.1565C61.8152 99.8727 63.7803 104.589 65.8015 109.249C66.4191 110.709 66.2507 111.27 64.8471 112.112C64.8471 112 64.6225 112 64.3979 112ZM14.8782 45.8053C16.6749 45.8615 18.6961 45.3 20.6612 44.6263C21.3349 44.4017 21.3349 44.121 21.0542 43.5595C20.1559 41.9313 19.2575 40.3032 18.3592 38.7311C16.0573 34.801 14.2607 30.7024 13.9799 26.0985C13.9238 25.5371 13.6992 25.3687 13.1378 25.3687C6.96184 25.3125 2.18954 31.1516 3.42472 37.2713C4.49147 42.4367 8.81462 45.7492 14.8782 45.8053ZM80.3991 94.539C82.0835 94.539 83.7117 94.539 85.396 94.539C85.9575 94.539 86.2382 94.4267 86.1821 93.7529C85.9013 90.5527 85.5645 87.4086 84.3854 84.3768C83.2625 81.6257 80.6237 80.7273 78.0411 82.2433C76.4129 83.1977 74.8408 84.2083 73.2126 85.1628C71.023 86.5103 70.2369 88.5315 70.8545 90.8334C71.4721 93.1353 73.2688 94.4267 75.7953 94.4828C77.3673 94.5389 78.8832 94.539 80.3991 94.539ZM47.7229 70.7336C48.3966 67.7579 49.8564 65.2876 51.9338 62.9856C50.2494 62.6488 48.6774 62.368 47.1615 61.8066C46.4877 61.582 46.2631 61.6381 46.3193 62.4242C46.3754 64.4454 46.4316 66.4666 46.3193 68.4878C46.2631 69.6668 46.6562 70.2844 47.7229 70.7336Z" fill="#C8AF84"/>
<path d="M41.7156 112C41.1542 111.663 40.7612 111.158 40.4805 110.54C38.4592 105.712 36.3819 100.939 34.3607 96.1672C34.0238 95.4373 33.8554 94.7074 34.473 94.0337C35.3151 93.023 36.7188 93.3599 37.3363 94.7074C38.4592 97.3462 39.5821 99.985 40.705 102.624C41.6033 104.813 42.5578 106.947 43.4561 109.137C44.0737 110.652 44.0176 110.989 42.8385 112.056C42.4455 112 42.0525 112 41.7156 112Z" fill="#C8AF84"/>
<path d="M64.6227 79.3798C63.949 79.3798 63.3314 79.2675 62.7138 78.9868C61.9278 78.5377 61.5347 77.8639 61.8716 76.9656C62.2085 76.1234 62.8822 75.6743 63.7805 75.955C64.8473 76.2919 65.5772 76.0112 66.1386 75.0567C66.5878 74.2707 67.3738 74.1022 68.216 74.4952C69.002 74.8883 69.2827 75.7304 68.9458 76.6287C68.3283 78.2569 66.4755 79.3798 64.6227 79.3798Z" fill="#C8AF84"/>
<path d="M61.1975 87.5208C59.9623 87.5208 59.2324 86.8471 59.1763 85.8926C59.1763 84.9382 59.7939 84.3767 60.9729 84.2645C61.7589 84.2083 62.4327 83.9276 63.0503 83.4784C63.8924 82.8608 64.7907 82.917 65.3522 83.6469C65.9136 84.3206 65.8013 85.2751 65.0715 86.0049C63.9486 87.0155 62.6011 87.4086 61.1975 87.5208Z" fill="#C8AF84"/>
<path d="M57.0992 37.7767C55.0218 37.6644 53.3936 37.0468 52.0462 35.7555C51.3163 34.9695 51.2601 34.015 51.8777 33.3413C52.4953 32.6675 53.4498 32.6114 54.1797 33.3413C55.2464 34.3519 56.4254 34.6326 57.8852 34.408C58.952 34.1834 59.738 34.7449 59.9064 35.6993C60.0748 36.5415 59.5134 37.3275 58.5028 37.6083C57.9975 37.7206 57.436 37.7767 57.0992 37.7767Z" fill="#C8AF84"/>
</g>
<defs>
<clipPath id="clip0_131_706">
<rect width="90" height="111.672" fill="white" transform="translate(0 0.328125)"/>
</clipPath>
</defs>
</svg>
