<svg width="100" height="95" viewBox="0 0 100 95" fill="none" xmlns="http://www.w3.org/2000/svg">
<g id="Group">
<g id="Group_2">
<g id="Group_3">
<path id="Vector" d="M1.76802e-05 84.4065C0.35213 83.5513 0.603639 82.6962 1.25756 81.992C2.2636 80.8853 3.52114 80.2817 5.0302 80.2817C8.14891 80.2817 11.2676 80.2817 14.3863 80.2817C14.6881 80.2817 15.0403 80.2817 15.3924 80.2817C15.2918 80.1308 15.2918 80.0302 15.2415 79.9799C10.7143 76.1067 8.80283 71.1268 9.20525 65.2415C9.65796 58.6016 11.9215 52.7163 16.0966 47.5352C16.2475 47.334 16.3984 47.1328 16.6499 46.9819C17.2535 46.5292 17.9075 46.5292 18.4608 47.0322C19.0141 47.4849 19.165 48.0886 18.8129 48.7928C18.662 49.0946 18.4105 49.3964 18.2093 49.6479C14.0342 55.0302 11.9718 61.167 12.1731 67.9578C12.324 73.3904 16.4487 78.6721 21.6801 80.1811C21.9316 80.2817 22.2334 80.332 22.5352 80.332C28.9236 80.332 35.3119 80.332 41.7002 80.332C41.8008 80.332 41.9517 80.332 42.1026 80.2817C42.0523 80.1811 42.0523 80.0302 42.002 79.9799C38.7827 76.9618 37.6761 73.0383 37.3743 68.8129C37.324 68.0081 37.324 67.2033 37.324 66.3481C37.3743 64.2857 38.4809 63.0282 40.5433 62.9779C43.159 62.8773 45.7244 63.1791 48.2395 63.9839C48.8431 64.1852 49.1449 64.1348 49.4467 63.5312C50.6036 61.167 52.2636 59.155 54.1751 57.3441C55.6841 55.9357 57.3441 55.9357 58.8531 57.3441C60.7646 59.155 62.3743 61.167 63.5815 63.5312C63.6821 63.7827 63.7324 64.1852 64.1348 64.1348C64.5372 64.0342 64.3863 63.6318 64.3863 63.3803C64.3863 60.8652 64.3863 58.2998 64.3863 55.7847C64.3863 55.0805 64.336 54.326 64.6378 53.6721C64.7887 53.32 64.6378 53.0685 64.4366 52.7666C60.8149 46.7807 55.6841 42.6057 49.0443 40.3421C48.6922 40.2415 48.2897 40.1912 47.8873 40.1912C42.7565 40.1912 37.6761 40.1912 32.5453 40.1912C31.4889 40.1912 30.5835 40.5936 29.6278 40.9457C27.6157 41.7505 25.7545 42.7566 23.994 44.0141C23.1892 44.5674 22.4346 44.5171 21.8813 43.9135C21.2274 43.2093 21.3783 42.3039 22.2837 41.6499C23.6922 40.6439 25.2012 39.7385 26.8109 38.9839C27.2636 38.7827 27.5151 38.6318 27.1127 38.0282C25.8048 36.0664 26.0564 33.8029 27.7163 32.1429C28.1187 31.7405 28.169 31.489 27.9678 30.9859C27.3139 29.5272 27.4648 28.0684 28.3702 26.7103C28.6217 26.3079 28.6217 26.1067 28.3702 25.7043C26.9618 23.491 27.4145 21.0262 29.5272 19.5171C29.9799 19.2153 30.0805 18.8632 30.0805 18.4105C30.0805 15.493 30.0302 12.6258 30.0805 9.70828C30.2817 4.6781 34.1046 0.653957 39.2354 0.0503354C43.9638 -0.502985 48.5916 2.71633 49.8994 7.3944C50.2012 8.45074 50.2515 9.55738 50.2515 10.664C50.2515 13.1791 50.2515 15.7445 50.2515 18.2596C50.2515 18.8129 50.3521 19.165 50.8551 19.5674C52.8672 20.9759 53.3199 23.5413 52.0121 25.6037C51.7103 26.0564 51.7103 26.3079 52.0121 26.8109C52.9175 28.1187 52.9678 29.5272 52.3642 30.9859C52.163 31.3884 52.1127 31.6902 52.5151 32.0423C54.2757 33.8029 54.5272 35.9658 53.169 38.0785C52.8672 38.5815 53.0181 38.6821 53.4205 38.8833C59.0543 41.5996 63.5312 45.6741 66.8008 51.0564C66.9014 51.2576 67.002 51.4588 67.2535 51.5091C69.5171 51.8109 71.7304 52.6157 74.0946 52.5151C75.8551 52.4648 77.5654 52.2636 79.2757 51.7606C82.0926 50.9558 83.9537 52.3642 83.9537 55.2817C83.9537 57.3944 83.9537 59.5071 83.9537 61.6198C83.9537 62.7264 83.4507 63.33 82.5453 63.3803C81.6399 63.4306 81.0362 62.7767 81.0362 61.6198C81.0362 59.5071 81.0362 57.3944 81.0362 55.2817C81.0362 54.5775 80.8853 54.2757 80.0805 54.5272C76.1067 55.6841 72.1328 55.6841 68.159 54.5272C67.3038 54.2757 67.2032 54.5775 67.2032 55.2817C67.2032 57.6459 67.2535 60.0101 67.2032 62.4246C67.2032 63.1288 67.4547 63.2294 68.0584 63.1288C69.4165 62.8773 70.825 62.827 72.2334 62.8773C74.3964 62.9779 75.503 64.1348 75.5533 66.2475C75.6036 68.3099 75.503 70.3723 75 72.334C74.8491 72.8874 74.9497 73.1389 75.6036 73.1389C77.163 73.0886 78.7224 73.0886 80.2817 73.1389C80.8853 73.1389 81.0362 72.9377 81.0362 72.334C80.9859 71.4789 81.0362 70.6238 81.0362 69.8189C81.0362 68.662 81.5895 68.0081 82.495 68.0081C83.4004 68.0081 83.9537 68.6117 83.9537 69.7686C83.9537 70.6238 84.004 71.5292 83.9537 72.3843C83.9537 72.9377 84.1046 73.1389 84.658 73.1389C85.9155 73.0886 87.1227 73.1389 88.3803 73.1389C90.6439 73.1892 92.002 75.1006 91.2475 77.2133C90.8954 78.2194 90.3421 79.0745 89.7887 79.9296C89.99 80.2314 90.2918 80.1308 90.493 80.1308C91.8511 80.1308 93.159 80.1308 94.5171 80.1308C98.1388 80.1308 100.402 82.8471 99.7988 86.4688C98.9437 91.5493 95.0704 94.8189 89.8391 94.8189C67.1026 94.8189 44.3159 94.8189 21.5795 94.8189C17.7566 94.8189 13.9839 94.8189 10.161 94.8189C4.82899 94.8189 1.25756 92.0021 0.0503195 86.7707C1.76877e-05 86.6701 -0.0502841 86.5191 -0.100586 86.4185C1.76802e-05 85.8149 1.76802e-05 85.1107 1.76802e-05 84.4065ZM50.1006 83.1992C35.2616 83.1992 20.4226 83.1992 5.58352 83.1992C3.57145 83.1992 2.66601 84.2556 3.01813 86.2676C3.57145 89.7385 6.33805 92.002 10.0604 92.002C36.7203 92.002 63.3803 92.002 90.0403 92.002C90.2918 92.002 90.493 92.002 90.7445 92.002C93.8632 91.8511 96.328 89.6882 97.0322 86.6701C97.4346 84.8089 96.8813 83.1992 94.2153 83.1992C79.4769 83.2495 64.7887 83.1992 50.1006 83.1992ZM40.1409 18.7626C42.3038 18.7626 44.4165 18.7626 46.5795 18.7626C47.1328 18.7626 47.3843 18.6117 47.3843 18.0081C47.334 15.2918 47.4346 12.5252 47.334 9.80889C47.1831 5.83504 43.9638 2.86724 40.0403 2.91754C36.167 3.01814 33.0986 6.18716 33.0483 10.1107C32.998 12.7264 33.0483 15.2918 33.0483 17.9075C33.0483 18.6117 33.2998 18.7626 33.9537 18.7626C35.9658 18.7123 38.0785 18.7626 40.1409 18.7626ZM62.173 69.5674C62.173 69.3159 62.1227 68.9135 62.1227 68.5111C62.1227 68.3099 62.0724 68.1087 62.0221 67.9578C61.3682 64.5373 59.3058 61.9719 56.8914 59.6077C56.5392 59.2556 56.2877 59.3562 55.9859 59.658C54.2757 61.3179 52.7666 63.0785 51.7606 65.2415C50.8048 67.2536 50.4527 69.3662 50.9054 71.5795C51.5594 75 53.6217 77.5654 56.0362 79.8793C56.4386 80.2314 56.6399 80.0805 56.8914 79.7787C57.7968 78.9236 58.6016 78.0182 59.3562 77.0121C61.0664 74.8491 62.173 72.4849 62.173 69.5674ZM60.7143 80.1811C64.6378 80.6338 67.8069 79.4266 70.171 76.4085C72.4849 73.4407 72.7867 69.9195 72.6861 66.3481C72.6861 65.9457 72.3843 65.8954 72.0825 65.8954C69.8189 65.8954 67.5553 66.0966 65.3421 66.8511C64.9396 67.002 64.8391 67.2033 64.8894 67.656C65.493 71.0765 64.6378 74.2455 62.7767 77.1127C62.2234 78.1188 61.4688 79.1248 60.7143 80.1811ZM52.2636 80.1811C51.8109 79.5775 51.4085 79.0745 51.0061 78.5715C48.6419 75.2515 47.2334 71.6801 47.9879 67.5554C48.0885 67.0524 47.7364 66.9517 47.3843 66.8511C45.2716 66.1469 43.0584 65.9457 40.8451 65.9457C40.2415 65.9457 40.1409 66.1972 40.1409 66.7002C40.0906 68.4105 40.2415 70.1208 40.5936 71.831C41.8008 77.4145 46.6801 80.9859 52.2636 80.1811ZM40.2415 33.7526C37.2737 33.7526 34.3059 33.7526 31.3883 33.7526C30.0302 33.7526 29.326 34.3059 29.2757 35.4125C29.2254 36.5192 29.9799 37.2234 31.338 37.2234C37.2737 37.2234 43.159 37.2234 49.0946 37.2234C50.3521 37.2234 51.157 36.5191 51.157 35.5131C51.157 34.4568 50.3521 33.7526 49.0443 33.7526C46.0765 33.7526 43.159 33.7526 40.2415 33.7526ZM70.6237 80.2817C75.2515 80.2817 79.5775 80.2817 83.9034 80.2817C85.9658 80.2817 88.1791 78.32 88.5312 76.2073C83.7525 76.2073 78.9739 76.2073 74.1952 76.2073C73.9437 76.2073 73.7928 76.2576 73.6419 76.5091C72.8873 77.8169 71.9819 79.0242 70.6237 80.2817ZM40.2415 24.7988C42.7566 24.7988 45.3219 24.7988 47.837 24.7988C49.1449 24.7988 49.8491 24.2455 49.8491 23.1892C49.8491 22.1831 49.1449 21.6801 47.8873 21.6801C42.7565 21.6801 37.6761 21.6801 32.5453 21.6801C31.2374 21.6801 30.4829 22.2837 30.5332 23.2395C30.5835 24.1952 31.2877 24.7485 32.5453 24.7485C35.1107 24.7988 37.6761 24.7988 40.2415 24.7988ZM40.2918 27.7163C37.6761 27.7163 35.0604 27.7163 32.495 27.7163C31.2877 27.7163 30.5332 28.32 30.5332 29.2757C30.5332 30.1811 31.2877 30.835 32.4447 30.835C37.6761 30.835 42.8572 30.835 48.0885 30.835C49.2455 30.835 49.8994 30.2314 49.8994 29.2254C49.8994 28.2697 49.2455 27.7163 48.0382 27.7163C45.4226 27.7163 42.8572 27.7163 40.2918 27.7163Z" fill="#C8AF84"/>
<path id="Vector_2" d="M80.5331 42.3541C80.5331 46.5795 78.3199 49.497 75.3017 50.0503C71.8812 50.6539 68.6116 48.2394 68.008 44.6177C67.7062 42.7062 68.0583 40.9457 68.6619 39.1851C69.517 36.7706 70.8249 34.507 72.3339 32.4447C73.2394 31.2374 74.9496 30.9859 75.8048 32.1429C78.2696 35.3622 80.2313 38.8833 80.5331 42.3541ZM77.6156 42.9577C77.3641 40.0905 75.9557 37.6258 74.4466 35.2113C74.0945 34.6579 73.9436 35.1107 73.7927 35.3622C72.9376 36.67 72.183 38.0282 71.6297 39.4869C71.177 40.5936 70.8249 41.7505 70.7746 42.9577C70.674 45.0704 72.0321 46.9316 73.8933 47.1831C75.4527 47.3843 77.0623 46.0765 77.515 44.2656C77.5653 43.8632 77.5653 43.4608 77.6156 42.9577Z" fill="#C8AF84"/>
</g>
</g>
</g>
</svg>
