<svg width="80" height="86" viewBox="0 0 80 86" fill="none" xmlns="http://www.w3.org/2000/svg">
<g id="Group">
<g id="Group_2">
<g id="Group_3">
<path id="Vector" d="M80 86C53.3333 86 26.6667 86 0.0430802 86C0.0430802 78.6332 0.0430802 71.2665 0.0430802 63.9429C0.0430802 62.0473 0.0861605 60.1518 0.0430802 58.2563C0.0430802 57.567 0.258481 57.3947 0.904685 57.4378C1.37857 57.4808 1.85245 57.4378 2.32633 57.4378C2.80022 57.4808 2.92946 57.2654 2.92946 56.7916C2.92946 48.3478 2.92946 39.9041 2.92946 31.4604C2.92946 31.0727 2.80022 30.8573 2.49865 30.6419C0.775444 29.4787 0.0430802 27.8416 0 25.8169C0 23.7059 0 21.6381 0 19.5271C0 18.8809 0.129241 18.3209 0.430802 17.7609C3.18794 12.2897 5.90199 6.81848 8.61605 1.34729C8.78837 1.04573 9.04685 0.744167 9.04685 0.356445C29.6823 0.356445 50.3177 0.356445 70.9531 0.356445C70.9531 0.701087 71.1685 0.916488 71.2978 1.17497C74.098 6.73232 76.8551 12.3328 79.6554 17.8901C79.8277 18.1917 80 18.4932 80 18.924C80 21.3796 80.0431 23.8352 79.9569 26.2907C79.9138 28.014 79.1384 29.4787 77.7598 30.5126C77.2429 30.9003 77.1136 31.245 77.1136 31.805C77.1136 39.7318 77.1136 47.6155 77.1136 55.5422C77.1136 57.3947 77.1136 57.4378 78.9661 57.3947C79.7415 57.3516 80 57.567 80 58.3855C79.9569 67.6047 80 76.8239 80 86ZM40.0215 83.1567C52.084 83.1567 64.1465 83.1567 76.252 83.1567C76.9413 83.1567 77.1998 83.0274 77.1998 82.252C77.1567 75.2299 77.1567 68.2078 77.1998 61.1857C77.1998 60.4103 76.9844 60.2811 76.252 60.2811C52.1271 60.2811 27.9591 60.2811 3.83414 60.2811C3.10178 60.2811 2.88638 60.4534 2.88638 61.1857C2.92946 68.2078 2.92946 75.2299 2.88638 82.252C2.88638 83.0274 3.14486 83.1567 3.83414 83.1567C15.8535 83.1567 27.916 83.1567 40.0215 83.1567ZM12.9241 48.9079C11.5455 46.9262 11.287 44.9014 11.5455 42.7474C11.7178 41.4119 12.7518 40.4641 14.0872 40.378C16.1551 40.2487 18.1799 40.4211 19.9031 41.7135C20.2477 41.972 20.42 41.9289 20.6354 41.5842C20.9801 40.9811 21.5401 40.5503 22.2294 40.4641C25.0296 40.0333 27.6144 40.5072 29.6392 42.7043C31.0178 44.2121 31.5347 46.0215 31.4917 48.0032C31.4917 48.7355 31.6209 49.2094 32.4394 49.3387C33.0425 49.4248 33.5595 49.7695 34.0765 50.1572C36.3166 51.7512 37.3075 53.9483 37.2213 56.6192C37.2213 57.2654 37.3506 57.4808 38.0399 57.4808C39.4184 57.4378 40.7539 57.4378 42.1325 57.4808C42.8218 57.5239 42.951 57.2654 42.951 56.6192C42.9079 53.3882 42.951 50.1572 42.9079 46.9262C42.9079 46.1507 43.1233 45.9784 43.8557 46.0215C44.6742 46.0646 45.5358 45.9784 46.3543 46.0646C47.0436 46.1077 47.3021 45.9353 47.259 45.203C47.2159 43.9967 47.2159 42.7474 47.259 41.5411C47.3452 39.9903 48.0345 38.7409 49.413 38.1378C50.3177 37.7501 50.6193 37.147 50.8778 36.3284C51.567 34.1313 51.6101 34.1744 53.7211 34.9499C54.1519 35.1222 54.2811 35.2945 54.1088 35.7253C53.8934 36.3284 53.678 36.9316 53.5057 37.5347C53.4195 37.7932 53.3764 38.0517 53.678 38.1809C53.9795 38.3101 54.1519 38.784 54.6257 38.5255C55.5735 38.0086 56.5213 37.5347 56.6505 36.2423C56.6936 35.7684 56.9952 35.2945 57.0813 34.8206C57.1675 34.4329 57.3398 34.2606 57.7706 34.4329C58.3306 34.6483 58.9338 34.8637 59.4938 35.036C59.9246 35.1653 59.9246 35.3376 59.7954 35.6822C59.58 36.3284 59.3646 36.9316 59.1492 37.5778C59.063 37.8363 59.063 38.0947 59.3646 38.224C59.6661 38.3101 59.8385 38.8271 60.2262 38.5686C61.0878 38.0517 61.9925 37.6639 62.294 36.4146C62.8541 34.1744 62.9833 34.1744 65.1373 34.993C65.525 35.1222 65.6974 35.2514 65.482 35.6822C65.2666 36.2423 65.1373 36.8454 64.8788 37.4054C64.7065 37.8363 64.7927 38.0086 65.1804 38.2671C66.4728 39.1717 67.1621 40.4211 67.119 42.015C67.119 43.1782 67.119 44.3414 67.119 45.5476C67.119 45.9784 67.2483 46.1077 67.6791 46.1077C68.6699 46.0646 69.7038 46.1507 70.6947 46.1077C71.2978 46.0646 71.427 46.28 71.427 46.8831C71.384 49.7264 71.427 52.5697 71.427 55.413C71.427 57.6532 71.427 57.6532 73.6672 57.567C74.1411 57.567 74.2703 57.3947 74.2703 56.9208C74.2703 48.7786 74.2703 40.6365 74.2703 32.4943C74.2703 31.9773 74.098 31.805 73.6241 31.7619C72.3748 31.6758 71.2978 31.1588 70.4362 30.2972C70.0485 29.9095 69.8761 29.9956 69.5315 30.3403C67.2482 32.3651 64.1465 32.3651 61.9063 30.3403C61.5186 29.9956 61.3463 30.0387 60.9585 30.3834C58.7184 32.4081 55.5735 32.4081 53.3333 30.3403C52.9456 29.9956 52.7733 29.9956 52.4286 30.3403C50.2316 32.3651 47.0005 32.3651 44.8034 30.3403C44.4588 29.9956 44.2865 29.9956 43.8988 30.3403C41.7017 32.4081 38.4276 32.4081 36.2736 30.3403C35.9289 29.9956 35.7566 29.9526 35.3689 30.3403C33.0856 32.4081 29.9408 32.4081 27.6575 30.2972C27.2698 29.9526 27.1406 30.0387 26.7959 30.3403C24.4696 32.4081 21.454 32.4081 19.0845 30.2972C18.7399 29.9526 18.5245 30.0387 18.2229 30.3403C15.9397 32.4081 12.881 32.4081 10.5116 30.2972C10.1669 29.9956 9.95153 29.9956 9.64997 30.2972C8.78837 31.1588 7.75444 31.6758 6.5482 31.7619C5.94507 31.805 5.77275 32.0635 5.77275 32.6666C5.81583 37.6208 5.77275 42.5751 5.77275 47.5724C5.77275 50.6742 5.77275 53.7759 5.77275 56.8346C5.77275 57.4378 5.94507 57.6101 6.5482 57.567C7.53904 57.5239 8.48681 57.5239 9.47765 57.567C9.99462 57.567 10.0377 57.3947 9.77921 57.007C8.70221 55.3699 8.57297 53.5605 8.70221 51.7081C8.83145 50.1141 9.95153 49.0802 11.5886 48.994C11.8901 48.8648 12.3209 48.9079 12.9241 48.9079ZM57.1675 48.9079C53.5918 48.9079 50.0162 48.9079 46.4836 48.9079C45.9235 48.9079 45.7081 49.0371 45.7081 49.6402C45.7512 52.0096 45.7512 54.3791 45.7081 56.7485C45.7081 57.3516 45.8805 57.4808 46.4836 57.4808C53.5918 57.4808 60.7001 57.4808 67.8083 57.4808C68.4114 57.4808 68.6268 57.3516 68.6268 56.7054C68.5837 54.3791 68.5837 52.0096 68.6268 49.6833C68.6268 49.0371 68.4114 48.9079 67.8083 48.9079C64.2326 48.9079 60.7001 48.9079 57.1675 48.9079ZM34.2919 11.8158C34.2919 9.18789 34.2919 6.51692 34.2919 3.88902C34.2919 3.41514 34.2057 3.19974 33.6457 3.19974C32.1379 3.24282 30.63 3.24282 29.1222 3.19974C28.6914 3.19974 28.5622 3.32898 28.5622 3.75978C28.5622 9.10173 28.5622 14.4006 28.5622 19.7425C28.5622 20.2164 28.7345 20.3457 29.2084 20.3457C30.6731 20.3457 32.0948 20.3026 33.5595 20.3457C34.1626 20.3457 34.3349 20.1734 34.2919 19.5702C34.2919 16.9854 34.2919 14.4006 34.2919 11.8158ZM42.8648 11.7296C42.8648 9.10173 42.8648 6.47384 42.8648 3.88902C42.8648 3.41514 42.7787 3.19974 42.2186 3.19974C40.7108 3.24282 39.203 3.24282 37.6952 3.19974C37.2644 3.19974 37.1352 3.32898 37.1352 3.75978C37.1352 9.10173 37.1352 14.4006 37.1352 19.7425C37.1352 20.2164 37.3075 20.3457 37.7814 20.3457C39.2461 20.3026 40.6677 20.3026 42.1325 20.3457C42.7356 20.3457 42.8648 20.1734 42.8648 19.6133C42.8218 16.9854 42.8648 14.3575 42.8648 11.7296ZM45.7081 11.7296C45.7081 14.3575 45.7081 16.9854 45.7081 19.5702C45.7081 20.1303 45.8805 20.3457 46.4405 20.3457C47.9052 20.3026 49.3269 20.3026 50.7916 20.3457C51.2655 20.3457 51.4378 20.2164 51.4378 19.7425C51.4378 14.4006 51.4378 9.10173 51.4378 3.75978C51.4378 3.32898 51.3086 3.19974 50.8778 3.19974C49.413 3.24282 47.9914 3.24282 46.5267 3.19974C45.8374 3.15666 45.7081 3.45822 45.7081 4.06135C45.7081 6.60308 45.7081 9.18789 45.7081 11.7296ZM74.098 20.3457C74.7873 20.3457 75.4766 20.3457 76.1659 20.3457C77.1567 20.3457 77.3721 20.001 77.0275 19.0963C76.9413 18.924 76.8551 18.7517 76.769 18.5794C74.5288 14.099 72.2886 9.6187 70.0485 5.13835C69.0145 3.11358 69.0145 3.11358 66.7744 3.19974C66.3005 3.19974 66.2143 3.32898 66.3005 3.75978C67.8514 9.10173 69.3592 14.4437 70.867 19.7856C70.9962 20.1734 71.1686 20.3457 71.5563 20.3026C72.4179 20.3457 73.2795 20.3457 74.098 20.3457ZM5.90199 20.3457C6.67744 20.3457 7.45288 20.3026 8.22833 20.3457C8.78837 20.3888 9.00377 20.1734 9.13301 19.6564C9.69305 17.5024 10.3393 15.3914 10.9424 13.2374C11.8471 10.1357 12.7087 7.03388 13.6134 3.9321C13.7857 3.32898 13.6564 3.15666 13.0533 3.19974C12.5794 3.24282 12.1055 3.24282 11.6317 3.19974C11.0716 3.15666 10.8131 3.32898 10.5547 3.84594C8.09908 8.84325 5.60043 13.7975 3.10178 18.7517C2.92946 19.0963 2.8433 19.3979 2.8433 19.7856C2.8433 20.1734 2.97254 20.3457 3.36026 20.3457C4.22186 20.3457 5.04039 20.3457 5.90199 20.3457ZM25.7189 11.7727C25.7189 9.70486 25.7189 7.63701 25.7189 5.56915C25.7189 3.0705 25.7189 3.0705 23.2202 3.15666C22.7894 3.15666 22.6602 3.2859 22.574 3.7167C21.8417 9.01557 21.0662 14.3575 20.2908 19.6564C20.2046 20.1303 20.3339 20.3026 20.8508 20.3026C22.2294 20.2595 23.5649 20.2595 24.9435 20.3026C25.5466 20.3026 25.762 20.1303 25.762 19.4841C25.7189 16.9423 25.7189 14.3575 25.7189 11.7727ZM54.2811 11.7296C54.2811 14.3575 54.2811 16.9854 54.2811 19.5702C54.2811 20.1303 54.4534 20.3457 55.0565 20.3457C56.4351 20.3026 57.8568 20.3026 59.2353 20.3457C59.6661 20.3457 59.7954 20.2164 59.7523 19.7425C59.063 14.9606 58.3737 10.2218 57.6844 5.43991C57.5983 4.70755 57.7706 3.67362 57.2536 3.32898C56.7367 2.98434 55.7889 3.24282 55.0565 3.19974C54.4534 3.15666 54.3242 3.37206 54.3242 3.97518C54.2811 6.56 54.2811 9.14481 54.2811 11.7296ZM14.6042 20.3457C15.3366 20.3457 16.0689 20.3457 16.7582 20.3457C17.2321 20.3457 17.3613 20.1734 17.4475 19.7425C17.7921 17.1577 18.1799 14.616 18.5676 12.0743C18.9553 9.36021 19.343 6.60308 19.7307 3.88902C19.8169 3.37206 19.6877 3.19974 19.1276 3.24282C18.5676 3.2859 18.0075 3.2859 17.4475 3.24282C16.9305 3.19974 16.7151 3.41514 16.5859 3.88902C16.0258 5.99996 15.4227 8.06781 14.8196 10.1357C13.9149 13.2805 13.0533 16.3823 12.1055 19.5271C11.9332 20.1734 11.9332 20.4749 12.7087 20.3888C13.3549 20.3026 13.958 20.3457 14.6042 20.3457ZM65.3096 20.3457C65.9558 20.3457 66.6021 20.3026 67.2483 20.3457C67.9806 20.4318 68.0668 20.1303 67.8514 19.4841C66.4728 14.7883 65.1373 10.0926 63.8018 5.35375C63.1556 3.0705 63.1556 3.0705 60.7862 3.15666C60.3554 3.15666 60.1831 3.2859 60.2692 3.7167C61.0447 9.05865 61.8201 14.4006 62.5525 19.7425C62.5956 20.1734 62.811 20.3026 63.1987 20.2595C63.9311 20.3457 64.6204 20.3457 65.3096 20.3457ZM39.8061 23.189C39.0738 23.2751 37.8244 22.7582 37.2644 23.4044C36.7474 24.0075 37.0921 25.2137 37.1352 26.1615C37.1782 27.7124 38.4276 28.8756 39.9354 28.9186C41.4432 28.9186 42.6925 27.7555 42.7787 26.2046C42.8218 25.3861 42.7787 24.5675 42.8218 23.7921C42.8218 23.3613 42.6494 23.232 42.2186 23.232C41.5294 23.232 40.7539 23.189 39.8061 23.189ZM5.81583 23.189C5.04039 23.189 4.26494 23.189 3.4895 23.189C3.14486 23.189 2.88638 23.232 2.88638 23.6629C2.92946 24.5675 2.8433 25.4722 2.92946 26.3338C3.10178 27.8416 4.39418 28.9617 5.85891 28.8756C7.36672 28.7894 8.52989 27.6693 8.57297 26.1184C8.61605 25.2999 8.57297 24.4814 8.61605 23.7059C8.61605 23.3182 8.48681 23.1459 8.09908 23.1459C7.28056 23.232 6.5482 23.189 5.81583 23.189ZM74.3134 23.189C73.581 23.189 72.8056 23.189 72.0732 23.189C71.5994 23.189 71.427 23.3182 71.427 23.7921C71.4701 24.5245 71.427 25.2999 71.427 26.0323C71.4701 27.6693 72.6764 28.8325 74.2272 28.8756C75.7781 28.8756 77.0275 27.7124 77.1136 26.0753C77.1567 25.2999 77.1136 24.5245 77.1136 23.749C77.1136 23.3182 76.9413 23.1459 76.5105 23.189C75.8212 23.232 75.0458 23.189 74.3134 23.189ZM48.5514 23.189C47.776 23.189 47.0005 23.189 46.2251 23.189C45.8805 23.189 45.7081 23.2751 45.7081 23.6629C45.7081 24.5245 45.6651 25.3861 45.7512 26.2477C45.8805 27.7986 47.1729 28.9617 48.6807 28.8756C50.2316 28.8325 51.3516 27.6262 51.4378 26.0753C51.4809 25.343 51.4378 24.5675 51.4378 23.8352C51.4378 23.3613 51.3086 23.189 50.8347 23.189C50.0592 23.232 49.2838 23.189 48.5514 23.189ZM31.4917 23.189C30.7593 23.189 30.0269 23.232 29.3376 23.189C28.8207 23.1459 28.5622 23.3182 28.6053 23.8783C28.6484 24.5675 28.6053 25.2568 28.6053 25.9461C28.6484 27.6262 29.8115 28.8325 31.4055 28.8756C32.9995 28.9186 34.2488 27.6262 34.2919 25.9461C34.3349 25.2568 34.2488 24.5675 34.2919 23.8783C34.3349 23.3613 34.1626 23.189 33.6457 23.189C32.9133 23.232 32.224 23.189 31.4917 23.189ZM14.3026 23.189C13.5272 23.189 12.7517 23.189 11.9763 23.189C11.6747 23.189 11.4163 23.232 11.4163 23.6198C11.4593 24.6106 11.3301 25.5584 11.5024 26.5492C11.7609 27.9278 12.9672 28.9186 14.3457 28.8756C15.7674 28.8325 16.9736 27.7555 17.1029 26.3338C17.189 25.4722 17.1459 24.6106 17.1459 23.749C17.1459 23.3182 17.0167 23.1459 16.5859 23.1459C15.8104 23.232 15.0781 23.189 14.3026 23.189ZM22.9187 23.189C22.1863 23.189 21.4109 23.189 20.6785 23.189C20.2477 23.189 19.9892 23.2751 20.0323 23.7921C20.0754 24.6106 20.0323 25.4722 20.0754 26.2907C20.2046 27.7555 21.3678 28.8756 22.8325 28.8756C24.2542 28.9186 25.4604 27.8847 25.6758 26.42C25.762 25.6445 25.7189 24.826 25.762 24.0075C25.8051 23.3613 25.6327 23.1028 24.9435 23.1459C24.2542 23.232 23.5649 23.189 22.9187 23.189ZM65.6974 23.189C64.965 23.189 64.1896 23.189 63.4572 23.189C63.0264 23.189 62.8541 23.2751 62.8541 23.749C62.8971 24.5675 62.8541 25.4291 62.8971 26.2477C63.0264 27.7555 64.1465 28.8325 65.6112 28.8756C67.0329 28.9186 68.3253 27.8847 68.4976 26.3769C68.5837 25.4722 68.5407 24.5245 68.5837 23.6198C68.5837 23.1459 68.2822 23.1459 67.9806 23.1459C67.2052 23.189 66.4297 23.189 65.6974 23.189ZM57.1244 23.189C56.392 23.189 55.6166 23.189 54.8842 23.189C54.5396 23.189 54.2811 23.232 54.2811 23.6629C54.3242 24.6537 54.1949 25.6015 54.3673 26.5923C54.6257 27.9709 55.8751 28.9617 57.2536 28.8756C58.6753 28.7894 59.8384 27.7555 59.9677 26.3769C60.0538 25.4722 60.0108 24.6106 60.0108 23.7059C60.0108 23.3182 59.8815 23.1459 59.4938 23.1459C58.6753 23.232 57.8998 23.189 57.1244 23.189ZM18.8691 48.9079C19.1707 48.6925 19.9461 49.3387 20.0323 48.3909C20.3339 45.1168 18.0506 42.8766 14.7765 43.1782C14.475 43.2213 14.3457 43.3074 14.3026 43.609C13.9149 46.5385 15.8535 48.8648 18.8691 48.9079ZM33.0856 57.4378C34.2488 57.4808 34.2488 57.4808 34.2919 56.9208C34.5504 53.6467 32.3963 51.4927 29.1222 51.7081C28.8207 51.7512 28.6484 51.7942 28.6053 52.182C28.2176 55.1976 30.1131 57.3947 33.0856 57.4378ZM27.4421 48.9079C27.7868 48.6925 28.5191 49.3387 28.6053 48.3909C28.9068 45.1168 26.5805 42.8336 23.3495 43.1782C23.0479 43.2213 22.9187 43.3074 22.8756 43.609C22.4879 46.5815 24.4265 48.8648 27.4421 48.9079ZM15.9397 57.4378C16.2843 57.1793 17.0598 57.9547 17.1459 56.8777C17.3613 53.6036 15.2073 51.4496 11.9332 51.7081C11.5886 51.7512 11.4593 51.8373 11.4163 52.182C11.1147 55.1545 12.9672 57.3516 15.9397 57.4378ZM24.5127 57.4378C24.8573 57.1793 25.6327 57.9116 25.7189 56.8777C25.9774 53.6036 23.7372 51.4065 20.5062 51.7081C20.1616 51.7512 20.0323 51.8373 19.9892 52.182C19.6877 55.1545 21.5401 57.3947 24.5127 57.4378ZM55.7027 43.609C55.7027 44.2121 55.7027 44.8152 55.7027 45.4614C55.7027 45.8492 55.7458 46.0646 56.2197 46.0646C56.8228 46.0215 57.426 46.0646 58.0722 46.0646C58.3306 46.0646 58.546 46.0646 58.546 45.6768C58.546 44.3414 58.5891 43.0059 58.503 41.6704C58.4599 40.8519 57.7706 40.3349 57.0382 40.378C56.3059 40.4211 55.7458 40.9811 55.7027 41.7996C55.7027 42.4028 55.7027 43.0059 55.7027 43.609ZM52.8595 43.7382C52.8595 43.092 52.9025 42.4028 52.8164 41.7565C52.7302 40.8949 52.084 40.3349 51.3516 40.378C50.5762 40.4211 50.0162 40.9811 50.0162 41.8858C49.9731 42.6182 50.0162 43.3936 50.0162 44.126C50.0162 46.0646 50.0162 46.0215 51.9548 46.0646C52.6441 46.0646 52.9887 45.9353 52.9025 45.1599C52.8164 44.686 52.8595 44.2121 52.8595 43.7382ZM64.2757 43.6952C64.2757 43.1782 64.2757 42.6182 64.2757 42.1012C64.2757 42.0581 64.2757 41.972 64.2757 41.9289C64.2326 40.938 63.6726 40.3349 62.8541 40.3349C62.0355 40.3349 61.4755 40.9811 61.4324 41.8858C61.3893 43.092 61.4324 44.2552 61.4324 45.4614C61.4324 45.8923 61.6047 46.0215 61.9925 46.0215C64.2757 46.1077 64.2757 46.1077 64.2757 43.8244C64.2757 43.8244 64.2757 43.7382 64.2757 43.6952Z" fill="#C8AF84"/>
<path id="Vector_2" d="M53.4195 67.4323C54.6257 67.4323 55.5304 67.4754 56.4351 67.4323C56.909 67.4323 57.1244 67.5616 57.1244 68.0785C57.1674 70.2756 57.2105 70.2756 55.0134 70.2756C54.4534 70.2756 54.238 70.3618 54.1949 70.9649C54.0226 72.9035 53.1179 74.4544 51.4378 75.3591C48.4652 76.9531 45.5789 78.8055 42.3909 79.8394C36.9628 81.5626 30.3285 79.1501 28.7776 72.2142C28.5191 71.008 28.5191 69.7587 28.6052 68.5524C28.6914 67.26 29.6822 66.183 31.0177 66.0538C34.8088 65.7091 38.0829 66.6569 40.5815 69.7156C40.9262 70.1033 41.0554 70.1033 41.357 69.6725C41.917 68.8109 42.5202 67.9924 43.1664 67.1738C44.9757 64.7183 48.1206 63.8567 50.8777 65.1491C51.3516 65.3645 51.6101 65.2783 51.9116 64.9337C52.6871 64.1151 53.5487 63.3397 54.3241 62.4781C54.5826 62.2196 54.7549 62.1765 55.0565 62.435C56.8228 63.9859 56.8228 63.9859 55.1857 65.623C54.6688 66.2261 54.1087 66.743 53.4195 67.4323ZM32.8271 68.8971C32.5686 68.8971 32.2671 68.8971 32.0086 68.8971C31.6209 68.854 31.4916 68.9832 31.4485 69.414C31.0608 74.1098 34.7226 77.7716 39.4184 77.47C39.8061 77.4269 39.9784 77.3839 40.0215 76.91C40.28 72.4296 37.2644 69.0694 32.8271 68.8971ZM48.2498 67.4323C47.1297 67.4323 46.182 67.8631 45.5358 68.7678C44.588 70.0602 43.6833 71.3526 42.7786 72.645C42.5202 72.9897 42.4771 73.2912 42.6063 73.679C42.8217 74.4544 42.9079 75.1868 42.9079 76.0053C42.9079 76.393 42.951 76.6084 43.4248 76.3499C45.5789 75.2729 47.7759 74.1959 49.8869 73.0758C51.1793 72.3865 51.7393 70.9649 51.3947 69.6725C50.9208 68.2939 49.7576 67.4323 48.2498 67.4323Z" fill="#C8AF84"/>
<path id="Vector_3" d="M57.0815 54.5945C54.4967 54.5945 51.9119 54.5945 49.3271 54.5945C48.724 54.5945 48.5947 54.4222 48.5947 53.8621C48.5947 51.7512 48.5947 51.7512 50.7057 51.7512C55.4445 51.7512 60.1833 51.7512 64.9221 51.7512C65.5683 51.7512 65.7837 51.9235 65.7837 52.5697C65.7837 54.5945 65.7837 54.5945 63.7159 54.5945C61.4757 54.5945 59.2786 54.5945 57.0815 54.5945Z" fill="#C8AF84"/>
</g>
</g>
</g>
</svg>
