<svg width="21" height="21" viewBox="0 0 21 21" fill="none" xmlns="http://www.w3.org/2000/svg">
<path id="Vector" d="M10.0064 0.493652C4.47552 0.493652 0 4.96918 0 10.5C0 16.0181 4.47552 20.5064 10.0064 20.5064C15.5372 20.5064 20.0127 16.0308 20.0127 10.5C20 4.96918 15.5245 0.493652 10.0064 0.493652ZM10.0064 2.40084C11.8627 2.40084 13.3757 3.91387 13.3757 5.77019C13.3757 7.62652 11.8627 9.13955 10.0064 9.13955C8.15003 9.13955 6.637 7.62652 6.637 5.77019C6.637 3.91387 8.13732 2.40084 10.0064 2.40084ZM3.64908 16.603C3.64908 13.0938 6.49714 10.2457 10.0064 10.2457C13.5156 10.2457 16.3636 13.0938 16.3636 16.603H3.64908Z" fill="#C8AF84"/>
</svg>
